<mxfile host="app.diagrams.net" modified="2023-11-30T03:39:17.939Z" agent="Mozilla/5.0 (Windows NT 10.0; Win64; x64) AppleWebKit/537.36 (KHTML, like Gecko) Chrome/119.0.0.0 Safari/537.36 Edg/119.0.0.0" etag="KumQUxq54hopOBgmM-dV" version="22.1.5" type="github">
  <diagram name="第 1 页" id="NQGwFwYJoLIv2gH397Nz">
    <mxGraphModel dx="2006" dy="1848" grid="1" gridSize="10" guides="1" tooltips="1" connect="1" arrows="1" fold="1" page="1" pageScale="1" pageWidth="827" pageHeight="1169" math="0" shadow="0">
      <root>
        <mxCell id="0" />
        <mxCell id="1" parent="0" />
        <mxCell id="5wgM6XX0G4aH47P3BtwX-222" value="" style="rounded=0;whiteSpace=wrap;html=1;dashed=1;dashPattern=8 8;" vertex="1" parent="1">
          <mxGeometry x="1148.25" y="2216" width="351.75" height="40" as="geometry" />
        </mxCell>
        <mxCell id="5wgM6XX0G4aH47P3BtwX-157" value="" style="rounded=0;whiteSpace=wrap;html=1;dashed=1;dashPattern=12 12;" vertex="1" parent="1">
          <mxGeometry x="-179" y="1323.96" width="260" height="44.03" as="geometry" />
        </mxCell>
        <mxCell id="5wgM6XX0G4aH47P3BtwX-142" value="" style="rounded=0;whiteSpace=wrap;html=1;dashed=1;dashPattern=8 8;" vertex="1" parent="1">
          <mxGeometry x="188.25" y="1450" width="351.75" height="40" as="geometry" />
        </mxCell>
        <mxCell id="5wgM6XX0G4aH47P3BtwX-137" value="" style="rounded=0;whiteSpace=wrap;html=1;dashed=1;dashPattern=12 12;" vertex="1" parent="1">
          <mxGeometry x="188.25" y="1017.05" width="351.75" height="100" as="geometry" />
        </mxCell>
        <mxCell id="5wgM6XX0G4aH47P3BtwX-123" value="" style="rounded=0;whiteSpace=wrap;html=1;dashed=1;dashPattern=12 12;" vertex="1" parent="1">
          <mxGeometry x="-180" y="1444.97" width="260" height="44.03" as="geometry" />
        </mxCell>
        <mxCell id="5wgM6XX0G4aH47P3BtwX-108" value="" style="rounded=0;whiteSpace=wrap;html=1;dashed=1;dashPattern=8 8;" vertex="1" parent="1">
          <mxGeometry x="188.25" y="1543.5" width="351.75" height="86.5" as="geometry" />
        </mxCell>
        <mxCell id="5wgM6XX0G4aH47P3BtwX-1" value="文档" style="text;html=1;strokeColor=none;fillColor=none;align=center;verticalAlign=middle;whiteSpace=wrap;rounded=0;strokeWidth=1;fontSize=17;" vertex="1" parent="1">
          <mxGeometry x="40" y="280" width="60" height="30" as="geometry" />
        </mxCell>
        <mxCell id="5wgM6XX0G4aH47P3BtwX-3" value="文档切分" style="rounded=1;whiteSpace=wrap;html=1;fontSize=16;" vertex="1" parent="1">
          <mxGeometry x="140" y="230" width="100" height="30" as="geometry" />
        </mxCell>
        <mxCell id="5wgM6XX0G4aH47P3BtwX-4" value="知识存储" style="rounded=1;whiteSpace=wrap;html=1;fontSize=16;" vertex="1" parent="1">
          <mxGeometry x="300" y="230" width="100" height="30" as="geometry" />
        </mxCell>
        <mxCell id="5wgM6XX0G4aH47P3BtwX-5" value="" style="shape=image;verticalLabelPosition=bottom;labelBackgroundColor=default;verticalAlign=top;aspect=fixed;imageAspect=0;image=data:image/png,iVBORw0KGgoAAAANSUhEUgAAAIcAAAB3CAYAAAFecmOFAAAAAXNSR0IArs4c6QAAAARnQU1BAACxjwv8YQUAAAAJcEhZcwAAFxEAABcRAcom8z8AACfGSURBVHhe7Z2Hf1RV9sB/f9KWn67u6urquru2tay6trV3sYANlCJFql26CNIRRUCxoEAIJCQhISEhvZKEQHogCaEEvXu+582dvJm8Sd5MZoaQnfP53M/MvJl5795zzz39nvt/Jg6QvJu8t7nKXPjl18CnwRDxJqVHu8114/ebv07ICLbrx2eY+RsqA78YgEE3+dO49JA/ejVu5oaQm1z70n5zxbN7Pf9Ie/PTEv3dXVNz9NVCyE3+8vL+wDtjXl9arH+8+oV0U3fidOCqMeMXFmlPcsu7AlfCbsKX/PHdL6oCVwbgyufSzVUyVOCH7GZ9tRByk0XbavX1eukRN7tGhnedvH98foFeB9b93KB4c0PITfjDtozjgU/GVDX2Bt4Zc+/0g+Z6ufGq7+vN7W9lBa46MAixjS19erN/TsoyfWcv6DWGyXsLQ87OVeP2mW8PnAh8cpBr4cy5X+TmGeaGVzJM/4VQwgu5CdDZfU5vZmfqe0EiT37ug8P62QsG3cQNd07JNnmuqYwEQ97EL1xCN2Fq1+9qCHzyhog3Aal24dl2rcxYV8/5wC8GIOQm8zdUKVWG/9ndmO5Jy53VbCHkJs+8f9jzj7Qrn01XggPqTgwsByDkJk1tZ/S1vuW0+ePzDnN6bG6+XgMa5PrVLwwQooXgTe4WRsOfYErhMGN1uX7H4pu1tjxwdQCCN7F/zqvo1HHTbnz9gC7G+uY+/Q74+6uZZvbaisAnB4I3Wbq9ztz8xoHAp1Aoq+82f35xn67o8/2/mq7u0BkK3uRXWZgne8/r0/nx7kOt5tG5h7RH8zcOcHh+c7zdwZ2FEMTS1V+4m8DegjbTd26Ah0xeUapD+2BzdeDKAITcBHh49iGVN7sPtehnenKNDKX7dL9+9oJBN7Gwr6htkGiIBBFvEg3E5SbxgLHRkS3pTebuaQeVAIJrXYTt0+8VyOIZnr27wVdHoPEJC4+oMILy7EP9Njp6+1vZIp8HpGI4ROzITbKavW4aTbPsJL/ypPmX8OtwbuiGiB2B+8EpfxGFcYfI9+vkhuE6oLvpd/KbrfsGtBIL8AQER+3xKDtyouOsjuQmYU2FNacCVweAG3974Lj56KuaQQoGkFXcofyRwcDa/vFapvkmM/K0AJ4d+YNw68Xba83UVaVB9NpR//PNLNPg4tjHBGuPBDgYD2VKf8p1OJmFd4Sj78prDXzyBs+O8FAv9ROYIPorYoXOQYRTV5YFvhkA5PSUz0q0Y9wLQcfrzpzQDrrBsyMYEjzoz3IDaANleuLyYpmyUAlh4cu0JhVHzkPTzX/eyTOF1aFTeptgMlxMuSEisTKaky4NBFp4X6wdsHED0yTzf82L+2U15Jh9he2BX4XCd6JvQh9MG1hBJWAFeUHEjrSfOhfUKWBSryw6YlpPng18OxiOivnx+Px8xSLYRFM+WNYZ+HZ4iNiRcLggGFkqBIyWROfo5J9sRwVLa3bWB34ZG/juSKIh1ZFwSHUkHMZWR5pEX3nho0JPE8wvxNyRZpHQUz8rVWZnhSJmHiJh2Td1gV/5h6g6wog/+LJa2b99eKTmSOpsU3WsJ/DvocFXRzbtPmbumJwdFGzRtsuf2avuq/4Ljt3qBRE7UiDC6XZ5OMqN182jaX9BORLzrbh2sJJlwbMjTAGS1eum0TSm8I2lxaLlOTrrUODZkWmi7KB/YoQi7r0eEqnxe0T/2p0DXhG8AzF15AkR5+gPQIeoA2rMDtMhvr9veu4g8xooEr03po7AE2xH3LDupwZdDTTbgavF1ln+rfdy3bCrMTjFV4rKMO7DQrUKvMCzI/fPzNM/z15XEeJXtIDnD2uurnnAF2vhVO958/yHh5XIwRJOCvSVgJshIgzqSPWx3pCVgoJ8/4xcs7+oI/ALb8AZfN/MXMUAqwQd9Uhglfz2iT36OhQM6siWfU3KrBpb+9QvgepHh7hGBxdvqw36sVCyN+1ulJE739PpSctKQrz4vPvN4zF0hHmFBiz0nrlgZq0pVy+2xRLvHxRN3eq0qIzrhX7CAb0XeuM3Dla9lWxgUEfSC9t05F6A4YTWDn8AU3dPPWhKjnYHvh2ArJKOoBINnfD7WyaGOr/DYVBHICpGgDB78eMic/b8YLbc3HnWdHpI2lli0fFw7QCyZlKWOSoEXdnYox75oWBQRwBcCDe+nhnU0qEBfOJeUCEP+c87h4KCkNjBApfrDoBoY+4IhHpeTIglYkLQGR7ClD0y55DpF2JMP9wWNLRBP6jHAekFi7fVmHvejqEjdwod3D0t1JOHsfRvGRUjt8sbjH38VY1nrKur55yZvKIkiFUYpJvth4NnR3bmOqGJe4Vlh2tdLN1n3z9sSuq8JWmV8CFUBjpLp28XfjKUX8SCZ0eABZsq1VVlqX7L3qbAN96AwsTvGT3Le/7GKnNalr5fiNgRC5vTjjmGNLQgKwG+0BawgeETzwl2uA4G/vZqhipRscCwHbGAUgMR24cydZZemMKyBm9C9Qu+O+IGlB2m4d1N3s6cWCCmjiQCUh0Jh1HTkdECKYSEQQohYZBCSBhcVIT8KspxTVOv2br/uHlyQb4KT9wevF4lShSK1HtfVGnGBVI+GZA0hKAf7S1oN9NXl5u7ph1UNz0DZvDoUUM1tA2MR5CFUUDgAySe8zAuRgoJQQgOCGzFp2TWMUDxFeDe8xrsSBqIAql/eGavUhj+iPAIUbQQM0JwcHT39ptdeS2a0sTMMevMJHqk1wCS0Xg2GWO8v0N0WixCYjt+ISqEYA//kNMiWnqmBo7Q6MM7dDEahj7L6T4x/Ogb1qmX68wPRIUQTBVIlE5YWzu8c4lsLDuWIM+9f2auWbKt1jS09AW9YdanNFzUfyiICiHjAq45OoWnI6+803y8pcbcKsvlj8/Fn2Igf/jPLRMPmM++O2pySjuGTGltaD2dXIQ8OCvP6aRQCbPhBXhipnxWqt4Y+AkDGo6SiKmoFJH74gPBC/hjTvOQkQMLpE0VVJ80E+U/109wqPZvr2SqI/ervU3q0hrOn+qGqBCy6OtaXat/ls77jb3gJAZJH2+pVkpS9waMT+4Btb2xrNhkHukwrV2RI+tuwGE4U0T3fTNytS9MjkU4CLll0gGzZHudKa/v9vT5DQe+EIJEIUHiWumAe2Z1VuUaHvBvM0/oeo4XMKv1zafNpj3HzEOz89Tfw5Jk8CASLxhS5LUlR8zew21myspS87sn0gYlMEcLvhBCnqFVoG6W9YyDk1kOXwowWvgLeTToBd9lNasv0i/8KBKMEAI8g+VjGTfP4pks2W2ikNm8UAvwlZlrytXLnxSEbNjdqBkrdMxmiQNQBArYy58UBWctHEl85jrLbMqKUrMzt0X/l13Sad7bVGluksFzb4twEMpnpMiHX1b7SpQmQEBCC8lQs9eVq3s7VvCFkB0y00qyghCyryIB6T4twsRAEsGCG4S5MVC39LEk78y6w0fwWD+1oMBkl3Z6BqbcgJJVJnwE6caS4X5KSYH704gPcQ2pGJ7xNRz4Qki1GGAk0vEgvOFkgh0oHjqA5Yay+h6zaGutkjxS5xnhOZv3NGn8YDhAwdq6r8k8/8FhZaDuMBF6CVE5onNz1lUoM2W5Ql19UfiW3eALIRZw7w50xpld3jNLH3xZpdHcM6505GjhlJgChJjYjHDDBCdJLMhIA7MONbGFBL52PkwsI82IHCLyh8pwGwp8IwRS5mF0DOUHhjlvQ6Vmwtm4Bx1nFi9/eq95eE6eWSxUcVh0hEhApu1cuQf3QxwjtSzpXy28BAS8uviI2iMNEfQeN5Q39MikOQg5mWiEAFAInWQAXnrDFyIinxRegL4BknRtC5IsogjjE2jSgQeug2CWAaTOmof/nA2EbocDqJG4DwnxxINgyCCT55LuSvoiyTXRQFQImbaqTB9KwsSe/KFTUQFmdev+JvPQO3kaX7TLDOSAODYBRSMRyO395Osa89hcJ1U2qJsIEkAy194USUYouf1kbA6lqBCCgjZ+0UAKLQ0b5vY3s1UTJRl0OCnhF1qEAn/Oa1UV/JqXQnUSYu3wEuJkG4UqO2NcHl4QFUIsoAjViy4BSf79tYBohQFKY/YhW2ySaatKVUT6gfwqsUdEG2Y5ov1CiRYB3J9l+PkP9aZKJFM0/o1oISaEeAFI2nmwReN6rF9yCKwUYnYvezpNB0sSLinIn31Xp/yE3/E9v4OfXPncXuVVMGw012RD3BASDtgiWKK7RDw+Imseb5pSEmseZhqgKhw6hIzTC9pNd2/8SD9WSBhCIgFK2pdiluNtH42QdISMdkghJAxSCAmDFEJckEKGC1LIcEEKGS5IIcMFKWS4IIUMF6SQ4YJRgQws4VNi6KUVtJmXPinSvc4FYu5Hk2QcD7ioyCAtPKe0U1OicA9q4EksXOsKoMDG9swTmg6eDEg6Ms73/6IeM9LNCRlg5uPZ4hVfh204pUEKXrd/Tc0xb39eplv08ZAlCpKGDFIi1vzUoGHLWycJFbg8XW4keDX8IXjaidQT1Jr8WWlCXAIJQwZROfam/pDTrA6d6wMuQ5ofBHg1nMPqJhTk4C2DsnA8E5yym6ZGAnFHBqmQeLzmbaxQt6CNnXgNbqSNZcSOUp4zdWWpxmLcVRGihbgggzRHgsvvrC03j8/L15kjvhLOBxLVeA5IJ7xApQW21x3xKCUyHMSMjHPCCPGKk65074xc84/XHQ86sxXrMohH4/n0g606E5cVm6Y2/3knUSMDfWDj7kaNd1z7kiyBizx426wDmlcSc9f82KCSKxqIChnkWpFPepmsUxvyu9gNBJDTQcwYEYwoXrEj+r37QFTIYC3aANLFbEgVkABjJkazZmeDJs8s3FpjfvfEnog7o4cD38ho7jijMRHWJOKRV6+OJrLxTJYlORwEsX7KDU1jWPn9UfPbx5OADHIlbp2YpTMCOT4275BqjommFPgRz+BZD885pJH5QxEKjMHMk4KMnLJOJU9m583lJVpeiYpoExYdkXWarnaF12BG0rgnytVLHxeZ77JOaEGroSBplJFZ3KEkapFh4fTZC6ZSDCkKDNz42gFFGBw9FgljtUtSmsgjI28UKvBjvZIgR0oDPCOW4ieAb2SkH25XRYqBupHhhu7T5836XY2an3GjWKE2scVr4O4GAlgK8AK2eDOY2uPD53Zg+qOKb9x1TLd4Q0XwM+r3LdhYJQZhV1RpWL6RwTZwOs7g3oqADDfsK2wz726qNA/MzNXENa9lBGIRhWz9oEjLnvw2X/kfIIHsZCL4IMG9cwIJwz2dTIA6LRDiF3wjg6JiTqrSPuXkfoEEWKrpUfyQxBerHJHfRYfJx4AK/KQ4McukVJHEAhWhfrspjyVKMh2ZR2QCRQu+kEHKwVoxv4MPljWNDcA2DlIRmKnhACuW+tczVpdpghs5Hn5IGC2ysfW0JtYxGX8l3YHlIAjlFQTgGMIqJrdsJFk+vpBBcjtrmoR3OwusTYwjEuDxVB2uOqllXuMFpE2SOUhxHuweqAAGS+O5IAH+svL7eqG8Zk17Ahk9Mjmxgi9kLBQurdsuAohwN2boCiF/EuNe/LhQyThSVUM/0NPXb1aLRun4QJyB2/1zTAjUSVo1/lKb8Xe4+pRSx8Oz8xKPDDRP1votb2QNJLdKc4tP984jMpDJBa2NYkMNjiAqVTwwK1cRjCfMPodn84y56ytF1A52FENBSUMGzIoOUVmLWaeaxaOigVLRhNmynXUjxiILhpZR1OG5/xULOKek08xZV6kpTspcFQEOYnmPBYpUYMtGJMCTDjIemZM3oi2kwyKDdMggMt7KDvIFrpMwT3Xre2eQwIYlG4oUGmSNp/uBmXlmlWiIbCPFf8lyelYQhS7CEnSQ6PAhPORs7iGR1o/C9aMwY/wXJNCScO9nN5QX+ELGP0SztMgIr/oCkPz6VfoxTZBFxodTikUK9gX3YDcSDNHqHlCQVbqmryrXfHM/+kbGkXat000Kpn0Gry8Kv6HWFy6HaMDXMkEf4EFuyvACZjG/qsu8uqRYBpapgwQxbsZreQBLwSINjZF9KSyl8/1Di2lEORt0nv+gMDhJbuTzTCgURY5KwdGEFnwh4+l3C3RbF0mrMDo/cKytz3yypUbFH/qAIxUECdJxlgZUoLqKLBckyHDA3rqv9zXphGgqtdxLBy+NwavoF0TAeHH3dZyKXsz7QgYbZCBxHvzywiKz4efGYPmf4QB9gd0K7EdD/OLJRo1Gne4dBgkoahhq7Imh0CNLEGS6kYBW+9i8fHXzvSzW7e+fTNPwQSzgCxmQ2j2yLiFH1jmNLQ+QdlGtPy80ViXHlMBf4ENDAZYwPIjNhCDBLbGYfZYsETfiJnllXTIxjqQiSocJj2shFvCFDAB/Ahv8bYfoHK80xB9KEDX/otmP6gZ4RVN7n1n2bZ0igPtCBfoqzTJHSvp9sqXaKXEe9rAFm6qSgwwiYyCDVGgS68kFt05h1i/fgRT8pChB1ODwAyBwv0gF/CH4MOza1/sKMhDZiM3XhCmvk+U5lMc7acj4Is3Z/UgnKUPI5j/Wqk2kt4FikIIChZ7wvfymOwJfOCGMePPeJlXK+L0GnQJMkfvBcGHYnNSBPuNn469dJjDaWMA3MtgIzECZtWWiEQJokPsL21XaMABm0mqfcHVVhIT7z11foUsAYsGxPHdDhblzMrsiHSaoUoYWQOrj8w+Z77JPmDafYpGAFjuq7xPlj3AjFnYsyzUKnuEsE5CBOR0O7Iqc/nmZ+TceJxmU3U+va14+Y2LD8HTHgVCQ/c4yRwpWUsOYQ5Qu+BwJegkbeLgv9+B+UBb3pPzf7vzWqLaS+0bG7kNtummPBy4fwsdI/OIrWbP4LPCZsmXLdtIyQT6rS1CogqAUx05FKlrgBaj08CZK3jq8a2B5cV8ocraYCdQQiSYQ7RsZNlSA3cBAe88MrSOgjbLLEduFwdNhXpm1G9/IVB8IPspotnnhwUK7tYqXm4Fz33tE3KOGl8dYZdA3Mrp6zwnpFeigIHWY3qw1Feq9GooU8YIhBlGNkTYUnGWH5HC6BoDoRDtFOmCeo7RZ3sQrjbrS7LJmuaDgjQR8IwNAl1Cm99K+oPSAN+DU4bQHP/tU/QCJJ2zaQfNlV/ZVKmmc5QU1wJxR+qA6inbHC6JCBkChXTzev38qTWcGMqVzfOb6+19Ua8ApFoASQOrrS0tUrFoHMs+AInnOI0Ih2zOOj540Jrg4J1WRjadkK2uWWYNS6DADwUCjXtdw9gcA/8GXyZ5W8rZY/44EcvgBzyBytze/Pa7bOsMhJmS44WB5p3q82aLNIECIDkIGwCA48+bjr6vVLnF7wznyC0b34VfV+ht+b5HKUuA+uA8x6vBkJQNGjAwLiEYcx3io4fQ0K0bhK1eIjkIk7ntR62lvreCcnX0qCvkNVqhKCLmG3kDcNBpxGw+IGzIsEBwmJoLJjvpui5PRGKxdSlYp4zoUBU/gICLEZyKXwlAQd2RYQNwSB50jqjhlZ6xnS6kg8B5E3CpL5NMdR5UhRpt2FG9IGDLc0CYMlzQBmKp1AVJpHS97VxwDTyOFpCDDAoYdnmyWUSyGVKIhqcgY7ZBChgtSyHBBChkuSCHDBSlkuCCFjBREhBRxpCAipIgjBREhRRwpiAgp4khBREgRRwoiQoo4UhARUsQxBJAWUN7Qo2nM1CgnV4PkWB9ZBWMCUsQRAOLDpfXd5uv9Tbo7knpA5KbfNS1Hc1QIlJO3xp5bUjNmr6/QeFB5fY/mmo1F+J8iDhKJyJEhC5xdaNQleX+zUxaITQtsrbFHNhAuptmsCZpNOiCMTBIBOT1khkNAL3xYqCmq2zKOazICkdfz/b/6Sl4arTAmiYMJ6e27oLtRyEhLy2/VtDjqwrDyNS9gnJMhb7cNKwEEosTRNiWcQMoNhEN+IpyGXEVOdVn/c4PJLu3QAlwcQD8aA69eMCaIgwR1iIDkD4iAM0PYAkke1i2TnJQjqhuQtGpTj7wmOZ6NZ/AsiJBs4/9/Kk3F0zPvF2j/SHPeldeqSa/0fzTCJUccp8/26znxX+49pltKX19yRIsVsL2MXFImhCwim4OmYsFj8i5Gg7vAWUjv4pX+3jk5W3NoKZ1Bjht6DBmV8dxUHSuMOuKA5aLgsX+PPDjKcnEQFwoinOA2UQpBqpuVuxMKvSZltDZnDE7ml45DxsB19B6uowfNWF2uex0oZUJKHBu/2NWWDLioxAEhWCLILe/S3S8rdhzVDFQIAeSpOJCVhgJolcNwJI/VxlgZN/mVbFu67c1s3QWEHoP4JIW5WoiGzfGJ0HuTShyURIETYCWQG8nOHCyFB4WtsikWnQBlLpm6waXSwAXKM42aoZSt+Tq9Sf0w6CyXJHGc7O3XM9Umryg1d8igbn4jS3cWwQVYFTav3LLU/9XG5IODcBHJKzoUufzsDcwq7tD6BckQLQkjDjpPQSashr+9yjY2ts87gx0tCuLFakw+C0LT7jGnhSCorHPPtINakHvBxkrz0VfV5lVRttk9d9nTTunlT3fUmaPNyTt0KCHEgbeRMkbsR2Ajlt2T+L/aVCQIAbAfi33f+EDum56rWfdUDaEqa0ZRe8j56W2nzprVO+tVKWW7M6dnk7Uf6wnasUBCiIPT5N7dVKWyEcKAVYIkXrU8g6wYkGVZ51hrSgzCGazYxPq49+2DWuQQy6O47pRpbOkbcpsmR6lS/hITfUwRB/vRqIyCkgn7VC+kEAMxia/FLN20p1HETZEOnDIzOIcsq7W/He2Eg2ikz24zFCLABX/P2zm6iZrqt4WigOMVZSN0NMcvjlniIIL5xIJ8Z7IFcbwiWyk26WadIIwaiWx2prwP2+pxOVOhyrJhquOw+i42sfB8Ow7tk7znsFP6S91IzvvkCEqO1o6Hf/x4xxmtIUnc5jeP7REiydY9kMfbk7cHMiHEQVUOYhi4ju3qAqlsBh1ug2dnj5i7tad08xdl0rDpH5ubL/fJ0DoPEAxiKdHEYokB0xr3N9yMupUcOv/+F1XqmCusPqkVg+J1ICuElXGkQ+tOEAeiSgDcF2K8deIBM0nMVyoLlB3t0dhRoiEhxEHtKkpYs+LdnMMPcYQDkU0Kd+nJ/qWdZtUPR5VlU3uC+/IMJg4iZEJt85pwr2Z/z/+5D2KNHcxYD1gO+GOos8d5BpSIwGkXXj0pFoBrVjb06L0Xbq3VZ90rSirPpS8sAMZnx2JfcQMguu4WcTN5RYnuooQb+ynsGi0khDhKROGavqpMCw3YytYqVoTy3WJlJECVSOoBkYiDLJ4gOsz9Mw6a297Cj+KUy+OZlngcAnCsBq6BfCaB8n3s3X/q3QIze22FFnbjZI+RHDHiBkx64iRUv6SvcEPMe0Qnk+0Qtn0N1bUs0RIuuEP6yP7iSctKzEoRN7llXepOh1DjTxYOJIQ48IKimePuhTCYEBoFJhdvqzHph9tEY+/WMqXxzHegikWFrEacbku/qVUvolNQLkv7AZLxJYz7qFBLjBEZ5UjreBEsQL5ITdNp4Z7tWm2L6uGUQ6SOCwW7nVBAKBHArSBkmsMtHAKGO05ZWWq2Zx5X3SzZuSFxJQ48d0RLOVIKZDBAiwAaSLG1V8iqelRWwkQRNYu312rtFaKt8cyqoiZdh1gKhPOJdGJFMXHxjHgy5uySTi0LO39TpeokFPtivEw2MRHlXjLhFg9wCTgX3+EHohI7eIAQUOQhYkL8j4qutUcIvX+YIqOJgrgRB/59lEgIA0cPK8AiI7wpuxQE8RvLWTBnUb5Y2a+JTkEhYuQxhUqpTZEImRoNaALRGdETGnvMz7mtZsm2WnVi4bkkG4xxMQ47HohBRUWgWbGGqLUijPA8XBY9htI1uRVdqoBTYPm3T+zRklZUlh1J1emRQNyII1vk6SsyqZyOYVkjnkAQAysNRlZdK8irWcKBy/B7UvFQ1CaKrF2zs17ldl1zn+oEcdALIwLEDivPLe/U0wIp/6dOPRmbZf9WR7A+D67h5CMWct3LGapXoJi/uqhYC78h7iJVooH4qMA5JoljR9YJLXeO2cXKYaLJvYBgFm2tUfOPFUMFfzgLJiKmrv1tpAby+Q0TQqFI7o8uM+7Dw+p6XrerQc/GIwUvVpOSiSGlkIL5Ow6c0CJ2cAVEH+zfCZkPHMDh7hf9YSyIUVzi40WsQAiISbK8iET7IWI445gkDpBL/WmsBA4Is2wVhYoCu7ZMImXUKGG0VxRSvH9TVpbpUXfOavOfz8n9HZntZHwho4lBcG7gW5+WaqlWauh3RVilZ4WFUwebZGCyrzht7v6Zudpfnk1fbH6p7YsSQ4A7UEZSlVvRFaZ/Xq7lZclCZ9sCIiJWQCciqQni+I0QB7X7d4loPReHEytjgbgRx4bdjaozsMrcxLFIZLNXiXwAM4wy1Zh5WA1wmHEfOZngIAhCYDIQL5aNhxMKjYnjO55LU8IiM/yNTM0VYTVCMBQohZPB7plc/uv+H+/tZ57JKy5x+sJ/nhciQhfKEsLD0sKclqHHDGSoQ0zca9/hdg3J42jT6rT0ScZMRBuOSxJUTlmH1jLmPwQ34+FvGQriQhxYBVgpN0/MUpFhET0ccUQCNhNRmJXapPMEYeMXFpmHZRWpt1BYOM+AY/CcoTgMjX6gv/B7Nzew3/MeQoBbWI8u8QysDuoabtl3XM+biubsJi9gHsEDegz62dqdDer3eXBWnirjJDjRR3ffbEOcYdVc/nSajh/dh/9uDVTX9HN4RiwQN52D+si4zN2rjtW2VMQKWv5IAHmML+JgWZfqBIu21eiZVtwf0YJ7WydWnhmO2PCmxCAEAjGQgshnqpLP31ilJ5mQelfZ2BtVredIgFKLAo0IJeuNs7PgDDwTPYU+wBHDCYLPtvEZKwedhmRkHGgrvj2qliEeY6wnP8dJxAJxIw6QMP4T5wgIVirEgbXCcRI/HmzWKoLx4oLcBoIjFlEoSiRhcE5+RG+whAliIRZtAVHBNbgCCKbw788iz1l5+D1GmlmFaMXFz9EU7IZjCwKEgEji2XAtd98sEdA320csHLjIPydlqzJMog8i5grhlOg35I2eaI/uZJiRQNyIo+dMv9lf1K5bCC37tghgdcA2Oell0vISs1lEEPW+4QZMTDxrbKKE4oFdIauV883gMHhrt+5v0jyTkRzOBEBEiId6MadJ0GHC0GkenJWrq5txQwBMNmN3EwLfoUg7hOIotcRInnmvQPuI676krls5AaX8sXqw+AjZU6kaj2u83Pp+IG7EAaAgFdd2q2LFioFtghgaiANBIObyZ9I0bRCxwCERIJfwNE4vEmajKQKfaICY0BM49JMTOxgbCqKNlqKAe5nklhj0N7LyIRYcfNbUxWfDeEn68QIi02yv5GhoSxxEZCNZYImAuBKHBUxV5KMepeBClm1B5MFuZSXhIENvAJmwfdLv2a/BqqSsOl7SZAGrFlG1XgiBCsMTRCxyhgVWC8ROX+lzuH7DeKxlBVfQVED5H0fSkW2PD4VDhvyaumOSODCxOEGJQbGqQCJyEy7Bzi6086DLOWCygVTLivm9/QzSCVHTcHyNFxFBDAPEwV5Z1bG61XGYESRrFML7SZS79zZXaaYaB6fxPEu82i9plrDpY/C6vL9BTE10AyaPVALK1+eIooh5ipkea/8QLxzFNaaIg8DZFpGNljisNg5HwFa3mjUxBawDzjHiNBgULkQPWjyNFahy27U6mSSsE1g1NcPxkuLE4hAX4hIol5FWJmcT1BzvVWtk9Y/1+lz3pmpWuyUCywl4Ptet+5++cHrFk8LZiPhyRBn7Xdu64rs5GsIlqjtZLBzyOzgsm6OE8LomU+QmRKxgbuLjQFS4iYNji0iYCQfMxhqR6xxVQjBq3oYKDeDhAIJQsO3xATB5QULRiXO8pJc9laaeWZ6J2/vdLyo1UwuZTmY3/gosFL5nkjmLmlfbt+A95f7oRHzH8yBWstDmCwGyU56TytCpovXbDAdwMCLHWHWkAk4XkfrQ7DwRTU6fGCc6HKkG5K6w5YMk5a6ekflehoOEEAeTwkSgc4QTh5/DtzALcTohoznAnOyvqWJ5EApn8iyhKGexK10arJ7vaFzTzVPyGz6rBSXf83vb+A49B7+H9nFajnltabFyFo7g57wtXP7xjgi3dJxVxxqJ1rjf8bNwcBnWix2D7RPjsmOzOg9hCvQyOBfBPK8FFw9ICHFwbjC5CEwIxMEkoKAymKYRKJfMEYVXuP/CrQTHClUWI2JY5awwlEWrDygByHv6wHVeUSwxD0k84hRr/CMHjnSY9pPn1NMYT0JABLRKf0uOnnL8H+sqzENz8hyipY8vOwQa7KslVumrI1YzzE0yNhYFFhJpgV+mNemh+Jj/LKJLLhOsofW0WfFdncpJ2L5DIM6ucbZFrv2pXimebLCRHqZy6vR5PUd1s+gv6B9MOCYjBOKsskzdlI27GfHC2Uiw5ER4FVuFwPDf7MprUfFAVjrOrKtkkWhitLxCFFaMQRDgRkMCxKTk/V1TD2ogkNO3PhcOtl8IN5mOLzckhDg49Lqh5bSe84ilosoeK0QQA2tkex8Th+ghtZ/EYwJayFyipSMBVTxFHJD5hZOKySIcH+8gFauWNAHMVHW4rSrVqDDJv1YXQjww4eHEwHUIgmvkhaIcY7aTtc+ueY5fGQ2QEOKwgOXAIZ/PflCgRAKBgBxl+9J4hXCUhcp7VjmZUjYCunxHnWHjMGahstFE8c9hAFHTKgRGbAeFefrqMj2PCzc3egKTbhOpVVwEFoK76a43EYHszSGLLE2UyvqWPj1J9mKfwhQJEkocbqgUjoAPAORgQhJZZOXASRxT0qUwynVLSNbL+tCsPFmdZWp9kB2OWYpIGmlMJBywnE6IwojowQ3/qVgHyHt8MqrYhvWTV4fIHW7B92TDEeehvAQBNywdEp9/GZ00EBGSRhxuON//qykV5MNVlmyvVX2A0k03i/KFbwQTGGRDFHActyXCdyTfcug1/pF3hCWz7RD/RUVjjzrhogH2q+KyJ6rMfd4WAkRZ5bmkBsD+4W70gf7Q0J8gAnWdS59w0D0xv0AsqlLVNdJFPBB76Tt7iVFDGFwU4ggHJhRrgVA5NvwKEScoZbBj60izqzU4QfKZCUJ3QdFDJKHwkj3FIZqLxZphcxXJMW5Qa+dIu5YzmLi8WA/jZB8q4kHNZOFUKh6Ecyl3CDSuWYLFOtIjGkXXQNRgPbDzbaRBvdEGo4I4vABxgSlYJArlqh/q1SNJ5JPILlyDyYM4kPUq1wNyHgWQiWRCMW9xHv1ndp7uX3lARBM6DYTA6ofgaPr/wH/hEvwfIiDfFf2HA9LfWVdudhxoVo6A6Im3OBuNMGqJwwuwEEgpxJO67Js6M0XkOeFuJpAJRQRY0zmEywQIx15TnUY+wwn+JJwCdzx5FOgJJOQQ6idKTI4KDqaxTwbecEkRhxfgr0B5RGcg4wpRgZ+DicelDrFYkcQrBIQowuTEjEbHoEgKogaPbKJS7i5FuOSJIxwQRbi82Yluy1fjBEMcPT7vkLrwsXYwj0k0ikc64FiFMUccKYgfpIgjBREhRRwpiAgp4khBREgRRwoiQoo4UhABjPkvGOvVmpS+oOIAAAAASUVORK5CYII=;" vertex="1" parent="1">
          <mxGeometry x="570" y="261.95" width="75" height="66.11" as="geometry" />
        </mxCell>
        <mxCell id="5wgM6XX0G4aH47P3BtwX-6" value="规则匹配" style="rounded=0;whiteSpace=wrap;html=1;" vertex="1" parent="1">
          <mxGeometry x="157" y="268.06" width="60" height="21.94" as="geometry" />
        </mxCell>
        <mxCell id="5wgM6XX0G4aH47P3BtwX-7" value="模型分段" style="rounded=0;whiteSpace=wrap;html=1;" vertex="1" parent="1">
          <mxGeometry x="157" y="300" width="60" height="21.94" as="geometry" />
        </mxCell>
        <mxCell id="5wgM6XX0G4aH47P3BtwX-8" value="手动维护" style="rounded=0;whiteSpace=wrap;html=1;" vertex="1" parent="1">
          <mxGeometry x="157" y="328.06" width="60" height="21.94" as="geometry" />
        </mxCell>
        <mxCell id="5wgM6XX0G4aH47P3BtwX-9" value="文本向量化" style="rounded=0;whiteSpace=wrap;html=1;" vertex="1" parent="1">
          <mxGeometry x="310" y="268.06" width="70" height="21.94" as="geometry" />
        </mxCell>
        <mxCell id="5wgM6XX0G4aH47P3BtwX-10" value="字段筛选" style="rounded=0;whiteSpace=wrap;html=1;" vertex="1" parent="1">
          <mxGeometry x="320" y="300" width="60" height="21.94" as="geometry" />
        </mxCell>
        <mxCell id="5wgM6XX0G4aH47P3BtwX-12" value="知识库" style="text;html=1;strokeColor=none;fillColor=none;align=center;verticalAlign=middle;whiteSpace=wrap;rounded=0;strokeWidth=1;fontSize=17;" vertex="1" parent="1">
          <mxGeometry x="517.5" y="280" width="60" height="30" as="geometry" />
        </mxCell>
        <mxCell id="5wgM6XX0G4aH47P3BtwX-13" value="宪法" style="rounded=0;whiteSpace=wrap;html=1;" vertex="1" parent="1">
          <mxGeometry x="450" y="261.95" width="60" height="21.94" as="geometry" />
        </mxCell>
        <mxCell id="5wgM6XX0G4aH47P3BtwX-14" value="法律" style="rounded=0;whiteSpace=wrap;html=1;" vertex="1" parent="1">
          <mxGeometry x="450" y="293.89" width="60" height="21.94" as="geometry" />
        </mxCell>
        <mxCell id="5wgM6XX0G4aH47P3BtwX-15" value="司法解释" style="rounded=0;whiteSpace=wrap;html=1;" vertex="1" parent="1">
          <mxGeometry x="450" y="321.95" width="60" height="21.94" as="geometry" />
        </mxCell>
        <mxCell id="5wgM6XX0G4aH47P3BtwX-16" value="监察法规" style="rounded=0;whiteSpace=wrap;html=1;" vertex="1" parent="1">
          <mxGeometry x="450" y="350" width="60" height="21.94" as="geometry" />
        </mxCell>
        <mxCell id="5wgM6XX0G4aH47P3BtwX-17" value="行政法规" style="rounded=0;whiteSpace=wrap;html=1;" vertex="1" parent="1">
          <mxGeometry x="450" y="381.94" width="60" height="21.94" as="geometry" />
        </mxCell>
        <mxCell id="5wgM6XX0G4aH47P3BtwX-18" value="地方法规" style="rounded=0;whiteSpace=wrap;html=1;" vertex="1" parent="1">
          <mxGeometry x="450" y="410" width="60" height="21.94" as="geometry" />
        </mxCell>
        <mxCell id="5wgM6XX0G4aH47P3BtwX-19" value="问题" style="text;html=1;strokeColor=none;fillColor=none;align=center;verticalAlign=middle;whiteSpace=wrap;rounded=0;strokeWidth=1;fontSize=17;" vertex="1" parent="1">
          <mxGeometry x="47" y="742.5" width="60" height="30" as="geometry" />
        </mxCell>
        <mxCell id="5wgM6XX0G4aH47P3BtwX-20" value="" style="shape=image;verticalLabelPosition=bottom;labelBackgroundColor=default;verticalAlign=top;aspect=fixed;imageAspect=0;image=data:image/png,iVBORw0KGgoAAAANSUhEUgAAABsAAAAeCAYAAADdGWXmAAABfklEQVRIDcWWTUvDQBCG++PEs3fPIl7VmwcvHkRRL+rRgwcFQREE0aPQQlHQYotCa4NUi20p9MMagy2OvIEsJkzK7ETiwpvNbmb22dnZ7jZDKZZMiiz6P9jxVZ12Tx2RLq4b1osSimx2444m5rNi7V/WrIAsrFDpUpzWDsuhySzvPYqBLGycN6JB9EGN94Wd4jgX800Nyxbb9PQ6MFEiBe/u0AzMvSSCYcDfwKmlvN/mQOhTw7CMAEHYmcHGAhD55ooaFgzO1dMrNxzLPjLkCjsyToBbw15aLs2s3xptHVXY2UY7sYzWsGbHo/N8w6jk9KLjsm017Cz3RlJhcigqWL39SXObBbFgr4b5noqHKrKS06fJxZxYsFdH1up49PDcFwv2ahgSvn1SFSvRBoHz6kFZrESw7uCLak1XLNirl/G+2jOHK3f+Rftgr4YNR9/04Y3Egr0a5nsqHta/s+Ce0tTWsGg+bNuiUx+3b9w9ZdOP/55cCd3UnMFf9qUK+wGFrVIQi5dQaQAAAABJRU5ErkJggg==;" vertex="1" parent="1">
          <mxGeometry x="-20" y="261.95000000000005" width="63" height="70" as="geometry" />
        </mxCell>
        <mxCell id="5wgM6XX0G4aH47P3BtwX-21" value="" style="shape=image;verticalLabelPosition=bottom;labelBackgroundColor=default;verticalAlign=top;aspect=fixed;imageAspect=0;image=data:image/png,iVBORw0KGgoAAAANSUhEUgAAAFAAAABLCAYAAADnAAD1AAAF8UlEQVR4Ae2c/W8URRjH+eOMionRxLcYo4lGY4zxF8EaglBfwCgGlSAir9WSiBqoRAKI4gtKC9RyHOkLLb1re71W+mJpbWtpS8tjvps8ZTq3dzuzs7O7sDPJZnb3ZnZnPvudl+eZadeQC0YE1hjldpnJATQUgQPoABoSMMyeagXme6eo8fQgbTt8Lfbj82N9dH3iZiDeVAN8ZstfdN/r5xI7Ht144e4FiK+fJDx+98zcrZoQU6vAsAChmvqDV+no2WH6sXXE6wJMlJwpgOt2tVfttwCUVaUTZwYgVMaVRXyu/R9PgeJAgHs68JCWn1mtHd8zTRhwEABMbrIYyTmgeetAzAxAVlo1QAwYMB1AaWoDxXGQ1cewWIWYW/I9lTgzCgyCgUEEwQGU1BcEDr9jasNKck1YEeDL2y9780HRJANEwFSBzmkYPHcRcnzPjMJcYY4LQ7Or6goQ1QYYzuMXZx4gAKD/qza4+EET72UeIJqwCET33AF0AMO5s9DfwY8YtumyUjOrQPbKMIiwcSYBivO+MA4EEXYmAaL5cgAA3blf5gECGEw2wINTVQSie55JBTIkE+XxM1IFsGtgmr77bYje/aqbNuztpD0/9NPZ/Dgt3FrmFrcSo+BciaRisS9dKZh0Eosp1zs0SzuOFOjBN5p9odR90UG/58elopG3npEkPEyDgoJ1gGOT8/RkfasvOBnOyQsjFeWFEuEsFQ84CuS8uIanRUxnch7UdLmgVgEu375N27/t9a2sH4AXPsxRe9+/XLaqMRaP5PzsMK2aydIPVgG2Xr1RUVG54vL11kM9gVWVAcLeTSpYBbg7hB367NY2ml+sHFREQCLAJOGhTFYBvrmnQ1uBUGR3aVrkVXHOAJOGZx1gWEM+qB8EwDTAsw7wvcZubQWurWum4fHau6J4ibJCmgncsNqED/2ktwaL5vvKx5cTwBD+lVYB5gtT9Nz7bVoq/PpMOXxtEshpFSDq880vZWWAmw500eTMohIGTNBhBsIc/PRIgY79+Tf1DM4o5Y0ykXWAS8tqk+nnP7hEg6NzgXUbvTFPX54q0RP1F30/zJbGbspdmwp8TlQJrAPkgl7qmSRAkifOD28475lgfg4FzssxzKsXt+UqniE/86G6FjrfOcHZrMaxAeRaTM0uepX7NTdG/df/49tK8a7vi4HwGOarn+SpMLx6bVjpJZqJYgeoWb6V5HCFMRzVGH2j7RALQPSDAABvC4z+nU1F70DHD8/xxPRCYD33Hu/XBoguA++2GawBnJtf8tzp8PWhnwtSDZyXr+24Qg2nSiRvywCAjfs6A5/h946i5WYcOUBMJeCIVIHmV2G+B5hiePqdcH/yAIXbDJEBBLjPmvroEc3dTwxMjtfWtVB57M60pr5Bb2sunnf/umYqjdx5hg2QkQBE3xbFAo4MUZyKNJwsaTfhlz7K2WC26pnGAE2XDWVo4rXoZcaU54H1/msqYh7xfP+JgVWVtXFhDFBlYitWSudc7gcxwKjmX7+7PdCrEwVQI4BxLD1iqsMB1gpG9SCIj2266E2bOJ/NOPUA5YWmmwtL1PTHsK9Jh2XTnUeLvtMgWxCNAGLZMEgNpr+j3+Md9iIEqBEjPxR6+EzZMw9hJsYdjADabMLo/+CQ7SnH76LS+QhGAG0oEIvwmBbVMsHg9vq5bdRTH0ZqHHBOwIKBBRRnMAIYpQLh39t3fMDXQwOYWAfBmrHKLgcsZr21v8tr2nC82gxGAKNSIKD4ubawuITVN4yqJn0pRm4otpaqw0I2AohOO4r/ZyB7oofG5ujAiQF66m21PTWqcDcf7KKWjmgdrUYAw361WvlgvoV1HKiAxKgOVUelxlQBPN06So9vNmuuKhCRBo6PoC0ktT40/5YqgLxlQxWCaborxeCdYAyqWpwagFGO6Kpg4QgxDZkG6Gfh6AJ1AHWJSekdQAmI7qUDqEtMSu8ASkB0Lx1AXWJS+tQAjMos1DEtg3bCSqx8L1MD0Ld0d8FNB9DwIzmADqAhAcPsToEOoCEBw+z/A+YJYlZ1wY8GAAAAAElFTkSuQmCC;" vertex="1" parent="1">
          <mxGeometry x="-30" y="720" width="80" height="75" as="geometry" />
        </mxCell>
        <mxCell id="5wgM6XX0G4aH47P3BtwX-22" value="意图识别" style="rounded=1;whiteSpace=wrap;html=1;fontSize=16;" vertex="1" parent="1">
          <mxGeometry x="127" y="852.5" width="100" height="30" as="geometry" />
        </mxCell>
        <mxCell id="5wgM6XX0G4aH47P3BtwX-23" value="知识检索" style="rounded=1;whiteSpace=wrap;html=1;fontSize=16;" vertex="1" parent="1">
          <mxGeometry x="372" y="852.5" width="100" height="30" as="geometry" />
        </mxCell>
        <mxCell id="5wgM6XX0G4aH47P3BtwX-24" value="知识融合" style="rounded=1;whiteSpace=wrap;html=1;fontSize=16;" vertex="1" parent="1">
          <mxGeometry x="565.5" y="1174.97" width="100" height="30" as="geometry" />
        </mxCell>
        <mxCell id="5wgM6XX0G4aH47P3BtwX-26" value="法条查询" style="rounded=0;whiteSpace=wrap;html=1;" vertex="1" parent="1">
          <mxGeometry x="147" y="752.5" width="60" height="21.94" as="geometry" />
        </mxCell>
        <mxCell id="5wgM6XX0G4aH47P3BtwX-27" value="法律咨询" style="rounded=0;whiteSpace=wrap;html=1;" vertex="1" parent="1">
          <mxGeometry x="147" y="784.44" width="60" height="21.94" as="geometry" />
        </mxCell>
        <mxCell id="5wgM6XX0G4aH47P3BtwX-28" value="日常问答" style="rounded=0;whiteSpace=wrap;html=1;" vertex="1" parent="1">
          <mxGeometry x="147" y="812.5" width="60" height="21.94" as="geometry" />
        </mxCell>
        <mxCell id="5wgM6XX0G4aH47P3BtwX-29" value="知识库" style="text;html=1;strokeColor=none;fillColor=none;align=center;verticalAlign=middle;whiteSpace=wrap;rounded=0;strokeWidth=1;fontSize=17;" vertex="1" parent="1">
          <mxGeometry x="259.5" y="621.94" width="60" height="30" as="geometry" />
        </mxCell>
        <mxCell id="5wgM6XX0G4aH47P3BtwX-30" value="大模型" style="text;html=1;strokeColor=none;fillColor=none;align=center;verticalAlign=middle;whiteSpace=wrap;rounded=0;strokeWidth=1;fontSize=17;" vertex="1" parent="1">
          <mxGeometry x="379.5" y="621.94" width="60" height="30" as="geometry" />
        </mxCell>
        <mxCell id="5wgM6XX0G4aH47P3BtwX-31" value="" style="rounded=0;whiteSpace=wrap;html=1;" vertex="1" parent="1">
          <mxGeometry x="487.5" y="130" width="222.5" height="100" as="geometry" />
        </mxCell>
        <mxCell id="5wgM6XX0G4aH47P3BtwX-32" value="知识库" style="text;html=1;strokeColor=none;fillColor=none;align=center;verticalAlign=middle;whiteSpace=wrap;rounded=0;strokeWidth=1;fontSize=17;" vertex="1" parent="1">
          <mxGeometry x="487.5" y="130" width="60" height="30" as="geometry" />
        </mxCell>
        <mxCell id="5wgM6XX0G4aH47P3BtwX-33" value="宪法" style="rounded=0;whiteSpace=wrap;html=1;" vertex="1" parent="1">
          <mxGeometry x="500" y="161.95999999999998" width="60" height="21.94" as="geometry" />
        </mxCell>
        <mxCell id="5wgM6XX0G4aH47P3BtwX-34" value="法律" style="rounded=0;whiteSpace=wrap;html=1;" vertex="1" parent="1">
          <mxGeometry x="500" y="193.89999999999998" width="60" height="21.94" as="geometry" />
        </mxCell>
        <mxCell id="5wgM6XX0G4aH47P3BtwX-40" value="司法解释" style="rounded=0;whiteSpace=wrap;html=1;" vertex="1" parent="1">
          <mxGeometry x="567.5" y="161.95999999999998" width="60" height="21.94" as="geometry" />
        </mxCell>
        <mxCell id="5wgM6XX0G4aH47P3BtwX-41" value="监察法规" style="rounded=0;whiteSpace=wrap;html=1;" vertex="1" parent="1">
          <mxGeometry x="567.5" y="190.01" width="60" height="21.94" as="geometry" />
        </mxCell>
        <mxCell id="5wgM6XX0G4aH47P3BtwX-42" value="行政法规" style="rounded=0;whiteSpace=wrap;html=1;" vertex="1" parent="1">
          <mxGeometry x="640" y="160" width="60" height="21.94" as="geometry" />
        </mxCell>
        <mxCell id="5wgM6XX0G4aH47P3BtwX-43" value="地方法规" style="rounded=0;whiteSpace=wrap;html=1;" vertex="1" parent="1">
          <mxGeometry x="640" y="188.06" width="60" height="21.94" as="geometry" />
        </mxCell>
        <mxCell id="5wgM6XX0G4aH47P3BtwX-44" value="" style="shape=image;verticalLabelPosition=bottom;labelBackgroundColor=default;verticalAlign=top;aspect=fixed;imageAspect=0;image=data:image/png,iVBORw0KGgoAAAANSUhEUgAAAIcAAAB3CAYAAAFecmOFAAAAAXNSR0IArs4c6QAAAARnQU1BAACxjwv8YQUAAAAJcEhZcwAAFxEAABcRAcom8z8AACfGSURBVHhe7Z2Hf1RV9sB/f9KWn67u6urquru2tay6trV3sYANlCJFql26CNIRRUCxoEAIJCQhISEhvZKEQHogCaEEvXu+582dvJm8Sd5MZoaQnfP53M/MvJl5795zzz39nvt/Jg6QvJu8t7nKXPjl18CnwRDxJqVHu8114/ebv07ICLbrx2eY+RsqA78YgEE3+dO49JA/ejVu5oaQm1z70n5zxbN7Pf9Ie/PTEv3dXVNz9NVCyE3+8vL+wDtjXl9arH+8+oV0U3fidOCqMeMXFmlPcsu7AlfCbsKX/PHdL6oCVwbgyufSzVUyVOCH7GZ9tRByk0XbavX1eukRN7tGhnedvH98foFeB9b93KB4c0PITfjDtozjgU/GVDX2Bt4Zc+/0g+Z6ufGq7+vN7W9lBa46MAixjS19erN/TsoyfWcv6DWGyXsLQ87OVeP2mW8PnAh8cpBr4cy5X+TmGeaGVzJM/4VQwgu5CdDZfU5vZmfqe0EiT37ug8P62QsG3cQNd07JNnmuqYwEQ97EL1xCN2Fq1+9qCHzyhog3Aal24dl2rcxYV8/5wC8GIOQm8zdUKVWG/9ndmO5Jy53VbCHkJs+8f9jzj7Qrn01XggPqTgwsByDkJk1tZ/S1vuW0+ePzDnN6bG6+XgMa5PrVLwwQooXgTe4WRsOfYErhMGN1uX7H4pu1tjxwdQCCN7F/zqvo1HHTbnz9gC7G+uY+/Q74+6uZZvbaisAnB4I3Wbq9ztz8xoHAp1Aoq+82f35xn67o8/2/mq7u0BkK3uRXWZgne8/r0/nx7kOt5tG5h7RH8zcOcHh+c7zdwZ2FEMTS1V+4m8DegjbTd26Ah0xeUapD+2BzdeDKAITcBHh49iGVN7sPtehnenKNDKX7dL9+9oJBN7Gwr6htkGiIBBFvEg3E5SbxgLHRkS3pTebuaQeVAIJrXYTt0+8VyOIZnr27wVdHoPEJC4+oMILy7EP9Njp6+1vZIp8HpGI4ROzITbKavW4aTbPsJL/ypPmX8OtwbuiGiB2B+8EpfxGFcYfI9+vkhuE6oLvpd/KbrfsGtBIL8AQER+3xKDtyouOsjuQmYU2FNacCVweAG3974Lj56KuaQQoGkFXcofyRwcDa/vFapvkmM/K0AJ4d+YNw68Xba83UVaVB9NpR//PNLNPg4tjHBGuPBDgYD2VKf8p1OJmFd4Sj78prDXzyBs+O8FAv9ROYIPorYoXOQYRTV5YFvhkA5PSUz0q0Y9wLQcfrzpzQDrrBsyMYEjzoz3IDaANleuLyYpmyUAlh4cu0JhVHzkPTzX/eyTOF1aFTeptgMlxMuSEisTKaky4NBFp4X6wdsHED0yTzf82L+2U15Jh9he2BX4XCd6JvQh9MG1hBJWAFeUHEjrSfOhfUKWBSryw6YlpPng18OxiOivnx+Px8xSLYRFM+WNYZ+HZ4iNiRcLggGFkqBIyWROfo5J9sRwVLa3bWB34ZG/juSKIh1ZFwSHUkHMZWR5pEX3nho0JPE8wvxNyRZpHQUz8rVWZnhSJmHiJh2Td1gV/5h6g6wog/+LJa2b99eKTmSOpsU3WsJ/DvocFXRzbtPmbumJwdFGzRtsuf2avuq/4Ljt3qBRE7UiDC6XZ5OMqN182jaX9BORLzrbh2sJJlwbMjTAGS1eum0TSm8I2lxaLlOTrrUODZkWmi7KB/YoQi7r0eEqnxe0T/2p0DXhG8AzF15AkR5+gPQIeoA2rMDtMhvr9veu4g8xooEr03po7AE2xH3LDupwZdDTTbgavF1ln+rfdy3bCrMTjFV4rKMO7DQrUKvMCzI/fPzNM/z15XEeJXtIDnD2uurnnAF2vhVO958/yHh5XIwRJOCvSVgJshIgzqSPWx3pCVgoJ8/4xcs7+oI/ALb8AZfN/MXMUAqwQd9Uhglfz2iT36OhQM6siWfU3KrBpb+9QvgepHh7hGBxdvqw36sVCyN+1ulJE739PpSctKQrz4vPvN4zF0hHmFBiz0nrlgZq0pVy+2xRLvHxRN3eq0qIzrhX7CAb0XeuM3Dla9lWxgUEfSC9t05F6A4YTWDn8AU3dPPWhKjnYHvh2ArJKOoBINnfD7WyaGOr/DYVBHICpGgDB78eMic/b8YLbc3HnWdHpI2lli0fFw7QCyZlKWOSoEXdnYox75oWBQRwBcCDe+nhnU0qEBfOJeUCEP+c87h4KCkNjBApfrDoBoY+4IhHpeTIglYkLQGR7ClD0y55DpF2JMP9wWNLRBP6jHAekFi7fVmHvejqEjdwod3D0t1JOHsfRvGRUjt8sbjH38VY1nrKur55yZvKIkiFUYpJvth4NnR3bmOqGJe4Vlh2tdLN1n3z9sSuq8JWmV8CFUBjpLp28XfjKUX8SCZ0eABZsq1VVlqX7L3qbAN96AwsTvGT3Le/7GKnNalr5fiNgRC5vTjjmGNLQgKwG+0BawgeETzwl2uA4G/vZqhipRscCwHbGAUgMR24cydZZemMKyBm9C9Qu+O+IGlB2m4d1N3s6cWCCmjiQCUh0Jh1HTkdECKYSEQQohYZBCSBhcVIT8KspxTVOv2br/uHlyQb4KT9wevF4lShSK1HtfVGnGBVI+GZA0hKAf7S1oN9NXl5u7ph1UNz0DZvDoUUM1tA2MR5CFUUDgAySe8zAuRgoJQQgOCGzFp2TWMUDxFeDe8xrsSBqIAql/eGavUhj+iPAIUbQQM0JwcHT39ptdeS2a0sTMMevMJHqk1wCS0Xg2GWO8v0N0WixCYjt+ISqEYA//kNMiWnqmBo7Q6MM7dDEahj7L6T4x/Ogb1qmX68wPRIUQTBVIlE5YWzu8c4lsLDuWIM+9f2auWbKt1jS09AW9YdanNFzUfyiICiHjAq45OoWnI6+803y8pcbcKsvlj8/Fn2Igf/jPLRMPmM++O2pySjuGTGltaD2dXIQ8OCvP6aRQCbPhBXhipnxWqt4Y+AkDGo6SiKmoFJH74gPBC/hjTvOQkQMLpE0VVJ80E+U/109wqPZvr2SqI/ervU3q0hrOn+qGqBCy6OtaXat/ls77jb3gJAZJH2+pVkpS9waMT+4Btb2xrNhkHukwrV2RI+tuwGE4U0T3fTNytS9MjkU4CLll0gGzZHudKa/v9vT5DQe+EIJEIUHiWumAe2Z1VuUaHvBvM0/oeo4XMKv1zafNpj3HzEOz89Tfw5Jk8CASLxhS5LUlR8zew21myspS87sn0gYlMEcLvhBCnqFVoG6W9YyDk1kOXwowWvgLeTToBd9lNasv0i/8KBKMEAI8g+VjGTfP4pks2W2ikNm8UAvwlZlrytXLnxSEbNjdqBkrdMxmiQNQBArYy58UBWctHEl85jrLbMqKUrMzt0X/l13Sad7bVGluksFzb4twEMpnpMiHX1b7SpQmQEBCC8lQs9eVq3s7VvCFkB0y00qyghCyryIB6T4twsRAEsGCG4S5MVC39LEk78y6w0fwWD+1oMBkl3Z6BqbcgJJVJnwE6caS4X5KSYH704gPcQ2pGJ7xNRz4Qki1GGAk0vEgvOFkgh0oHjqA5Yay+h6zaGutkjxS5xnhOZv3NGn8YDhAwdq6r8k8/8FhZaDuMBF6CVE5onNz1lUoM2W5Ql19UfiW3eALIRZw7w50xpld3jNLH3xZpdHcM6505GjhlJgChJjYjHDDBCdJLMhIA7MONbGFBL52PkwsI82IHCLyh8pwGwp8IwRS5mF0DOUHhjlvQ6Vmwtm4Bx1nFi9/eq95eE6eWSxUcVh0hEhApu1cuQf3QxwjtSzpXy28BAS8uviI2iMNEfQeN5Q39MikOQg5mWiEAFAInWQAXnrDFyIinxRegL4BknRtC5IsogjjE2jSgQeug2CWAaTOmof/nA2EbocDqJG4DwnxxINgyCCT55LuSvoiyTXRQFQImbaqTB9KwsSe/KFTUQFmdev+JvPQO3kaX7TLDOSAODYBRSMRyO395Osa89hcJ1U2qJsIEkAy194USUYouf1kbA6lqBCCgjZ+0UAKLQ0b5vY3s1UTJRl0OCnhF1qEAn/Oa1UV/JqXQnUSYu3wEuJkG4UqO2NcHl4QFUIsoAjViy4BSf79tYBohQFKY/YhW2ySaatKVUT6gfwqsUdEG2Y5ov1CiRYB3J9l+PkP9aZKJFM0/o1oISaEeAFI2nmwReN6rF9yCKwUYnYvezpNB0sSLinIn31Xp/yE3/E9v4OfXPncXuVVMGw012RD3BASDtgiWKK7RDw+Imseb5pSEmseZhqgKhw6hIzTC9pNd2/8SD9WSBhCIgFK2pdiluNtH42QdISMdkghJAxSCAmDFEJckEKGC1LIcEEKGS5IIcMFKWS4IIUMF6SQ4YJRgQws4VNi6KUVtJmXPinSvc4FYu5Hk2QcD7ioyCAtPKe0U1OicA9q4EksXOsKoMDG9swTmg6eDEg6Ms73/6IeM9LNCRlg5uPZ4hVfh204pUEKXrd/Tc0xb39eplv08ZAlCpKGDFIi1vzUoGHLWycJFbg8XW4keDX8IXjaidQT1Jr8WWlCXAIJQwZROfam/pDTrA6d6wMuQ5ofBHg1nMPqJhTk4C2DsnA8E5yym6ZGAnFHBqmQeLzmbaxQt6CNnXgNbqSNZcSOUp4zdWWpxmLcVRGihbgggzRHgsvvrC03j8/L15kjvhLOBxLVeA5IJ7xApQW21x3xKCUyHMSMjHPCCPGKk65074xc84/XHQ86sxXrMohH4/n0g606E5cVm6Y2/3knUSMDfWDj7kaNd1z7kiyBizx426wDmlcSc9f82KCSKxqIChnkWpFPepmsUxvyu9gNBJDTQcwYEYwoXrEj+r37QFTIYC3aANLFbEgVkABjJkazZmeDJs8s3FpjfvfEnog7o4cD38ho7jijMRHWJOKRV6+OJrLxTJYlORwEsX7KDU1jWPn9UfPbx5OADHIlbp2YpTMCOT4275BqjommFPgRz+BZD885pJH5QxEKjMHMk4KMnLJOJU9m583lJVpeiYpoExYdkXWarnaF12BG0rgnytVLHxeZ77JOaEGroSBplJFZ3KEkapFh4fTZC6ZSDCkKDNz42gFFGBw9FgljtUtSmsgjI28UKvBjvZIgR0oDPCOW4ieAb2SkH25XRYqBupHhhu7T5836XY2an3GjWKE2scVr4O4GAlgK8AK2eDOY2uPD53Zg+qOKb9x1TLd4Q0XwM+r3LdhYJQZhV1RpWL6RwTZwOs7g3oqADDfsK2wz726qNA/MzNXENa9lBGIRhWz9oEjLnvw2X/kfIIHsZCL4IMG9cwIJwz2dTIA6LRDiF3wjg6JiTqrSPuXkfoEEWKrpUfyQxBerHJHfRYfJx4AK/KQ4McukVJHEAhWhfrspjyVKMh2ZR2QCRQu+kEHKwVoxv4MPljWNDcA2DlIRmKnhACuW+tczVpdpghs5Hn5IGC2ysfW0JtYxGX8l3YHlIAjlFQTgGMIqJrdsJFk+vpBBcjtrmoR3OwusTYwjEuDxVB2uOqllXuMFpE2SOUhxHuweqAAGS+O5IAH+svL7eqG8Zk17Ahk9Mjmxgi9kLBQurdsuAohwN2boCiF/EuNe/LhQyThSVUM/0NPXb1aLRun4QJyB2/1zTAjUSVo1/lKb8Xe4+pRSx8Oz8xKPDDRP1votb2QNJLdKc4tP984jMpDJBa2NYkMNjiAqVTwwK1cRjCfMPodn84y56ytF1A52FENBSUMGzIoOUVmLWaeaxaOigVLRhNmynXUjxiILhpZR1OG5/xULOKek08xZV6kpTspcFQEOYnmPBYpUYMtGJMCTDjIemZM3oi2kwyKDdMggMt7KDvIFrpMwT3Xre2eQwIYlG4oUGmSNp/uBmXlmlWiIbCPFf8lyelYQhS7CEnSQ6PAhPORs7iGR1o/C9aMwY/wXJNCScO9nN5QX+ELGP0SztMgIr/oCkPz6VfoxTZBFxodTikUK9gX3YDcSDNHqHlCQVbqmryrXfHM/+kbGkXat000Kpn0Gry8Kv6HWFy6HaMDXMkEf4EFuyvACZjG/qsu8uqRYBpapgwQxbsZreQBLwSINjZF9KSyl8/1Di2lEORt0nv+gMDhJbuTzTCgURY5KwdGEFnwh4+l3C3RbF0mrMDo/cKytz3yypUbFH/qAIxUECdJxlgZUoLqKLBckyHDA3rqv9zXphGgqtdxLBy+NwavoF0TAeHH3dZyKXsz7QgYbZCBxHvzywiKz4efGYPmf4QB9gd0K7EdD/OLJRo1Gne4dBgkoahhq7Imh0CNLEGS6kYBW+9i8fHXzvSzW7e+fTNPwQSzgCxmQ2j2yLiFH1jmNLQ+QdlGtPy80ViXHlMBf4ENDAZYwPIjNhCDBLbGYfZYsETfiJnllXTIxjqQiSocJj2shFvCFDAB/Ahv8bYfoHK80xB9KEDX/otmP6gZ4RVN7n1n2bZ0igPtCBfoqzTJHSvp9sqXaKXEe9rAFm6qSgwwiYyCDVGgS68kFt05h1i/fgRT8pChB1ODwAyBwv0gF/CH4MOza1/sKMhDZiM3XhCmvk+U5lMc7acj4Is3Z/UgnKUPI5j/Wqk2kt4FikIIChZ7wvfymOwJfOCGMePPeJlXK+L0GnQJMkfvBcGHYnNSBPuNn469dJjDaWMA3MtgIzECZtWWiEQJokPsL21XaMABm0mqfcHVVhIT7z11foUsAYsGxPHdDhblzMrsiHSaoUoYWQOrj8w+Z77JPmDafYpGAFjuq7xPlj3AjFnYsyzUKnuEsE5CBOR0O7Iqc/nmZ+TceJxmU3U+va14+Y2LD8HTHgVCQ/c4yRwpWUsOYQ5Qu+BwJegkbeLgv9+B+UBb3pPzf7vzWqLaS+0bG7kNtummPBy4fwsdI/OIrWbP4LPCZsmXLdtIyQT6rS1CogqAUx05FKlrgBaj08CZK3jq8a2B5cV8ocraYCdQQiSYQ7RsZNlSA3cBAe88MrSOgjbLLEduFwdNhXpm1G9/IVB8IPspotnnhwUK7tYqXm4Fz33tE3KOGl8dYZdA3Mrp6zwnpFeigIHWY3qw1Feq9GooU8YIhBlGNkTYUnGWH5HC6BoDoRDtFOmCeo7RZ3sQrjbrS7LJmuaDgjQR8IwNAl1Cm99K+oPSAN+DU4bQHP/tU/QCJJ2zaQfNlV/ZVKmmc5QU1wJxR+qA6inbHC6JCBkChXTzev38qTWcGMqVzfOb6+19Ua8ApFoASQOrrS0tUrFoHMs+AInnOI0Ih2zOOj540Jrg4J1WRjadkK2uWWYNS6DADwUCjXtdw9gcA/8GXyZ5W8rZY/44EcvgBzyBytze/Pa7bOsMhJmS44WB5p3q82aLNIECIDkIGwCA48+bjr6vVLnF7wznyC0b34VfV+ht+b5HKUuA+uA8x6vBkJQNGjAwLiEYcx3io4fQ0K0bhK1eIjkIk7ntR62lvreCcnX0qCvkNVqhKCLmG3kDcNBpxGw+IGzIsEBwmJoLJjvpui5PRGKxdSlYp4zoUBU/gICLEZyKXwlAQd2RYQNwSB50jqjhlZ6xnS6kg8B5E3CpL5NMdR5UhRpt2FG9IGDLc0CYMlzQBmKp1AVJpHS97VxwDTyOFpCDDAoYdnmyWUSyGVKIhqcgY7ZBChgtSyHBBChkuSCHDBSlkuCCFjBREhBRxpCAipIgjBREhRRwpiAgp4khBREgRRwoiQoo4UhARUsQxBJAWUN7Qo2nM1CgnV4PkWB9ZBWMCUsQRAOLDpfXd5uv9Tbo7knpA5KbfNS1Hc1QIlJO3xp5bUjNmr6/QeFB5fY/mmo1F+J8iDhKJyJEhC5xdaNQleX+zUxaITQtsrbFHNhAuptmsCZpNOiCMTBIBOT1khkNAL3xYqCmq2zKOazICkdfz/b/6Sl4arTAmiYMJ6e27oLtRyEhLy2/VtDjqwrDyNS9gnJMhb7cNKwEEosTRNiWcQMoNhEN+IpyGXEVOdVn/c4PJLu3QAlwcQD8aA69eMCaIgwR1iIDkD4iAM0PYAkke1i2TnJQjqhuQtGpTj7wmOZ6NZ/AsiJBs4/9/Kk3F0zPvF2j/SHPeldeqSa/0fzTCJUccp8/26znxX+49pltKX19yRIsVsL2MXFImhCwim4OmYsFj8i5Gg7vAWUjv4pX+3jk5W3NoKZ1Bjht6DBmV8dxUHSuMOuKA5aLgsX+PPDjKcnEQFwoinOA2UQpBqpuVuxMKvSZltDZnDE7ml45DxsB19B6uowfNWF2uex0oZUJKHBu/2NWWDLioxAEhWCLILe/S3S8rdhzVDFQIAeSpOJCVhgJolcNwJI/VxlgZN/mVbFu67c1s3QWEHoP4JIW5WoiGzfGJ0HuTShyURIETYCWQG8nOHCyFB4WtsikWnQBlLpm6waXSwAXKM42aoZSt+Tq9Sf0w6CyXJHGc7O3XM9Umryg1d8igbn4jS3cWwQVYFTav3LLU/9XG5IODcBHJKzoUufzsDcwq7tD6BckQLQkjDjpPQSashr+9yjY2ts87gx0tCuLFakw+C0LT7jGnhSCorHPPtINakHvBxkrz0VfV5lVRttk9d9nTTunlT3fUmaPNyTt0KCHEgbeRMkbsR2Ajlt2T+L/aVCQIAbAfi33f+EDum56rWfdUDaEqa0ZRe8j56W2nzprVO+tVKWW7M6dnk7Uf6wnasUBCiIPT5N7dVKWyEcKAVYIkXrU8g6wYkGVZ51hrSgzCGazYxPq49+2DWuQQy6O47pRpbOkbcpsmR6lS/hITfUwRB/vRqIyCkgn7VC+kEAMxia/FLN20p1HETZEOnDIzOIcsq7W/He2Eg2ikz24zFCLABX/P2zm6iZrqt4WigOMVZSN0NMcvjlniIIL5xIJ8Z7IFcbwiWyk26WadIIwaiWx2prwP2+pxOVOhyrJhquOw+i42sfB8Ow7tk7znsFP6S91IzvvkCEqO1o6Hf/x4xxmtIUnc5jeP7REiydY9kMfbk7cHMiHEQVUOYhi4ju3qAqlsBh1ug2dnj5i7tad08xdl0rDpH5ubL/fJ0DoPEAxiKdHEYokB0xr3N9yMupUcOv/+F1XqmCusPqkVg+J1ICuElXGkQ+tOEAeiSgDcF2K8deIBM0nMVyoLlB3t0dhRoiEhxEHtKkpYs+LdnMMPcYQDkU0Kd+nJ/qWdZtUPR5VlU3uC+/IMJg4iZEJt85pwr2Z/z/+5D2KNHcxYD1gO+GOos8d5BpSIwGkXXj0pFoBrVjb06L0Xbq3VZ90rSirPpS8sAMZnx2JfcQMguu4WcTN5RYnuooQb+ynsGi0khDhKROGavqpMCw3YytYqVoTy3WJlJECVSOoBkYiDLJ4gOsz9Mw6a297Cj+KUy+OZlngcAnCsBq6BfCaB8n3s3X/q3QIze22FFnbjZI+RHDHiBkx64iRUv6SvcEPMe0Qnk+0Qtn0N1bUs0RIuuEP6yP7iSctKzEoRN7llXepOh1DjTxYOJIQ48IKimePuhTCYEBoFJhdvqzHph9tEY+/WMqXxzHegikWFrEacbku/qVUvolNQLkv7AZLxJYz7qFBLjBEZ5UjreBEsQL5ITdNp4Z7tWm2L6uGUQ6SOCwW7nVBAKBHArSBkmsMtHAKGO05ZWWq2Zx5X3SzZuSFxJQ48d0RLOVIKZDBAiwAaSLG1V8iqelRWwkQRNYu312rtFaKt8cyqoiZdh1gKhPOJdGJFMXHxjHgy5uySTi0LO39TpeokFPtivEw2MRHlXjLhFg9wCTgX3+EHohI7eIAQUOQhYkL8j4qutUcIvX+YIqOJgrgRB/59lEgIA0cPK8AiI7wpuxQE8RvLWTBnUb5Y2a+JTkEhYuQxhUqpTZEImRoNaALRGdETGnvMz7mtZsm2WnVi4bkkG4xxMQ47HohBRUWgWbGGqLUijPA8XBY9htI1uRVdqoBTYPm3T+zRklZUlh1J1emRQNyII1vk6SsyqZyOYVkjnkAQAysNRlZdK8irWcKBy/B7UvFQ1CaKrF2zs17ldl1zn+oEcdALIwLEDivPLe/U0wIp/6dOPRmbZf9WR7A+D67h5CMWct3LGapXoJi/uqhYC78h7iJVooH4qMA5JoljR9YJLXeO2cXKYaLJvYBgFm2tUfOPFUMFfzgLJiKmrv1tpAby+Q0TQqFI7o8uM+7Dw+p6XrerQc/GIwUvVpOSiSGlkIL5Ow6c0CJ2cAVEH+zfCZkPHMDh7hf9YSyIUVzi40WsQAiISbK8iET7IWI445gkDpBL/WmsBA4Is2wVhYoCu7ZMImXUKGG0VxRSvH9TVpbpUXfOavOfz8n9HZntZHwho4lBcG7gW5+WaqlWauh3RVilZ4WFUwebZGCyrzht7v6Zudpfnk1fbH6p7YsSQ4A7UEZSlVvRFaZ/Xq7lZclCZ9sCIiJWQCciqQni+I0QB7X7d4loPReHEytjgbgRx4bdjaozsMrcxLFIZLNXiXwAM4wy1Zh5WA1wmHEfOZngIAhCYDIQL5aNhxMKjYnjO55LU8IiM/yNTM0VYTVCMBQohZPB7plc/uv+H+/tZ57JKy5x+sJ/nhciQhfKEsLD0sKclqHHDGSoQ0zca9/hdg3J42jT6rT0ScZMRBuOSxJUTlmH1jLmPwQ34+FvGQriQhxYBVgpN0/MUpFhET0ccUQCNhNRmJXapPMEYeMXFpmHZRWpt1BYOM+AY/CcoTgMjX6gv/B7Nzew3/MeQoBbWI8u8QysDuoabtl3XM+biubsJi9gHsEDegz62dqdDer3eXBWnirjJDjRR3ffbEOcYdVc/nSajh/dh/9uDVTX9HN4RiwQN52D+si4zN2rjtW2VMQKWv5IAHmML+JgWZfqBIu21eiZVtwf0YJ7WydWnhmO2PCmxCAEAjGQgshnqpLP31ilJ5mQelfZ2BtVredIgFKLAo0IJeuNs7PgDDwTPYU+wBHDCYLPtvEZKwedhmRkHGgrvj2qliEeY6wnP8dJxAJxIw6QMP4T5wgIVirEgbXCcRI/HmzWKoLx4oLcBoIjFlEoSiRhcE5+RG+whAliIRZtAVHBNbgCCKbw788iz1l5+D1GmlmFaMXFz9EU7IZjCwKEgEji2XAtd98sEdA320csHLjIPydlqzJMog8i5grhlOg35I2eaI/uZJiRQNyIo+dMv9lf1K5bCC37tghgdcA2Oell0vISs1lEEPW+4QZMTDxrbKKE4oFdIauV883gMHhrt+5v0jyTkRzOBEBEiId6MadJ0GHC0GkenJWrq5txQwBMNmN3EwLfoUg7hOIotcRInnmvQPuI676krls5AaX8sXqw+AjZU6kaj2u83Pp+IG7EAaAgFdd2q2LFioFtghgaiANBIObyZ9I0bRCxwCERIJfwNE4vEmajKQKfaICY0BM49JMTOxgbCqKNlqKAe5nklhj0N7LyIRYcfNbUxWfDeEn68QIi02yv5GhoSxxEZCNZYImAuBKHBUxV5KMepeBClm1B5MFuZSXhIENvAJmwfdLv2a/BqqSsOl7SZAGrFlG1XgiBCsMTRCxyhgVWC8ROX+lzuH7DeKxlBVfQVED5H0fSkW2PD4VDhvyaumOSODCxOEGJQbGqQCJyEy7Bzi6086DLOWCygVTLivm9/QzSCVHTcHyNFxFBDAPEwV5Z1bG61XGYESRrFML7SZS79zZXaaYaB6fxPEu82i9plrDpY/C6vL9BTE10AyaPVALK1+eIooh5ipkea/8QLxzFNaaIg8DZFpGNljisNg5HwFa3mjUxBawDzjHiNBgULkQPWjyNFahy27U6mSSsE1g1NcPxkuLE4hAX4hIol5FWJmcT1BzvVWtk9Y/1+lz3pmpWuyUCywl4Ptet+5++cHrFk8LZiPhyRBn7Xdu64rs5GsIlqjtZLBzyOzgsm6OE8LomU+QmRKxgbuLjQFS4iYNji0iYCQfMxhqR6xxVQjBq3oYKDeDhAIJQsO3xATB5QULRiXO8pJc9laaeWZ6J2/vdLyo1UwuZTmY3/gosFL5nkjmLmlfbt+A95f7oRHzH8yBWstDmCwGyU56TytCpovXbDAdwMCLHWHWkAk4XkfrQ7DwRTU6fGCc6HKkG5K6w5YMk5a6ekflehoOEEAeTwkSgc4QTh5/DtzALcTohoznAnOyvqWJ5EApn8iyhKGexK10arJ7vaFzTzVPyGz6rBSXf83vb+A49B7+H9nFajnltabFyFo7g57wtXP7xjgi3dJxVxxqJ1rjf8bNwcBnWix2D7RPjsmOzOg9hCvQyOBfBPK8FFw9ICHFwbjC5CEwIxMEkoKAymKYRKJfMEYVXuP/CrQTHClUWI2JY5awwlEWrDygByHv6wHVeUSwxD0k84hRr/CMHjnSY9pPn1NMYT0JABLRKf0uOnnL8H+sqzENz8hyipY8vOwQa7KslVumrI1YzzE0yNhYFFhJpgV+mNemh+Jj/LKJLLhOsofW0WfFdncpJ2L5DIM6ucbZFrv2pXimebLCRHqZy6vR5PUd1s+gv6B9MOCYjBOKsskzdlI27GfHC2Uiw5ER4FVuFwPDf7MprUfFAVjrOrKtkkWhitLxCFFaMQRDgRkMCxKTk/V1TD2ogkNO3PhcOtl8IN5mOLzckhDg49Lqh5bSe84ilosoeK0QQA2tkex8Th+ghtZ/EYwJayFyipSMBVTxFHJD5hZOKySIcH+8gFauWNAHMVHW4rSrVqDDJv1YXQjww4eHEwHUIgmvkhaIcY7aTtc+ueY5fGQ2QEOKwgOXAIZ/PflCgRAKBgBxl+9J4hXCUhcp7VjmZUjYCunxHnWHjMGahstFE8c9hAFHTKgRGbAeFefrqMj2PCzc3egKTbhOpVVwEFoK76a43EYHszSGLLE2UyvqWPj1J9mKfwhQJEkocbqgUjoAPAORgQhJZZOXASRxT0qUwynVLSNbL+tCsPFmdZWp9kB2OWYpIGmlMJBywnE6IwojowQ3/qVgHyHt8MqrYhvWTV4fIHW7B92TDEeehvAQBNywdEp9/GZ00EBGSRhxuON//qykV5MNVlmyvVX2A0k03i/KFbwQTGGRDFHActyXCdyTfcug1/pF3hCWz7RD/RUVjjzrhogH2q+KyJ6rMfd4WAkRZ5bmkBsD+4W70gf7Q0J8gAnWdS59w0D0xv0AsqlLVNdJFPBB76Tt7iVFDGFwU4ggHJhRrgVA5NvwKEScoZbBj60izqzU4QfKZCUJ3QdFDJKHwkj3FIZqLxZphcxXJMW5Qa+dIu5YzmLi8WA/jZB8q4kHNZOFUKh6Ecyl3CDSuWYLFOtIjGkXXQNRgPbDzbaRBvdEGo4I4vABxgSlYJArlqh/q1SNJ5JPILlyDyYM4kPUq1wNyHgWQiWRCMW9xHv1ndp7uX3lARBM6DYTA6ofgaPr/wH/hEvwfIiDfFf2HA9LfWVdudhxoVo6A6Im3OBuNMGqJwwuwEEgpxJO67Js6M0XkOeFuJpAJRQRY0zmEywQIx15TnUY+wwn+JJwCdzx5FOgJJOQQ6idKTI4KDqaxTwbecEkRhxfgr0B5RGcg4wpRgZ+DicelDrFYkcQrBIQowuTEjEbHoEgKogaPbKJS7i5FuOSJIxwQRbi82Yluy1fjBEMcPT7vkLrwsXYwj0k0ikc64FiFMUccKYgfpIgjBREhRRwpiAgp4khBREgRRwoiQoo4UhABjPkvGOvVmpS+oOIAAAAASUVORK5CYII=;" vertex="1" parent="1">
          <mxGeometry x="561.25" y="93.88999999999999" width="75" height="66.11" as="geometry" />
        </mxCell>
        <mxCell id="5wgM6XX0G4aH47P3BtwX-45" value="" style="rounded=0;whiteSpace=wrap;html=1;" vertex="1" parent="1">
          <mxGeometry x="217" y="576.11" width="222.5" height="100" as="geometry" />
        </mxCell>
        <mxCell id="5wgM6XX0G4aH47P3BtwX-46" value="知识库" style="text;html=1;strokeColor=none;fillColor=none;align=center;verticalAlign=middle;whiteSpace=wrap;rounded=0;strokeWidth=1;fontSize=17;" vertex="1" parent="1">
          <mxGeometry x="217" y="576.11" width="60" height="30" as="geometry" />
        </mxCell>
        <mxCell id="5wgM6XX0G4aH47P3BtwX-47" value="宪法" style="rounded=0;whiteSpace=wrap;html=1;" vertex="1" parent="1">
          <mxGeometry x="229.5" y="608.0699999999999" width="60" height="21.94" as="geometry" />
        </mxCell>
        <mxCell id="5wgM6XX0G4aH47P3BtwX-48" value="法律" style="rounded=0;whiteSpace=wrap;html=1;" vertex="1" parent="1">
          <mxGeometry x="229.5" y="640.01" width="60" height="21.94" as="geometry" />
        </mxCell>
        <mxCell id="5wgM6XX0G4aH47P3BtwX-49" value="司法解释" style="rounded=0;whiteSpace=wrap;html=1;" vertex="1" parent="1">
          <mxGeometry x="297" y="608.0699999999999" width="60" height="21.94" as="geometry" />
        </mxCell>
        <mxCell id="5wgM6XX0G4aH47P3BtwX-50" value="监察法规" style="rounded=0;whiteSpace=wrap;html=1;" vertex="1" parent="1">
          <mxGeometry x="297" y="636.12" width="60" height="21.94" as="geometry" />
        </mxCell>
        <mxCell id="5wgM6XX0G4aH47P3BtwX-51" value="行政法规" style="rounded=0;whiteSpace=wrap;html=1;" vertex="1" parent="1">
          <mxGeometry x="369.5" y="606.11" width="60" height="21.94" as="geometry" />
        </mxCell>
        <mxCell id="5wgM6XX0G4aH47P3BtwX-52" value="地方法规" style="rounded=0;whiteSpace=wrap;html=1;" vertex="1" parent="1">
          <mxGeometry x="369.5" y="634.1700000000001" width="60" height="21.94" as="geometry" />
        </mxCell>
        <mxCell id="5wgM6XX0G4aH47P3BtwX-53" value="" style="shape=image;verticalLabelPosition=bottom;labelBackgroundColor=default;verticalAlign=top;aspect=fixed;imageAspect=0;image=data:image/png,iVBORw0KGgoAAAANSUhEUgAAAIcAAAB3CAYAAAFecmOFAAAAAXNSR0IArs4c6QAAAARnQU1BAACxjwv8YQUAAAAJcEhZcwAAFxEAABcRAcom8z8AACfGSURBVHhe7Z2Hf1RV9sB/f9KWn67u6urquru2tay6trV3sYANlCJFql26CNIRRUCxoEAIJCQhISEhvZKEQHogCaEEvXu+582dvJm8Sd5MZoaQnfP53M/MvJl5795zzz39nvt/Jg6QvJu8t7nKXPjl18CnwRDxJqVHu8114/ebv07ICLbrx2eY+RsqA78YgEE3+dO49JA/ejVu5oaQm1z70n5zxbN7Pf9Ie/PTEv3dXVNz9NVCyE3+8vL+wDtjXl9arH+8+oV0U3fidOCqMeMXFmlPcsu7AlfCbsKX/PHdL6oCVwbgyufSzVUyVOCH7GZ9tRByk0XbavX1eukRN7tGhnedvH98foFeB9b93KB4c0PITfjDtozjgU/GVDX2Bt4Zc+/0g+Z6ufGq7+vN7W9lBa46MAixjS19erN/TsoyfWcv6DWGyXsLQ87OVeP2mW8PnAh8cpBr4cy5X+TmGeaGVzJM/4VQwgu5CdDZfU5vZmfqe0EiT37ug8P62QsG3cQNd07JNnmuqYwEQ97EL1xCN2Fq1+9qCHzyhog3Aal24dl2rcxYV8/5wC8GIOQm8zdUKVWG/9ndmO5Jy53VbCHkJs+8f9jzj7Qrn01XggPqTgwsByDkJk1tZ/S1vuW0+ePzDnN6bG6+XgMa5PrVLwwQooXgTe4WRsOfYErhMGN1uX7H4pu1tjxwdQCCN7F/zqvo1HHTbnz9gC7G+uY+/Q74+6uZZvbaisAnB4I3Wbq9ztz8xoHAp1Aoq+82f35xn67o8/2/mq7u0BkK3uRXWZgne8/r0/nx7kOt5tG5h7RH8zcOcHh+c7zdwZ2FEMTS1V+4m8DegjbTd26Ah0xeUapD+2BzdeDKAITcBHh49iGVN7sPtehnenKNDKX7dL9+9oJBN7Gwr6htkGiIBBFvEg3E5SbxgLHRkS3pTebuaQeVAIJrXYTt0+8VyOIZnr27wVdHoPEJC4+oMILy7EP9Njp6+1vZIp8HpGI4ROzITbKavW4aTbPsJL/ypPmX8OtwbuiGiB2B+8EpfxGFcYfI9+vkhuE6oLvpd/KbrfsGtBIL8AQER+3xKDtyouOsjuQmYU2FNacCVweAG3974Lj56KuaQQoGkFXcofyRwcDa/vFapvkmM/K0AJ4d+YNw68Xba83UVaVB9NpR//PNLNPg4tjHBGuPBDgYD2VKf8p1OJmFd4Sj78prDXzyBs+O8FAv9ROYIPorYoXOQYRTV5YFvhkA5PSUz0q0Y9wLQcfrzpzQDrrBsyMYEjzoz3IDaANleuLyYpmyUAlh4cu0JhVHzkPTzX/eyTOF1aFTeptgMlxMuSEisTKaky4NBFp4X6wdsHED0yTzf82L+2U15Jh9he2BX4XCd6JvQh9MG1hBJWAFeUHEjrSfOhfUKWBSryw6YlpPng18OxiOivnx+Px8xSLYRFM+WNYZ+HZ4iNiRcLggGFkqBIyWROfo5J9sRwVLa3bWB34ZG/juSKIh1ZFwSHUkHMZWR5pEX3nho0JPE8wvxNyRZpHQUz8rVWZnhSJmHiJh2Td1gV/5h6g6wog/+LJa2b99eKTmSOpsU3WsJ/DvocFXRzbtPmbumJwdFGzRtsuf2avuq/4Ljt3qBRE7UiDC6XZ5OMqN182jaX9BORLzrbh2sJJlwbMjTAGS1eum0TSm8I2lxaLlOTrrUODZkWmi7KB/YoQi7r0eEqnxe0T/2p0DXhG8AzF15AkR5+gPQIeoA2rMDtMhvr9veu4g8xooEr03po7AE2xH3LDupwZdDTTbgavF1ln+rfdy3bCrMTjFV4rKMO7DQrUKvMCzI/fPzNM/z15XEeJXtIDnD2uurnnAF2vhVO958/yHh5XIwRJOCvSVgJshIgzqSPWx3pCVgoJ8/4xcs7+oI/ALb8AZfN/MXMUAqwQd9Uhglfz2iT36OhQM6siWfU3KrBpb+9QvgepHh7hGBxdvqw36sVCyN+1ulJE739PpSctKQrz4vPvN4zF0hHmFBiz0nrlgZq0pVy+2xRLvHxRN3eq0qIzrhX7CAb0XeuM3Dla9lWxgUEfSC9t05F6A4YTWDn8AU3dPPWhKjnYHvh2ArJKOoBINnfD7WyaGOr/DYVBHICpGgDB78eMic/b8YLbc3HnWdHpI2lli0fFw7QCyZlKWOSoEXdnYox75oWBQRwBcCDe+nhnU0qEBfOJeUCEP+c87h4KCkNjBApfrDoBoY+4IhHpeTIglYkLQGR7ClD0y55DpF2JMP9wWNLRBP6jHAekFi7fVmHvejqEjdwod3D0t1JOHsfRvGRUjt8sbjH38VY1nrKur55yZvKIkiFUYpJvth4NnR3bmOqGJe4Vlh2tdLN1n3z9sSuq8JWmV8CFUBjpLp28XfjKUX8SCZ0eABZsq1VVlqX7L3qbAN96AwsTvGT3Le/7GKnNalr5fiNgRC5vTjjmGNLQgKwG+0BawgeETzwl2uA4G/vZqhipRscCwHbGAUgMR24cydZZemMKyBm9C9Qu+O+IGlB2m4d1N3s6cWCCmjiQCUh0Jh1HTkdECKYSEQQohYZBCSBhcVIT8KspxTVOv2br/uHlyQb4KT9wevF4lShSK1HtfVGnGBVI+GZA0hKAf7S1oN9NXl5u7ph1UNz0DZvDoUUM1tA2MR5CFUUDgAySe8zAuRgoJQQgOCGzFp2TWMUDxFeDe8xrsSBqIAql/eGavUhj+iPAIUbQQM0JwcHT39ptdeS2a0sTMMevMJHqk1wCS0Xg2GWO8v0N0WixCYjt+ISqEYA//kNMiWnqmBo7Q6MM7dDEahj7L6T4x/Ogb1qmX68wPRIUQTBVIlE5YWzu8c4lsLDuWIM+9f2auWbKt1jS09AW9YdanNFzUfyiICiHjAq45OoWnI6+803y8pcbcKsvlj8/Fn2Igf/jPLRMPmM++O2pySjuGTGltaD2dXIQ8OCvP6aRQCbPhBXhipnxWqt4Y+AkDGo6SiKmoFJH74gPBC/hjTvOQkQMLpE0VVJ80E+U/109wqPZvr2SqI/ervU3q0hrOn+qGqBCy6OtaXat/ls77jb3gJAZJH2+pVkpS9waMT+4Btb2xrNhkHukwrV2RI+tuwGE4U0T3fTNytS9MjkU4CLll0gGzZHudKa/v9vT5DQe+EIJEIUHiWumAe2Z1VuUaHvBvM0/oeo4XMKv1zafNpj3HzEOz89Tfw5Jk8CASLxhS5LUlR8zew21myspS87sn0gYlMEcLvhBCnqFVoG6W9YyDk1kOXwowWvgLeTToBd9lNasv0i/8KBKMEAI8g+VjGTfP4pks2W2ikNm8UAvwlZlrytXLnxSEbNjdqBkrdMxmiQNQBArYy58UBWctHEl85jrLbMqKUrMzt0X/l13Sad7bVGluksFzb4twEMpnpMiHX1b7SpQmQEBCC8lQs9eVq3s7VvCFkB0y00qyghCyryIB6T4twsRAEsGCG4S5MVC39LEk78y6w0fwWD+1oMBkl3Z6BqbcgJJVJnwE6caS4X5KSYH704gPcQ2pGJ7xNRz4Qki1GGAk0vEgvOFkgh0oHjqA5Yay+h6zaGutkjxS5xnhOZv3NGn8YDhAwdq6r8k8/8FhZaDuMBF6CVE5onNz1lUoM2W5Ql19UfiW3eALIRZw7w50xpld3jNLH3xZpdHcM6505GjhlJgChJjYjHDDBCdJLMhIA7MONbGFBL52PkwsI82IHCLyh8pwGwp8IwRS5mF0DOUHhjlvQ6Vmwtm4Bx1nFi9/eq95eE6eWSxUcVh0hEhApu1cuQf3QxwjtSzpXy28BAS8uviI2iMNEfQeN5Q39MikOQg5mWiEAFAInWQAXnrDFyIinxRegL4BknRtC5IsogjjE2jSgQeug2CWAaTOmof/nA2EbocDqJG4DwnxxINgyCCT55LuSvoiyTXRQFQImbaqTB9KwsSe/KFTUQFmdev+JvPQO3kaX7TLDOSAODYBRSMRyO395Osa89hcJ1U2qJsIEkAy194USUYouf1kbA6lqBCCgjZ+0UAKLQ0b5vY3s1UTJRl0OCnhF1qEAn/Oa1UV/JqXQnUSYu3wEuJkG4UqO2NcHl4QFUIsoAjViy4BSf79tYBohQFKY/YhW2ySaatKVUT6gfwqsUdEG2Y5ov1CiRYB3J9l+PkP9aZKJFM0/o1oISaEeAFI2nmwReN6rF9yCKwUYnYvezpNB0sSLinIn31Xp/yE3/E9v4OfXPncXuVVMGw012RD3BASDtgiWKK7RDw+Imseb5pSEmseZhqgKhw6hIzTC9pNd2/8SD9WSBhCIgFK2pdiluNtH42QdISMdkghJAxSCAmDFEJckEKGC1LIcEEKGS5IIcMFKWS4IIUMF6SQ4YJRgQws4VNi6KUVtJmXPinSvc4FYu5Hk2QcD7ioyCAtPKe0U1OicA9q4EksXOsKoMDG9swTmg6eDEg6Ms73/6IeM9LNCRlg5uPZ4hVfh204pUEKXrd/Tc0xb39eplv08ZAlCpKGDFIi1vzUoGHLWycJFbg8XW4keDX8IXjaidQT1Jr8WWlCXAIJQwZROfam/pDTrA6d6wMuQ5ofBHg1nMPqJhTk4C2DsnA8E5yym6ZGAnFHBqmQeLzmbaxQt6CNnXgNbqSNZcSOUp4zdWWpxmLcVRGihbgggzRHgsvvrC03j8/L15kjvhLOBxLVeA5IJ7xApQW21x3xKCUyHMSMjHPCCPGKk65074xc84/XHQ86sxXrMohH4/n0g606E5cVm6Y2/3knUSMDfWDj7kaNd1z7kiyBizx426wDmlcSc9f82KCSKxqIChnkWpFPepmsUxvyu9gNBJDTQcwYEYwoXrEj+r37QFTIYC3aANLFbEgVkABjJkazZmeDJs8s3FpjfvfEnog7o4cD38ho7jijMRHWJOKRV6+OJrLxTJYlORwEsX7KDU1jWPn9UfPbx5OADHIlbp2YpTMCOT4275BqjommFPgRz+BZD885pJH5QxEKjMHMk4KMnLJOJU9m583lJVpeiYpoExYdkXWarnaF12BG0rgnytVLHxeZ77JOaEGroSBplJFZ3KEkapFh4fTZC6ZSDCkKDNz42gFFGBw9FgljtUtSmsgjI28UKvBjvZIgR0oDPCOW4ieAb2SkH25XRYqBupHhhu7T5836XY2an3GjWKE2scVr4O4GAlgK8AK2eDOY2uPD53Zg+qOKb9x1TLd4Q0XwM+r3LdhYJQZhV1RpWL6RwTZwOs7g3oqADDfsK2wz726qNA/MzNXENa9lBGIRhWz9oEjLnvw2X/kfIIHsZCL4IMG9cwIJwz2dTIA6LRDiF3wjg6JiTqrSPuXkfoEEWKrpUfyQxBerHJHfRYfJx4AK/KQ4McukVJHEAhWhfrspjyVKMh2ZR2QCRQu+kEHKwVoxv4MPljWNDcA2DlIRmKnhACuW+tczVpdpghs5Hn5IGC2ysfW0JtYxGX8l3YHlIAjlFQTgGMIqJrdsJFk+vpBBcjtrmoR3OwusTYwjEuDxVB2uOqllXuMFpE2SOUhxHuweqAAGS+O5IAH+svL7eqG8Zk17Ahk9Mjmxgi9kLBQurdsuAohwN2boCiF/EuNe/LhQyThSVUM/0NPXb1aLRun4QJyB2/1zTAjUSVo1/lKb8Xe4+pRSx8Oz8xKPDDRP1votb2QNJLdKc4tP984jMpDJBa2NYkMNjiAqVTwwK1cRjCfMPodn84y56ytF1A52FENBSUMGzIoOUVmLWaeaxaOigVLRhNmynXUjxiILhpZR1OG5/xULOKek08xZV6kpTspcFQEOYnmPBYpUYMtGJMCTDjIemZM3oi2kwyKDdMggMt7KDvIFrpMwT3Xre2eQwIYlG4oUGmSNp/uBmXlmlWiIbCPFf8lyelYQhS7CEnSQ6PAhPORs7iGR1o/C9aMwY/wXJNCScO9nN5QX+ELGP0SztMgIr/oCkPz6VfoxTZBFxodTikUK9gX3YDcSDNHqHlCQVbqmryrXfHM/+kbGkXat000Kpn0Gry8Kv6HWFy6HaMDXMkEf4EFuyvACZjG/qsu8uqRYBpapgwQxbsZreQBLwSINjZF9KSyl8/1Di2lEORt0nv+gMDhJbuTzTCgURY5KwdGEFnwh4+l3C3RbF0mrMDo/cKytz3yypUbFH/qAIxUECdJxlgZUoLqKLBckyHDA3rqv9zXphGgqtdxLBy+NwavoF0TAeHH3dZyKXsz7QgYbZCBxHvzywiKz4efGYPmf4QB9gd0K7EdD/OLJRo1Gne4dBgkoahhq7Imh0CNLEGS6kYBW+9i8fHXzvSzW7e+fTNPwQSzgCxmQ2j2yLiFH1jmNLQ+QdlGtPy80ViXHlMBf4ENDAZYwPIjNhCDBLbGYfZYsETfiJnllXTIxjqQiSocJj2shFvCFDAB/Ahv8bYfoHK80xB9KEDX/otmP6gZ4RVN7n1n2bZ0igPtCBfoqzTJHSvp9sqXaKXEe9rAFm6qSgwwiYyCDVGgS68kFt05h1i/fgRT8pChB1ODwAyBwv0gF/CH4MOza1/sKMhDZiM3XhCmvk+U5lMc7acj4Is3Z/UgnKUPI5j/Wqk2kt4FikIIChZ7wvfymOwJfOCGMePPeJlXK+L0GnQJMkfvBcGHYnNSBPuNn469dJjDaWMA3MtgIzECZtWWiEQJokPsL21XaMABm0mqfcHVVhIT7z11foUsAYsGxPHdDhblzMrsiHSaoUoYWQOrj8w+Z77JPmDafYpGAFjuq7xPlj3AjFnYsyzUKnuEsE5CBOR0O7Iqc/nmZ+TceJxmU3U+va14+Y2LD8HTHgVCQ/c4yRwpWUsOYQ5Qu+BwJegkbeLgv9+B+UBb3pPzf7vzWqLaS+0bG7kNtummPBy4fwsdI/OIrWbP4LPCZsmXLdtIyQT6rS1CogqAUx05FKlrgBaj08CZK3jq8a2B5cV8ocraYCdQQiSYQ7RsZNlSA3cBAe88MrSOgjbLLEduFwdNhXpm1G9/IVB8IPspotnnhwUK7tYqXm4Fz33tE3KOGl8dYZdA3Mrp6zwnpFeigIHWY3qw1Feq9GooU8YIhBlGNkTYUnGWH5HC6BoDoRDtFOmCeo7RZ3sQrjbrS7LJmuaDgjQR8IwNAl1Cm99K+oPSAN+DU4bQHP/tU/QCJJ2zaQfNlV/ZVKmmc5QU1wJxR+qA6inbHC6JCBkChXTzev38qTWcGMqVzfOb6+19Ua8ApFoASQOrrS0tUrFoHMs+AInnOI0Ih2zOOj540Jrg4J1WRjadkK2uWWYNS6DADwUCjXtdw9gcA/8GXyZ5W8rZY/44EcvgBzyBytze/Pa7bOsMhJmS44WB5p3q82aLNIECIDkIGwCA48+bjr6vVLnF7wznyC0b34VfV+ht+b5HKUuA+uA8x6vBkJQNGjAwLiEYcx3io4fQ0K0bhK1eIjkIk7ntR62lvreCcnX0qCvkNVqhKCLmG3kDcNBpxGw+IGzIsEBwmJoLJjvpui5PRGKxdSlYp4zoUBU/gICLEZyKXwlAQd2RYQNwSB50jqjhlZ6xnS6kg8B5E3CpL5NMdR5UhRpt2FG9IGDLc0CYMlzQBmKp1AVJpHS97VxwDTyOFpCDDAoYdnmyWUSyGVKIhqcgY7ZBChgtSyHBBChkuSCHDBSlkuCCFjBREhBRxpCAipIgjBREhRRwpiAgp4khBREgRRwoiQoo4UhARUsQxBJAWUN7Qo2nM1CgnV4PkWB9ZBWMCUsQRAOLDpfXd5uv9Tbo7knpA5KbfNS1Hc1QIlJO3xp5bUjNmr6/QeFB5fY/mmo1F+J8iDhKJyJEhC5xdaNQleX+zUxaITQtsrbFHNhAuptmsCZpNOiCMTBIBOT1khkNAL3xYqCmq2zKOazICkdfz/b/6Sl4arTAmiYMJ6e27oLtRyEhLy2/VtDjqwrDyNS9gnJMhb7cNKwEEosTRNiWcQMoNhEN+IpyGXEVOdVn/c4PJLu3QAlwcQD8aA69eMCaIgwR1iIDkD4iAM0PYAkke1i2TnJQjqhuQtGpTj7wmOZ6NZ/AsiJBs4/9/Kk3F0zPvF2j/SHPeldeqSa/0fzTCJUccp8/26znxX+49pltKX19yRIsVsL2MXFImhCwim4OmYsFj8i5Gg7vAWUjv4pX+3jk5W3NoKZ1Bjht6DBmV8dxUHSuMOuKA5aLgsX+PPDjKcnEQFwoinOA2UQpBqpuVuxMKvSZltDZnDE7ml45DxsB19B6uowfNWF2uex0oZUJKHBu/2NWWDLioxAEhWCLILe/S3S8rdhzVDFQIAeSpOJCVhgJolcNwJI/VxlgZN/mVbFu67c1s3QWEHoP4JIW5WoiGzfGJ0HuTShyURIETYCWQG8nOHCyFB4WtsikWnQBlLpm6waXSwAXKM42aoZSt+Tq9Sf0w6CyXJHGc7O3XM9Umryg1d8igbn4jS3cWwQVYFTav3LLU/9XG5IODcBHJKzoUufzsDcwq7tD6BckQLQkjDjpPQSashr+9yjY2ts87gx0tCuLFakw+C0LT7jGnhSCorHPPtINakHvBxkrz0VfV5lVRttk9d9nTTunlT3fUmaPNyTt0KCHEgbeRMkbsR2Ajlt2T+L/aVCQIAbAfi33f+EDum56rWfdUDaEqa0ZRe8j56W2nzprVO+tVKWW7M6dnk7Uf6wnasUBCiIPT5N7dVKWyEcKAVYIkXrU8g6wYkGVZ51hrSgzCGazYxPq49+2DWuQQy6O47pRpbOkbcpsmR6lS/hITfUwRB/vRqIyCkgn7VC+kEAMxia/FLN20p1HETZEOnDIzOIcsq7W/He2Eg2ikz24zFCLABX/P2zm6iZrqt4WigOMVZSN0NMcvjlniIIL5xIJ8Z7IFcbwiWyk26WadIIwaiWx2prwP2+pxOVOhyrJhquOw+i42sfB8Ow7tk7znsFP6S91IzvvkCEqO1o6Hf/x4xxmtIUnc5jeP7REiydY9kMfbk7cHMiHEQVUOYhi4ju3qAqlsBh1ug2dnj5i7tad08xdl0rDpH5ubL/fJ0DoPEAxiKdHEYokB0xr3N9yMupUcOv/+F1XqmCusPqkVg+J1ICuElXGkQ+tOEAeiSgDcF2K8deIBM0nMVyoLlB3t0dhRoiEhxEHtKkpYs+LdnMMPcYQDkU0Kd+nJ/qWdZtUPR5VlU3uC+/IMJg4iZEJt85pwr2Z/z/+5D2KNHcxYD1gO+GOos8d5BpSIwGkXXj0pFoBrVjb06L0Xbq3VZ90rSirPpS8sAMZnx2JfcQMguu4WcTN5RYnuooQb+ynsGi0khDhKROGavqpMCw3YytYqVoTy3WJlJECVSOoBkYiDLJ4gOsz9Mw6a297Cj+KUy+OZlngcAnCsBq6BfCaB8n3s3X/q3QIze22FFnbjZI+RHDHiBkx64iRUv6SvcEPMe0Qnk+0Qtn0N1bUs0RIuuEP6yP7iSctKzEoRN7llXepOh1DjTxYOJIQ48IKimePuhTCYEBoFJhdvqzHph9tEY+/WMqXxzHegikWFrEacbku/qVUvolNQLkv7AZLxJYz7qFBLjBEZ5UjreBEsQL5ITdNp4Z7tWm2L6uGUQ6SOCwW7nVBAKBHArSBkmsMtHAKGO05ZWWq2Zx5X3SzZuSFxJQ48d0RLOVIKZDBAiwAaSLG1V8iqelRWwkQRNYu312rtFaKt8cyqoiZdh1gKhPOJdGJFMXHxjHgy5uySTi0LO39TpeokFPtivEw2MRHlXjLhFg9wCTgX3+EHohI7eIAQUOQhYkL8j4qutUcIvX+YIqOJgrgRB/59lEgIA0cPK8AiI7wpuxQE8RvLWTBnUb5Y2a+JTkEhYuQxhUqpTZEImRoNaALRGdETGnvMz7mtZsm2WnVi4bkkG4xxMQ47HohBRUWgWbGGqLUijPA8XBY9htI1uRVdqoBTYPm3T+zRklZUlh1J1emRQNyII1vk6SsyqZyOYVkjnkAQAysNRlZdK8irWcKBy/B7UvFQ1CaKrF2zs17ldl1zn+oEcdALIwLEDivPLe/U0wIp/6dOPRmbZf9WR7A+D67h5CMWct3LGapXoJi/uqhYC78h7iJVooH4qMA5JoljR9YJLXeO2cXKYaLJvYBgFm2tUfOPFUMFfzgLJiKmrv1tpAby+Q0TQqFI7o8uM+7Dw+p6XrerQc/GIwUvVpOSiSGlkIL5Ow6c0CJ2cAVEH+zfCZkPHMDh7hf9YSyIUVzi40WsQAiISbK8iET7IWI445gkDpBL/WmsBA4Is2wVhYoCu7ZMImXUKGG0VxRSvH9TVpbpUXfOavOfz8n9HZntZHwho4lBcG7gW5+WaqlWauh3RVilZ4WFUwebZGCyrzht7v6Zudpfnk1fbH6p7YsSQ4A7UEZSlVvRFaZ/Xq7lZclCZ9sCIiJWQCciqQni+I0QB7X7d4loPReHEytjgbgRx4bdjaozsMrcxLFIZLNXiXwAM4wy1Zh5WA1wmHEfOZngIAhCYDIQL5aNhxMKjYnjO55LU8IiM/yNTM0VYTVCMBQohZPB7plc/uv+H+/tZ57JKy5x+sJ/nhciQhfKEsLD0sKclqHHDGSoQ0zca9/hdg3J42jT6rT0ScZMRBuOSxJUTlmH1jLmPwQ34+FvGQriQhxYBVgpN0/MUpFhET0ccUQCNhNRmJXapPMEYeMXFpmHZRWpt1BYOM+AY/CcoTgMjX6gv/B7Nzew3/MeQoBbWI8u8QysDuoabtl3XM+biubsJi9gHsEDegz62dqdDer3eXBWnirjJDjRR3ffbEOcYdVc/nSajh/dh/9uDVTX9HN4RiwQN52D+si4zN2rjtW2VMQKWv5IAHmML+JgWZfqBIu21eiZVtwf0YJ7WydWnhmO2PCmxCAEAjGQgshnqpLP31ilJ5mQelfZ2BtVredIgFKLAo0IJeuNs7PgDDwTPYU+wBHDCYLPtvEZKwedhmRkHGgrvj2qliEeY6wnP8dJxAJxIw6QMP4T5wgIVirEgbXCcRI/HmzWKoLx4oLcBoIjFlEoSiRhcE5+RG+whAliIRZtAVHBNbgCCKbw788iz1l5+D1GmlmFaMXFz9EU7IZjCwKEgEji2XAtd98sEdA320csHLjIPydlqzJMog8i5grhlOg35I2eaI/uZJiRQNyIo+dMv9lf1K5bCC37tghgdcA2Oell0vISs1lEEPW+4QZMTDxrbKKE4oFdIauV883gMHhrt+5v0jyTkRzOBEBEiId6MadJ0GHC0GkenJWrq5txQwBMNmN3EwLfoUg7hOIotcRInnmvQPuI676krls5AaX8sXqw+AjZU6kaj2u83Pp+IG7EAaAgFdd2q2LFioFtghgaiANBIObyZ9I0bRCxwCERIJfwNE4vEmajKQKfaICY0BM49JMTOxgbCqKNlqKAe5nklhj0N7LyIRYcfNbUxWfDeEn68QIi02yv5GhoSxxEZCNZYImAuBKHBUxV5KMepeBClm1B5MFuZSXhIENvAJmwfdLv2a/BqqSsOl7SZAGrFlG1XgiBCsMTRCxyhgVWC8ROX+lzuH7DeKxlBVfQVED5H0fSkW2PD4VDhvyaumOSODCxOEGJQbGqQCJyEy7Bzi6086DLOWCygVTLivm9/QzSCVHTcHyNFxFBDAPEwV5Z1bG61XGYESRrFML7SZS79zZXaaYaB6fxPEu82i9plrDpY/C6vL9BTE10AyaPVALK1+eIooh5ipkea/8QLxzFNaaIg8DZFpGNljisNg5HwFa3mjUxBawDzjHiNBgULkQPWjyNFahy27U6mSSsE1g1NcPxkuLE4hAX4hIol5FWJmcT1BzvVWtk9Y/1+lz3pmpWuyUCywl4Ptet+5++cHrFk8LZiPhyRBn7Xdu64rs5GsIlqjtZLBzyOzgsm6OE8LomU+QmRKxgbuLjQFS4iYNji0iYCQfMxhqR6xxVQjBq3oYKDeDhAIJQsO3xATB5QULRiXO8pJc9laaeWZ6J2/vdLyo1UwuZTmY3/gosFL5nkjmLmlfbt+A95f7oRHzH8yBWstDmCwGyU56TytCpovXbDAdwMCLHWHWkAk4XkfrQ7DwRTU6fGCc6HKkG5K6w5YMk5a6ekflehoOEEAeTwkSgc4QTh5/DtzALcTohoznAnOyvqWJ5EApn8iyhKGexK10arJ7vaFzTzVPyGz6rBSXf83vb+A49B7+H9nFajnltabFyFo7g57wtXP7xjgi3dJxVxxqJ1rjf8bNwcBnWix2D7RPjsmOzOg9hCvQyOBfBPK8FFw9ICHFwbjC5CEwIxMEkoKAymKYRKJfMEYVXuP/CrQTHClUWI2JY5awwlEWrDygByHv6wHVeUSwxD0k84hRr/CMHjnSY9pPn1NMYT0JABLRKf0uOnnL8H+sqzENz8hyipY8vOwQa7KslVumrI1YzzE0yNhYFFhJpgV+mNemh+Jj/LKJLLhOsofW0WfFdncpJ2L5DIM6ucbZFrv2pXimebLCRHqZy6vR5PUd1s+gv6B9MOCYjBOKsskzdlI27GfHC2Uiw5ER4FVuFwPDf7MprUfFAVjrOrKtkkWhitLxCFFaMQRDgRkMCxKTk/V1TD2ogkNO3PhcOtl8IN5mOLzckhDg49Lqh5bSe84ilosoeK0QQA2tkex8Th+ghtZ/EYwJayFyipSMBVTxFHJD5hZOKySIcH+8gFauWNAHMVHW4rSrVqDDJv1YXQjww4eHEwHUIgmvkhaIcY7aTtc+ueY5fGQ2QEOKwgOXAIZ/PflCgRAKBgBxl+9J4hXCUhcp7VjmZUjYCunxHnWHjMGahstFE8c9hAFHTKgRGbAeFefrqMj2PCzc3egKTbhOpVVwEFoK76a43EYHszSGLLE2UyvqWPj1J9mKfwhQJEkocbqgUjoAPAORgQhJZZOXASRxT0qUwynVLSNbL+tCsPFmdZWp9kB2OWYpIGmlMJBywnE6IwojowQ3/qVgHyHt8MqrYhvWTV4fIHW7B92TDEeehvAQBNywdEp9/GZ00EBGSRhxuON//qykV5MNVlmyvVX2A0k03i/KFbwQTGGRDFHActyXCdyTfcug1/pF3hCWz7RD/RUVjjzrhogH2q+KyJ6rMfd4WAkRZ5bmkBsD+4W70gf7Q0J8gAnWdS59w0D0xv0AsqlLVNdJFPBB76Tt7iVFDGFwU4ggHJhRrgVA5NvwKEScoZbBj60izqzU4QfKZCUJ3QdFDJKHwkj3FIZqLxZphcxXJMW5Qa+dIu5YzmLi8WA/jZB8q4kHNZOFUKh6Ecyl3CDSuWYLFOtIjGkXXQNRgPbDzbaRBvdEGo4I4vABxgSlYJArlqh/q1SNJ5JPILlyDyYM4kPUq1wNyHgWQiWRCMW9xHv1ndp7uX3lARBM6DYTA6ofgaPr/wH/hEvwfIiDfFf2HA9LfWVdudhxoVo6A6Im3OBuNMGqJwwuwEEgpxJO67Js6M0XkOeFuJpAJRQRY0zmEywQIx15TnUY+wwn+JJwCdzx5FOgJJOQQ6idKTI4KDqaxTwbecEkRhxfgr0B5RGcg4wpRgZ+DicelDrFYkcQrBIQowuTEjEbHoEgKogaPbKJS7i5FuOSJIxwQRbi82Yluy1fjBEMcPT7vkLrwsXYwj0k0ikc64FiFMUccKYgfpIgjBREhRRwpiAgp4khBREgRRwoiQoo4UhABjPkvGOvVmpS+oOIAAAAASUVORK5CYII=;" vertex="1" parent="1">
          <mxGeometry x="290.75" y="540" width="75" height="66.11" as="geometry" />
        </mxCell>
        <mxCell id="5wgM6XX0G4aH47P3BtwX-54" value="" style="rounded=0;whiteSpace=wrap;html=1;" vertex="1" parent="1">
          <mxGeometry x="-102.5" y="-93.88999999999999" width="222.5" height="100" as="geometry" />
        </mxCell>
        <mxCell id="5wgM6XX0G4aH47P3BtwX-55" value="知识库" style="text;html=1;strokeColor=none;fillColor=none;align=center;verticalAlign=middle;whiteSpace=wrap;rounded=0;strokeWidth=1;fontSize=17;" vertex="1" parent="1">
          <mxGeometry x="-102.5" y="-93.88999999999999" width="60" height="30" as="geometry" />
        </mxCell>
        <mxCell id="5wgM6XX0G4aH47P3BtwX-56" value="宪法" style="rounded=0;whiteSpace=wrap;html=1;" vertex="1" parent="1">
          <mxGeometry x="-90" y="-61.93000000000001" width="60" height="21.94" as="geometry" />
        </mxCell>
        <mxCell id="5wgM6XX0G4aH47P3BtwX-57" value="法律" style="rounded=0;whiteSpace=wrap;html=1;" vertex="1" parent="1">
          <mxGeometry x="-90" y="-29.99000000000001" width="60" height="21.94" as="geometry" />
        </mxCell>
        <mxCell id="5wgM6XX0G4aH47P3BtwX-58" value="司法解释" style="rounded=0;whiteSpace=wrap;html=1;" vertex="1" parent="1">
          <mxGeometry x="-22.5" y="-61.93000000000001" width="60" height="21.94" as="geometry" />
        </mxCell>
        <mxCell id="5wgM6XX0G4aH47P3BtwX-59" value="监察法规" style="rounded=0;whiteSpace=wrap;html=1;" vertex="1" parent="1">
          <mxGeometry x="-22.5" y="-33.879999999999995" width="60" height="21.94" as="geometry" />
        </mxCell>
        <mxCell id="5wgM6XX0G4aH47P3BtwX-60" value="行政法规" style="rounded=0;whiteSpace=wrap;html=1;" vertex="1" parent="1">
          <mxGeometry x="50" y="-63.889999999999986" width="60" height="21.94" as="geometry" />
        </mxCell>
        <mxCell id="5wgM6XX0G4aH47P3BtwX-61" value="地方法规" style="rounded=0;whiteSpace=wrap;html=1;" vertex="1" parent="1">
          <mxGeometry x="50" y="-35.829999999999984" width="60" height="21.94" as="geometry" />
        </mxCell>
        <mxCell id="5wgM6XX0G4aH47P3BtwX-62" value="" style="shape=image;verticalLabelPosition=bottom;labelBackgroundColor=default;verticalAlign=top;aspect=fixed;imageAspect=0;image=data:image/png,iVBORw0KGgoAAAANSUhEUgAAAIcAAAB3CAYAAAFecmOFAAAAAXNSR0IArs4c6QAAAARnQU1BAACxjwv8YQUAAAAJcEhZcwAAFxEAABcRAcom8z8AACfGSURBVHhe7Z2Hf1RV9sB/f9KWn67u6urquru2tay6trV3sYANlCJFql26CNIRRUCxoEAIJCQhISEhvZKEQHogCaEEvXu+582dvJm8Sd5MZoaQnfP53M/MvJl5795zzz39nvt/Jg6QvJu8t7nKXPjl18CnwRDxJqVHu8114/ebv07ICLbrx2eY+RsqA78YgEE3+dO49JA/ejVu5oaQm1z70n5zxbN7Pf9Ie/PTEv3dXVNz9NVCyE3+8vL+wDtjXl9arH+8+oV0U3fidOCqMeMXFmlPcsu7AlfCbsKX/PHdL6oCVwbgyufSzVUyVOCH7GZ9tRByk0XbavX1eukRN7tGhnedvH98foFeB9b93KB4c0PITfjDtozjgU/GVDX2Bt4Zc+/0g+Z6ufGq7+vN7W9lBa46MAixjS19erN/TsoyfWcv6DWGyXsLQ87OVeP2mW8PnAh8cpBr4cy5X+TmGeaGVzJM/4VQwgu5CdDZfU5vZmfqe0EiT37ug8P62QsG3cQNd07JNnmuqYwEQ97EL1xCN2Fq1+9qCHzyhog3Aal24dl2rcxYV8/5wC8GIOQm8zdUKVWG/9ndmO5Jy53VbCHkJs+8f9jzj7Qrn01XggPqTgwsByDkJk1tZ/S1vuW0+ePzDnN6bG6+XgMa5PrVLwwQooXgTe4WRsOfYErhMGN1uX7H4pu1tjxwdQCCN7F/zqvo1HHTbnz9gC7G+uY+/Q74+6uZZvbaisAnB4I3Wbq9ztz8xoHAp1Aoq+82f35xn67o8/2/mq7u0BkK3uRXWZgne8/r0/nx7kOt5tG5h7RH8zcOcHh+c7zdwZ2FEMTS1V+4m8DegjbTd26Ah0xeUapD+2BzdeDKAITcBHh49iGVN7sPtehnenKNDKX7dL9+9oJBN7Gwr6htkGiIBBFvEg3E5SbxgLHRkS3pTebuaQeVAIJrXYTt0+8VyOIZnr27wVdHoPEJC4+oMILy7EP9Njp6+1vZIp8HpGI4ROzITbKavW4aTbPsJL/ypPmX8OtwbuiGiB2B+8EpfxGFcYfI9+vkhuE6oLvpd/KbrfsGtBIL8AQER+3xKDtyouOsjuQmYU2FNacCVweAG3974Lj56KuaQQoGkFXcofyRwcDa/vFapvkmM/K0AJ4d+YNw68Xba83UVaVB9NpR//PNLNPg4tjHBGuPBDgYD2VKf8p1OJmFd4Sj78prDXzyBs+O8FAv9ROYIPorYoXOQYRTV5YFvhkA5PSUz0q0Y9wLQcfrzpzQDrrBsyMYEjzoz3IDaANleuLyYpmyUAlh4cu0JhVHzkPTzX/eyTOF1aFTeptgMlxMuSEisTKaky4NBFp4X6wdsHED0yTzf82L+2U15Jh9he2BX4XCd6JvQh9MG1hBJWAFeUHEjrSfOhfUKWBSryw6YlpPng18OxiOivnx+Px8xSLYRFM+WNYZ+HZ4iNiRcLggGFkqBIyWROfo5J9sRwVLa3bWB34ZG/juSKIh1ZFwSHUkHMZWR5pEX3nho0JPE8wvxNyRZpHQUz8rVWZnhSJmHiJh2Td1gV/5h6g6wog/+LJa2b99eKTmSOpsU3WsJ/DvocFXRzbtPmbumJwdFGzRtsuf2avuq/4Ljt3qBRE7UiDC6XZ5OMqN182jaX9BORLzrbh2sJJlwbMjTAGS1eum0TSm8I2lxaLlOTrrUODZkWmi7KB/YoQi7r0eEqnxe0T/2p0DXhG8AzF15AkR5+gPQIeoA2rMDtMhvr9veu4g8xooEr03po7AE2xH3LDupwZdDTTbgavF1ln+rfdy3bCrMTjFV4rKMO7DQrUKvMCzI/fPzNM/z15XEeJXtIDnD2uurnnAF2vhVO958/yHh5XIwRJOCvSVgJshIgzqSPWx3pCVgoJ8/4xcs7+oI/ALb8AZfN/MXMUAqwQd9Uhglfz2iT36OhQM6siWfU3KrBpb+9QvgepHh7hGBxdvqw36sVCyN+1ulJE739PpSctKQrz4vPvN4zF0hHmFBiz0nrlgZq0pVy+2xRLvHxRN3eq0qIzrhX7CAb0XeuM3Dla9lWxgUEfSC9t05F6A4YTWDn8AU3dPPWhKjnYHvh2ArJKOoBINnfD7WyaGOr/DYVBHICpGgDB78eMic/b8YLbc3HnWdHpI2lli0fFw7QCyZlKWOSoEXdnYox75oWBQRwBcCDe+nhnU0qEBfOJeUCEP+c87h4KCkNjBApfrDoBoY+4IhHpeTIglYkLQGR7ClD0y55DpF2JMP9wWNLRBP6jHAekFi7fVmHvejqEjdwod3D0t1JOHsfRvGRUjt8sbjH38VY1nrKur55yZvKIkiFUYpJvth4NnR3bmOqGJe4Vlh2tdLN1n3z9sSuq8JWmV8CFUBjpLp28XfjKUX8SCZ0eABZsq1VVlqX7L3qbAN96AwsTvGT3Le/7GKnNalr5fiNgRC5vTjjmGNLQgKwG+0BawgeETzwl2uA4G/vZqhipRscCwHbGAUgMR24cydZZemMKyBm9C9Qu+O+IGlB2m4d1N3s6cWCCmjiQCUh0Jh1HTkdECKYSEQQohYZBCSBhcVIT8KspxTVOv2br/uHlyQb4KT9wevF4lShSK1HtfVGnGBVI+GZA0hKAf7S1oN9NXl5u7ph1UNz0DZvDoUUM1tA2MR5CFUUDgAySe8zAuRgoJQQgOCGzFp2TWMUDxFeDe8xrsSBqIAql/eGavUhj+iPAIUbQQM0JwcHT39ptdeS2a0sTMMevMJHqk1wCS0Xg2GWO8v0N0WixCYjt+ISqEYA//kNMiWnqmBo7Q6MM7dDEahj7L6T4x/Ogb1qmX68wPRIUQTBVIlE5YWzu8c4lsLDuWIM+9f2auWbKt1jS09AW9YdanNFzUfyiICiHjAq45OoWnI6+803y8pcbcKsvlj8/Fn2Igf/jPLRMPmM++O2pySjuGTGltaD2dXIQ8OCvP6aRQCbPhBXhipnxWqt4Y+AkDGo6SiKmoFJH74gPBC/hjTvOQkQMLpE0VVJ80E+U/109wqPZvr2SqI/ervU3q0hrOn+qGqBCy6OtaXat/ls77jb3gJAZJH2+pVkpS9waMT+4Btb2xrNhkHukwrV2RI+tuwGE4U0T3fTNytS9MjkU4CLll0gGzZHudKa/v9vT5DQe+EIJEIUHiWumAe2Z1VuUaHvBvM0/oeo4XMKv1zafNpj3HzEOz89Tfw5Jk8CASLxhS5LUlR8zew21myspS87sn0gYlMEcLvhBCnqFVoG6W9YyDk1kOXwowWvgLeTToBd9lNasv0i/8KBKMEAI8g+VjGTfP4pks2W2ikNm8UAvwlZlrytXLnxSEbNjdqBkrdMxmiQNQBArYy58UBWctHEl85jrLbMqKUrMzt0X/l13Sad7bVGluksFzb4twEMpnpMiHX1b7SpQmQEBCC8lQs9eVq3s7VvCFkB0y00qyghCyryIB6T4twsRAEsGCG4S5MVC39LEk78y6w0fwWD+1oMBkl3Z6BqbcgJJVJnwE6caS4X5KSYH704gPcQ2pGJ7xNRz4Qki1GGAk0vEgvOFkgh0oHjqA5Yay+h6zaGutkjxS5xnhOZv3NGn8YDhAwdq6r8k8/8FhZaDuMBF6CVE5onNz1lUoM2W5Ql19UfiW3eALIRZw7w50xpld3jNLH3xZpdHcM6505GjhlJgChJjYjHDDBCdJLMhIA7MONbGFBL52PkwsI82IHCLyh8pwGwp8IwRS5mF0DOUHhjlvQ6Vmwtm4Bx1nFi9/eq95eE6eWSxUcVh0hEhApu1cuQf3QxwjtSzpXy28BAS8uviI2iMNEfQeN5Q39MikOQg5mWiEAFAInWQAXnrDFyIinxRegL4BknRtC5IsogjjE2jSgQeug2CWAaTOmof/nA2EbocDqJG4DwnxxINgyCCT55LuSvoiyTXRQFQImbaqTB9KwsSe/KFTUQFmdev+JvPQO3kaX7TLDOSAODYBRSMRyO395Osa89hcJ1U2qJsIEkAy194USUYouf1kbA6lqBCCgjZ+0UAKLQ0b5vY3s1UTJRl0OCnhF1qEAn/Oa1UV/JqXQnUSYu3wEuJkG4UqO2NcHl4QFUIsoAjViy4BSf79tYBohQFKY/YhW2ySaatKVUT6gfwqsUdEG2Y5ov1CiRYB3J9l+PkP9aZKJFM0/o1oISaEeAFI2nmwReN6rF9yCKwUYnYvezpNB0sSLinIn31Xp/yE3/E9v4OfXPncXuVVMGw012RD3BASDtgiWKK7RDw+Imseb5pSEmseZhqgKhw6hIzTC9pNd2/8SD9WSBhCIgFK2pdiluNtH42QdISMdkghJAxSCAmDFEJckEKGC1LIcEEKGS5IIcMFKWS4IIUMF6SQ4YJRgQws4VNi6KUVtJmXPinSvc4FYu5Hk2QcD7ioyCAtPKe0U1OicA9q4EksXOsKoMDG9swTmg6eDEg6Ms73/6IeM9LNCRlg5uPZ4hVfh204pUEKXrd/Tc0xb39eplv08ZAlCpKGDFIi1vzUoGHLWycJFbg8XW4keDX8IXjaidQT1Jr8WWlCXAIJQwZROfam/pDTrA6d6wMuQ5ofBHg1nMPqJhTk4C2DsnA8E5yym6ZGAnFHBqmQeLzmbaxQt6CNnXgNbqSNZcSOUp4zdWWpxmLcVRGihbgggzRHgsvvrC03j8/L15kjvhLOBxLVeA5IJ7xApQW21x3xKCUyHMSMjHPCCPGKk65074xc84/XHQ86sxXrMohH4/n0g606E5cVm6Y2/3knUSMDfWDj7kaNd1z7kiyBizx426wDmlcSc9f82KCSKxqIChnkWpFPepmsUxvyu9gNBJDTQcwYEYwoXrEj+r37QFTIYC3aANLFbEgVkABjJkazZmeDJs8s3FpjfvfEnog7o4cD38ho7jijMRHWJOKRV6+OJrLxTJYlORwEsX7KDU1jWPn9UfPbx5OADHIlbp2YpTMCOT4275BqjommFPgRz+BZD885pJH5QxEKjMHMk4KMnLJOJU9m583lJVpeiYpoExYdkXWarnaF12BG0rgnytVLHxeZ77JOaEGroSBplJFZ3KEkapFh4fTZC6ZSDCkKDNz42gFFGBw9FgljtUtSmsgjI28UKvBjvZIgR0oDPCOW4ieAb2SkH25XRYqBupHhhu7T5836XY2an3GjWKE2scVr4O4GAlgK8AK2eDOY2uPD53Zg+qOKb9x1TLd4Q0XwM+r3LdhYJQZhV1RpWL6RwTZwOs7g3oqADDfsK2wz726qNA/MzNXENa9lBGIRhWz9oEjLnvw2X/kfIIHsZCL4IMG9cwIJwz2dTIA6LRDiF3wjg6JiTqrSPuXkfoEEWKrpUfyQxBerHJHfRYfJx4AK/KQ4McukVJHEAhWhfrspjyVKMh2ZR2QCRQu+kEHKwVoxv4MPljWNDcA2DlIRmKnhACuW+tczVpdpghs5Hn5IGC2ysfW0JtYxGX8l3YHlIAjlFQTgGMIqJrdsJFk+vpBBcjtrmoR3OwusTYwjEuDxVB2uOqllXuMFpE2SOUhxHuweqAAGS+O5IAH+svL7eqG8Zk17Ahk9Mjmxgi9kLBQurdsuAohwN2boCiF/EuNe/LhQyThSVUM/0NPXb1aLRun4QJyB2/1zTAjUSVo1/lKb8Xe4+pRSx8Oz8xKPDDRP1votb2QNJLdKc4tP984jMpDJBa2NYkMNjiAqVTwwK1cRjCfMPodn84y56ytF1A52FENBSUMGzIoOUVmLWaeaxaOigVLRhNmynXUjxiILhpZR1OG5/xULOKek08xZV6kpTspcFQEOYnmPBYpUYMtGJMCTDjIemZM3oi2kwyKDdMggMt7KDvIFrpMwT3Xre2eQwIYlG4oUGmSNp/uBmXlmlWiIbCPFf8lyelYQhS7CEnSQ6PAhPORs7iGR1o/C9aMwY/wXJNCScO9nN5QX+ELGP0SztMgIr/oCkPz6VfoxTZBFxodTikUK9gX3YDcSDNHqHlCQVbqmryrXfHM/+kbGkXat000Kpn0Gry8Kv6HWFy6HaMDXMkEf4EFuyvACZjG/qsu8uqRYBpapgwQxbsZreQBLwSINjZF9KSyl8/1Di2lEORt0nv+gMDhJbuTzTCgURY5KwdGEFnwh4+l3C3RbF0mrMDo/cKytz3yypUbFH/qAIxUECdJxlgZUoLqKLBckyHDA3rqv9zXphGgqtdxLBy+NwavoF0TAeHH3dZyKXsz7QgYbZCBxHvzywiKz4efGYPmf4QB9gd0K7EdD/OLJRo1Gne4dBgkoahhq7Imh0CNLEGS6kYBW+9i8fHXzvSzW7e+fTNPwQSzgCxmQ2j2yLiFH1jmNLQ+QdlGtPy80ViXHlMBf4ENDAZYwPIjNhCDBLbGYfZYsETfiJnllXTIxjqQiSocJj2shFvCFDAB/Ahv8bYfoHK80xB9KEDX/otmP6gZ4RVN7n1n2bZ0igPtCBfoqzTJHSvp9sqXaKXEe9rAFm6qSgwwiYyCDVGgS68kFt05h1i/fgRT8pChB1ODwAyBwv0gF/CH4MOza1/sKMhDZiM3XhCmvk+U5lMc7acj4Is3Z/UgnKUPI5j/Wqk2kt4FikIIChZ7wvfymOwJfOCGMePPeJlXK+L0GnQJMkfvBcGHYnNSBPuNn469dJjDaWMA3MtgIzECZtWWiEQJokPsL21XaMABm0mqfcHVVhIT7z11foUsAYsGxPHdDhblzMrsiHSaoUoYWQOrj8w+Z77JPmDafYpGAFjuq7xPlj3AjFnYsyzUKnuEsE5CBOR0O7Iqc/nmZ+TceJxmU3U+va14+Y2LD8HTHgVCQ/c4yRwpWUsOYQ5Qu+BwJegkbeLgv9+B+UBb3pPzf7vzWqLaS+0bG7kNtummPBy4fwsdI/OIrWbP4LPCZsmXLdtIyQT6rS1CogqAUx05FKlrgBaj08CZK3jq8a2B5cV8ocraYCdQQiSYQ7RsZNlSA3cBAe88MrSOgjbLLEduFwdNhXpm1G9/IVB8IPspotnnhwUK7tYqXm4Fz33tE3KOGl8dYZdA3Mrp6zwnpFeigIHWY3qw1Feq9GooU8YIhBlGNkTYUnGWH5HC6BoDoRDtFOmCeo7RZ3sQrjbrS7LJmuaDgjQR8IwNAl1Cm99K+oPSAN+DU4bQHP/tU/QCJJ2zaQfNlV/ZVKmmc5QU1wJxR+qA6inbHC6JCBkChXTzev38qTWcGMqVzfOb6+19Ua8ApFoASQOrrS0tUrFoHMs+AInnOI0Ih2zOOj540Jrg4J1WRjadkK2uWWYNS6DADwUCjXtdw9gcA/8GXyZ5W8rZY/44EcvgBzyBytze/Pa7bOsMhJmS44WB5p3q82aLNIECIDkIGwCA48+bjr6vVLnF7wznyC0b34VfV+ht+b5HKUuA+uA8x6vBkJQNGjAwLiEYcx3io4fQ0K0bhK1eIjkIk7ntR62lvreCcnX0qCvkNVqhKCLmG3kDcNBpxGw+IGzIsEBwmJoLJjvpui5PRGKxdSlYp4zoUBU/gICLEZyKXwlAQd2RYQNwSB50jqjhlZ6xnS6kg8B5E3CpL5NMdR5UhRpt2FG9IGDLc0CYMlzQBmKp1AVJpHS97VxwDTyOFpCDDAoYdnmyWUSyGVKIhqcgY7ZBChgtSyHBBChkuSCHDBSlkuCCFjBREhBRxpCAipIgjBREhRRwpiAgp4khBREgRRwoiQoo4UhARUsQxBJAWUN7Qo2nM1CgnV4PkWB9ZBWMCUsQRAOLDpfXd5uv9Tbo7knpA5KbfNS1Hc1QIlJO3xp5bUjNmr6/QeFB5fY/mmo1F+J8iDhKJyJEhC5xdaNQleX+zUxaITQtsrbFHNhAuptmsCZpNOiCMTBIBOT1khkNAL3xYqCmq2zKOazICkdfz/b/6Sl4arTAmiYMJ6e27oLtRyEhLy2/VtDjqwrDyNS9gnJMhb7cNKwEEosTRNiWcQMoNhEN+IpyGXEVOdVn/c4PJLu3QAlwcQD8aA69eMCaIgwR1iIDkD4iAM0PYAkke1i2TnJQjqhuQtGpTj7wmOZ6NZ/AsiJBs4/9/Kk3F0zPvF2j/SHPeldeqSa/0fzTCJUccp8/26znxX+49pltKX19yRIsVsL2MXFImhCwim4OmYsFj8i5Gg7vAWUjv4pX+3jk5W3NoKZ1Bjht6DBmV8dxUHSuMOuKA5aLgsX+PPDjKcnEQFwoinOA2UQpBqpuVuxMKvSZltDZnDE7ml45DxsB19B6uowfNWF2uex0oZUJKHBu/2NWWDLioxAEhWCLILe/S3S8rdhzVDFQIAeSpOJCVhgJolcNwJI/VxlgZN/mVbFu67c1s3QWEHoP4JIW5WoiGzfGJ0HuTShyURIETYCWQG8nOHCyFB4WtsikWnQBlLpm6waXSwAXKM42aoZSt+Tq9Sf0w6CyXJHGc7O3XM9Umryg1d8igbn4jS3cWwQVYFTav3LLU/9XG5IODcBHJKzoUufzsDcwq7tD6BckQLQkjDjpPQSashr+9yjY2ts87gx0tCuLFakw+C0LT7jGnhSCorHPPtINakHvBxkrz0VfV5lVRttk9d9nTTunlT3fUmaPNyTt0KCHEgbeRMkbsR2Ajlt2T+L/aVCQIAbAfi33f+EDum56rWfdUDaEqa0ZRe8j56W2nzprVO+tVKWW7M6dnk7Uf6wnasUBCiIPT5N7dVKWyEcKAVYIkXrU8g6wYkGVZ51hrSgzCGazYxPq49+2DWuQQy6O47pRpbOkbcpsmR6lS/hITfUwRB/vRqIyCkgn7VC+kEAMxia/FLN20p1HETZEOnDIzOIcsq7W/He2Eg2ikz24zFCLABX/P2zm6iZrqt4WigOMVZSN0NMcvjlniIIL5xIJ8Z7IFcbwiWyk26WadIIwaiWx2prwP2+pxOVOhyrJhquOw+i42sfB8Ow7tk7znsFP6S91IzvvkCEqO1o6Hf/x4xxmtIUnc5jeP7REiydY9kMfbk7cHMiHEQVUOYhi4ju3qAqlsBh1ug2dnj5i7tad08xdl0rDpH5ubL/fJ0DoPEAxiKdHEYokB0xr3N9yMupUcOv/+F1XqmCusPqkVg+J1ICuElXGkQ+tOEAeiSgDcF2K8deIBM0nMVyoLlB3t0dhRoiEhxEHtKkpYs+LdnMMPcYQDkU0Kd+nJ/qWdZtUPR5VlU3uC+/IMJg4iZEJt85pwr2Z/z/+5D2KNHcxYD1gO+GOos8d5BpSIwGkXXj0pFoBrVjb06L0Xbq3VZ90rSirPpS8sAMZnx2JfcQMguu4WcTN5RYnuooQb+ynsGi0khDhKROGavqpMCw3YytYqVoTy3WJlJECVSOoBkYiDLJ4gOsz9Mw6a297Cj+KUy+OZlngcAnCsBq6BfCaB8n3s3X/q3QIze22FFnbjZI+RHDHiBkx64iRUv6SvcEPMe0Qnk+0Qtn0N1bUs0RIuuEP6yP7iSctKzEoRN7llXepOh1DjTxYOJIQ48IKimePuhTCYEBoFJhdvqzHph9tEY+/WMqXxzHegikWFrEacbku/qVUvolNQLkv7AZLxJYz7qFBLjBEZ5UjreBEsQL5ITdNp4Z7tWm2L6uGUQ6SOCwW7nVBAKBHArSBkmsMtHAKGO05ZWWq2Zx5X3SzZuSFxJQ48d0RLOVIKZDBAiwAaSLG1V8iqelRWwkQRNYu312rtFaKt8cyqoiZdh1gKhPOJdGJFMXHxjHgy5uySTi0LO39TpeokFPtivEw2MRHlXjLhFg9wCTgX3+EHohI7eIAQUOQhYkL8j4qutUcIvX+YIqOJgrgRB/59lEgIA0cPK8AiI7wpuxQE8RvLWTBnUb5Y2a+JTkEhYuQxhUqpTZEImRoNaALRGdETGnvMz7mtZsm2WnVi4bkkG4xxMQ47HohBRUWgWbGGqLUijPA8XBY9htI1uRVdqoBTYPm3T+zRklZUlh1J1emRQNyII1vk6SsyqZyOYVkjnkAQAysNRlZdK8irWcKBy/B7UvFQ1CaKrF2zs17ldl1zn+oEcdALIwLEDivPLe/U0wIp/6dOPRmbZf9WR7A+D67h5CMWct3LGapXoJi/uqhYC78h7iJVooH4qMA5JoljR9YJLXeO2cXKYaLJvYBgFm2tUfOPFUMFfzgLJiKmrv1tpAby+Q0TQqFI7o8uM+7Dw+p6XrerQc/GIwUvVpOSiSGlkIL5Ow6c0CJ2cAVEH+zfCZkPHMDh7hf9YSyIUVzi40WsQAiISbK8iET7IWI445gkDpBL/WmsBA4Is2wVhYoCu7ZMImXUKGG0VxRSvH9TVpbpUXfOavOfz8n9HZntZHwho4lBcG7gW5+WaqlWauh3RVilZ4WFUwebZGCyrzht7v6Zudpfnk1fbH6p7YsSQ4A7UEZSlVvRFaZ/Xq7lZclCZ9sCIiJWQCciqQni+I0QB7X7d4loPReHEytjgbgRx4bdjaozsMrcxLFIZLNXiXwAM4wy1Zh5WA1wmHEfOZngIAhCYDIQL5aNhxMKjYnjO55LU8IiM/yNTM0VYTVCMBQohZPB7plc/uv+H+/tZ57JKy5x+sJ/nhciQhfKEsLD0sKclqHHDGSoQ0zca9/hdg3J42jT6rT0ScZMRBuOSxJUTlmH1jLmPwQ34+FvGQriQhxYBVgpN0/MUpFhET0ccUQCNhNRmJXapPMEYeMXFpmHZRWpt1BYOM+AY/CcoTgMjX6gv/B7Nzew3/MeQoBbWI8u8QysDuoabtl3XM+biubsJi9gHsEDegz62dqdDer3eXBWnirjJDjRR3ffbEOcYdVc/nSajh/dh/9uDVTX9HN4RiwQN52D+si4zN2rjtW2VMQKWv5IAHmML+JgWZfqBIu21eiZVtwf0YJ7WydWnhmO2PCmxCAEAjGQgshnqpLP31ilJ5mQelfZ2BtVredIgFKLAo0IJeuNs7PgDDwTPYU+wBHDCYLPtvEZKwedhmRkHGgrvj2qliEeY6wnP8dJxAJxIw6QMP4T5wgIVirEgbXCcRI/HmzWKoLx4oLcBoIjFlEoSiRhcE5+RG+whAliIRZtAVHBNbgCCKbw788iz1l5+D1GmlmFaMXFz9EU7IZjCwKEgEji2XAtd98sEdA320csHLjIPydlqzJMog8i5grhlOg35I2eaI/uZJiRQNyIo+dMv9lf1K5bCC37tghgdcA2Oell0vISs1lEEPW+4QZMTDxrbKKE4oFdIauV883gMHhrt+5v0jyTkRzOBEBEiId6MadJ0GHC0GkenJWrq5txQwBMNmN3EwLfoUg7hOIotcRInnmvQPuI676krls5AaX8sXqw+AjZU6kaj2u83Pp+IG7EAaAgFdd2q2LFioFtghgaiANBIObyZ9I0bRCxwCERIJfwNE4vEmajKQKfaICY0BM49JMTOxgbCqKNlqKAe5nklhj0N7LyIRYcfNbUxWfDeEn68QIi02yv5GhoSxxEZCNZYImAuBKHBUxV5KMepeBClm1B5MFuZSXhIENvAJmwfdLv2a/BqqSsOl7SZAGrFlG1XgiBCsMTRCxyhgVWC8ROX+lzuH7DeKxlBVfQVED5H0fSkW2PD4VDhvyaumOSODCxOEGJQbGqQCJyEy7Bzi6086DLOWCygVTLivm9/QzSCVHTcHyNFxFBDAPEwV5Z1bG61XGYESRrFML7SZS79zZXaaYaB6fxPEu82i9plrDpY/C6vL9BTE10AyaPVALK1+eIooh5ipkea/8QLxzFNaaIg8DZFpGNljisNg5HwFa3mjUxBawDzjHiNBgULkQPWjyNFahy27U6mSSsE1g1NcPxkuLE4hAX4hIol5FWJmcT1BzvVWtk9Y/1+lz3pmpWuyUCywl4Ptet+5++cHrFk8LZiPhyRBn7Xdu64rs5GsIlqjtZLBzyOzgsm6OE8LomU+QmRKxgbuLjQFS4iYNji0iYCQfMxhqR6xxVQjBq3oYKDeDhAIJQsO3xATB5QULRiXO8pJc9laaeWZ6J2/vdLyo1UwuZTmY3/gosFL5nkjmLmlfbt+A95f7oRHzH8yBWstDmCwGyU56TytCpovXbDAdwMCLHWHWkAk4XkfrQ7DwRTU6fGCc6HKkG5K6w5YMk5a6ekflehoOEEAeTwkSgc4QTh5/DtzALcTohoznAnOyvqWJ5EApn8iyhKGexK10arJ7vaFzTzVPyGz6rBSXf83vb+A49B7+H9nFajnltabFyFo7g57wtXP7xjgi3dJxVxxqJ1rjf8bNwcBnWix2D7RPjsmOzOg9hCvQyOBfBPK8FFw9ICHFwbjC5CEwIxMEkoKAymKYRKJfMEYVXuP/CrQTHClUWI2JY5awwlEWrDygByHv6wHVeUSwxD0k84hRr/CMHjnSY9pPn1NMYT0JABLRKf0uOnnL8H+sqzENz8hyipY8vOwQa7KslVumrI1YzzE0yNhYFFhJpgV+mNemh+Jj/LKJLLhOsofW0WfFdncpJ2L5DIM6ucbZFrv2pXimebLCRHqZy6vR5PUd1s+gv6B9MOCYjBOKsskzdlI27GfHC2Uiw5ER4FVuFwPDf7MprUfFAVjrOrKtkkWhitLxCFFaMQRDgRkMCxKTk/V1TD2ogkNO3PhcOtl8IN5mOLzckhDg49Lqh5bSe84ilosoeK0QQA2tkex8Th+ghtZ/EYwJayFyipSMBVTxFHJD5hZOKySIcH+8gFauWNAHMVHW4rSrVqDDJv1YXQjww4eHEwHUIgmvkhaIcY7aTtc+ueY5fGQ2QEOKwgOXAIZ/PflCgRAKBgBxl+9J4hXCUhcp7VjmZUjYCunxHnWHjMGahstFE8c9hAFHTKgRGbAeFefrqMj2PCzc3egKTbhOpVVwEFoK76a43EYHszSGLLE2UyvqWPj1J9mKfwhQJEkocbqgUjoAPAORgQhJZZOXASRxT0qUwynVLSNbL+tCsPFmdZWp9kB2OWYpIGmlMJBywnE6IwojowQ3/qVgHyHt8MqrYhvWTV4fIHW7B92TDEeehvAQBNywdEp9/GZ00EBGSRhxuON//qykV5MNVlmyvVX2A0k03i/KFbwQTGGRDFHActyXCdyTfcug1/pF3hCWz7RD/RUVjjzrhogH2q+KyJ6rMfd4WAkRZ5bmkBsD+4W70gf7Q0J8gAnWdS59w0D0xv0AsqlLVNdJFPBB76Tt7iVFDGFwU4ggHJhRrgVA5NvwKEScoZbBj60izqzU4QfKZCUJ3QdFDJKHwkj3FIZqLxZphcxXJMW5Qa+dIu5YzmLi8WA/jZB8q4kHNZOFUKh6Ecyl3CDSuWYLFOtIjGkXXQNRgPbDzbaRBvdEGo4I4vABxgSlYJArlqh/q1SNJ5JPILlyDyYM4kPUq1wNyHgWQiWRCMW9xHv1ndp7uX3lARBM6DYTA6ofgaPr/wH/hEvwfIiDfFf2HA9LfWVdudhxoVo6A6Im3OBuNMGqJwwuwEEgpxJO67Js6M0XkOeFuJpAJRQRY0zmEywQIx15TnUY+wwn+JJwCdzx5FOgJJOQQ6idKTI4KDqaxTwbecEkRhxfgr0B5RGcg4wpRgZ+DicelDrFYkcQrBIQowuTEjEbHoEgKogaPbKJS7i5FuOSJIxwQRbi82Yluy1fjBEMcPT7vkLrwsXYwj0k0ikc64FiFMUccKYgfpIgjBREhRRwpiAgp4khBREgRRwoiQoo4UhABjPkvGOvVmpS+oOIAAAAASUVORK5CYII=;" vertex="1" parent="1">
          <mxGeometry x="-28.75" y="-130" width="75" height="66.11" as="geometry" />
        </mxCell>
        <mxCell id="5wgM6XX0G4aH47P3BtwX-65" value="意图识别" style="rounded=1;whiteSpace=wrap;html=1;fontSize=16;" vertex="1" parent="1">
          <mxGeometry x="565.5" y="1453.97" width="100" height="30" as="geometry" />
        </mxCell>
        <mxCell id="5wgM6XX0G4aH47P3BtwX-66" value="知识检索" style="rounded=1;whiteSpace=wrap;html=1;fontSize=16;" vertex="1" parent="1">
          <mxGeometry x="565.5" y="1330.97" width="100" height="30" as="geometry" />
        </mxCell>
        <mxCell id="5wgM6XX0G4aH47P3BtwX-67" value="法条查询" style="rounded=0;whiteSpace=wrap;html=1;" vertex="1" parent="1">
          <mxGeometry x="199.5" y="1458" width="60" height="21.94" as="geometry" />
        </mxCell>
        <mxCell id="5wgM6XX0G4aH47P3BtwX-68" value="法律咨询" style="rounded=0;whiteSpace=wrap;html=1;" vertex="1" parent="1">
          <mxGeometry x="334" y="1458" width="60" height="21.94" as="geometry" />
        </mxCell>
        <mxCell id="5wgM6XX0G4aH47P3BtwX-69" value="日常问答" style="rounded=0;whiteSpace=wrap;html=1;" vertex="1" parent="1">
          <mxGeometry x="469" y="1458" width="60" height="21.94" as="geometry" />
        </mxCell>
        <mxCell id="5wgM6XX0G4aH47P3BtwX-70" value="知识库" style="text;html=1;strokeColor=none;fillColor=none;align=center;verticalAlign=middle;whiteSpace=wrap;rounded=0;strokeWidth=1;fontSize=17;dashed=1;" vertex="1" parent="1">
          <mxGeometry x="235.75" y="1345.94" width="60" height="30" as="geometry" />
        </mxCell>
        <mxCell id="5wgM6XX0G4aH47P3BtwX-71" value="大模型" style="text;html=1;strokeColor=none;fillColor=none;align=center;verticalAlign=middle;whiteSpace=wrap;rounded=0;strokeWidth=1;fontSize=17;dashed=1;" vertex="1" parent="1">
          <mxGeometry x="355.75" y="1345.94" width="60" height="30" as="geometry" />
        </mxCell>
        <mxCell id="5wgM6XX0G4aH47P3BtwX-72" value="" style="rounded=0;whiteSpace=wrap;html=1;" vertex="1" parent="1">
          <mxGeometry x="188.25" y="1291.11" width="231.75" height="100" as="geometry" />
        </mxCell>
        <mxCell id="5wgM6XX0G4aH47P3BtwX-73" value="知识库" style="text;html=1;strokeColor=none;fillColor=none;align=center;verticalAlign=middle;whiteSpace=wrap;rounded=0;strokeWidth=1;fontSize=17;fontStyle=1" vertex="1" parent="1">
          <mxGeometry x="276" y="1293.96" width="60" height="30" as="geometry" />
        </mxCell>
        <mxCell id="5wgM6XX0G4aH47P3BtwX-74" value="宪法" style="rounded=0;whiteSpace=wrap;html=1;dashed=1;" vertex="1" parent="1">
          <mxGeometry x="205.75" y="1330.1100000000001" width="60" height="21.94" as="geometry" />
        </mxCell>
        <mxCell id="5wgM6XX0G4aH47P3BtwX-75" value="法律" style="rounded=0;whiteSpace=wrap;html=1;dashed=1;" vertex="1" parent="1">
          <mxGeometry x="205.75" y="1358.17" width="60" height="21.94" as="geometry" />
        </mxCell>
        <mxCell id="5wgM6XX0G4aH47P3BtwX-76" value="司法解释" style="rounded=0;whiteSpace=wrap;html=1;dashed=1;" vertex="1" parent="1">
          <mxGeometry x="276" y="1330.1100000000001" width="60" height="21.94" as="geometry" />
        </mxCell>
        <mxCell id="5wgM6XX0G4aH47P3BtwX-77" value="监察法规" style="rounded=0;whiteSpace=wrap;html=1;dashed=1;" vertex="1" parent="1">
          <mxGeometry x="276" y="1358.17" width="60" height="21.94" as="geometry" />
        </mxCell>
        <mxCell id="5wgM6XX0G4aH47P3BtwX-78" value="行政法规" style="rounded=0;whiteSpace=wrap;html=1;dashed=1;" vertex="1" parent="1">
          <mxGeometry x="345.75" y="1330.1100000000001" width="60" height="21.94" as="geometry" />
        </mxCell>
        <mxCell id="5wgM6XX0G4aH47P3BtwX-79" value="地方法规" style="rounded=0;whiteSpace=wrap;html=1;dashed=1;" vertex="1" parent="1">
          <mxGeometry x="345.75" y="1358.17" width="60" height="21.94" as="geometry" />
        </mxCell>
        <mxCell id="5wgM6XX0G4aH47P3BtwX-83" value="" style="endArrow=classic;html=1;rounded=0;exitX=0.515;exitY=0.016;exitDx=0;exitDy=0;exitPerimeter=0;entryX=0.783;entryY=0.993;entryDx=0;entryDy=0;entryPerimeter=0;" edge="1" parent="1" source="5wgM6XX0G4aH47P3BtwX-142" target="5wgM6XX0G4aH47P3BtwX-72">
          <mxGeometry width="50" height="50" relative="1" as="geometry">
            <mxPoint x="361.75" y="1453.97" as="sourcePoint" />
            <mxPoint x="365.75" y="1389.97" as="targetPoint" />
          </mxGeometry>
        </mxCell>
        <mxCell id="5wgM6XX0G4aH47P3BtwX-84" value="" style="endArrow=classic;html=1;rounded=0;" edge="1" parent="1">
          <mxGeometry width="50" height="50" relative="1" as="geometry">
            <mxPoint x="500" y="1450" as="sourcePoint" />
            <mxPoint x="500" y="1239" as="targetPoint" />
          </mxGeometry>
        </mxCell>
        <mxCell id="5wgM6XX0G4aH47P3BtwX-87" value="" style="rounded=0;whiteSpace=wrap;html=1;" vertex="1" parent="1">
          <mxGeometry x="360" y="1170" width="180" height="70" as="geometry" />
        </mxCell>
        <mxCell id="5wgM6XX0G4aH47P3BtwX-88" value="大模型" style="text;html=1;strokeColor=none;fillColor=none;align=center;verticalAlign=middle;whiteSpace=wrap;rounded=0;strokeWidth=1;fontSize=17;fontStyle=1" vertex="1" parent="1">
          <mxGeometry x="424.25" y="1171.0000000000002" width="60" height="30" as="geometry" />
        </mxCell>
        <mxCell id="5wgM6XX0G4aH47P3BtwX-101" value="刑法第一条：为了惩罚犯罪，保护人民。。。" style="text;whiteSpace=wrap;" vertex="1" parent="1">
          <mxGeometry x="200" y="1027" width="80" height="40.03" as="geometry" />
        </mxCell>
        <mxCell id="5wgM6XX0G4aH47P3BtwX-102" value="问题回复" style="rounded=1;whiteSpace=wrap;html=1;fontSize=16;" vertex="1" parent="1">
          <mxGeometry x="565.5" y="1052.05" width="100" height="30" as="geometry" />
        </mxCell>
        <mxCell id="5wgM6XX0G4aH47P3BtwX-110" value="文档" style="text;html=1;strokeColor=none;fillColor=none;align=center;verticalAlign=middle;whiteSpace=wrap;rounded=0;strokeWidth=1;fontSize=17;" vertex="1" parent="1">
          <mxGeometry x="-13.75" y="1571.05" width="60" height="30" as="geometry" />
        </mxCell>
        <mxCell id="5wgM6XX0G4aH47P3BtwX-111" value="文档切分" style="rounded=1;whiteSpace=wrap;html=1;fontSize=16;" vertex="1" parent="1">
          <mxGeometry x="-220" y="1410" width="100" height="30" as="geometry" />
        </mxCell>
        <mxCell id="5wgM6XX0G4aH47P3BtwX-112" value="知识梳理" style="rounded=1;whiteSpace=wrap;html=1;fontSize=16;" vertex="1" parent="1">
          <mxGeometry x="-220" y="1285.1100000000001" width="100" height="30" as="geometry" />
        </mxCell>
        <mxCell id="5wgM6XX0G4aH47P3BtwX-113" value="规则匹配" style="rounded=0;whiteSpace=wrap;html=1;" vertex="1" parent="1">
          <mxGeometry x="-170" y="1454" width="60" height="21.94" as="geometry" />
        </mxCell>
        <mxCell id="5wgM6XX0G4aH47P3BtwX-114" value="模型分段" style="rounded=0;whiteSpace=wrap;html=1;" vertex="1" parent="1">
          <mxGeometry x="-79" y="1454" width="60" height="21.94" as="geometry" />
        </mxCell>
        <mxCell id="5wgM6XX0G4aH47P3BtwX-115" value="手动维护" style="rounded=0;whiteSpace=wrap;html=1;" vertex="1" parent="1">
          <mxGeometry x="12" y="1454" width="60" height="21.94" as="geometry" />
        </mxCell>
        <mxCell id="5wgM6XX0G4aH47P3BtwX-116" value="文本向量化" style="rounded=0;whiteSpace=wrap;html=1;" vertex="1" parent="1">
          <mxGeometry x="-150" y="1334.07" width="70" height="21.94" as="geometry" />
        </mxCell>
        <mxCell id="5wgM6XX0G4aH47P3BtwX-117" value="字段筛选" style="rounded=0;whiteSpace=wrap;html=1;" vertex="1" parent="1">
          <mxGeometry x="-2.5" y="1335.99" width="60" height="21.94" as="geometry" />
        </mxCell>
        <mxCell id="5wgM6XX0G4aH47P3BtwX-118" value="" style="shape=image;verticalLabelPosition=bottom;labelBackgroundColor=default;verticalAlign=top;aspect=fixed;imageAspect=0;image=data:image/png,iVBORw0KGgoAAAANSUhEUgAAABsAAAAeCAYAAADdGWXmAAABfklEQVRIDcWWTUvDQBCG++PEs3fPIl7VmwcvHkRRL+rRgwcFQREE0aPQQlHQYotCa4NUi20p9MMagy2OvIEsJkzK7ETiwpvNbmb22dnZ7jZDKZZMiiz6P9jxVZ12Tx2RLq4b1osSimx2444m5rNi7V/WrIAsrFDpUpzWDsuhySzvPYqBLGycN6JB9EGN94Wd4jgX800Nyxbb9PQ6MFEiBe/u0AzMvSSCYcDfwKmlvN/mQOhTw7CMAEHYmcHGAhD55ooaFgzO1dMrNxzLPjLkCjsyToBbw15aLs2s3xptHVXY2UY7sYzWsGbHo/N8w6jk9KLjsm017Cz3RlJhcigqWL39SXObBbFgr4b5noqHKrKS06fJxZxYsFdH1up49PDcFwv2ahgSvn1SFSvRBoHz6kFZrESw7uCLak1XLNirl/G+2jOHK3f+Rftgr4YNR9/04Y3Egr0a5nsqHta/s+Ce0tTWsGg+bNuiUx+3b9w9ZdOP/55cCd3UnMFf9qUK+wGFrVIQi5dQaQAAAABJRU5ErkJggg==;" vertex="1" parent="1">
          <mxGeometry x="-73.75" y="1553" width="63" height="70" as="geometry" />
        </mxCell>
        <mxCell id="5wgM6XX0G4aH47P3BtwX-119" value="" style="shape=flexArrow;endArrow=classic;html=1;rounded=0;" edge="1" parent="1">
          <mxGeometry width="50" height="50" relative="1" as="geometry">
            <mxPoint x="-50" y="1540" as="sourcePoint" />
            <mxPoint x="-50" y="1490" as="targetPoint" />
          </mxGeometry>
        </mxCell>
        <mxCell id="5wgM6XX0G4aH47P3BtwX-121" value="知识入库" style="rounded=1;whiteSpace=wrap;html=1;fontSize=16;" vertex="1" parent="1">
          <mxGeometry x="81" y="1367.9900000000002" width="100" height="30" as="geometry" />
        </mxCell>
        <mxCell id="5wgM6XX0G4aH47P3BtwX-122" value="" style="shape=flexArrow;endArrow=classic;html=1;rounded=0;exitX=1;exitY=0.5;exitDx=0;exitDy=0;entryX=0.008;entryY=0.549;entryDx=0;entryDy=0;entryPerimeter=0;" edge="1" parent="1" source="5wgM6XX0G4aH47P3BtwX-157" target="5wgM6XX0G4aH47P3BtwX-72">
          <mxGeometry width="50" height="50" relative="1" as="geometry">
            <mxPoint x="90" y="1330" as="sourcePoint" />
            <mxPoint x="188.25" y="1338.07" as="targetPoint" />
          </mxGeometry>
        </mxCell>
        <mxCell id="5wgM6XX0G4aH47P3BtwX-127" value="刑法第一条具体内容？" style="text;html=1;strokeColor=none;fillColor=none;align=center;verticalAlign=middle;whiteSpace=wrap;rounded=0;flipH=1;" vertex="1" parent="1">
          <mxGeometry x="199.5" y="1569.5" width="80.5" height="30" as="geometry" />
        </mxCell>
        <mxCell id="5wgM6XX0G4aH47P3BtwX-128" value="我找了一个可以放贷的人他最多可以收我多少利息?" style="text;html=1;strokeColor=none;fillColor=none;align=center;verticalAlign=middle;whiteSpace=wrap;rounded=0;flipH=1;" vertex="1" parent="1">
          <mxGeometry x="332" y="1569.5" width="80.5" height="30" as="geometry" />
        </mxCell>
        <mxCell id="5wgM6XX0G4aH47P3BtwX-129" value="今天天气怎么样？" style="text;html=1;strokeColor=none;fillColor=none;align=center;verticalAlign=middle;whiteSpace=wrap;rounded=0;flipH=1;" vertex="1" parent="1">
          <mxGeometry x="479" y="1569.5" width="50" height="30" as="geometry" />
        </mxCell>
        <mxCell id="5wgM6XX0G4aH47P3BtwX-134" value="" style="endArrow=classic;html=1;rounded=0;exitX=0.055;exitY=-0.005;exitDx=0;exitDy=0;exitPerimeter=0;entryX=0.515;entryY=1.001;entryDx=0;entryDy=0;entryPerimeter=0;" edge="1" parent="1" source="5wgM6XX0G4aH47P3BtwX-87" target="5wgM6XX0G4aH47P3BtwX-137">
          <mxGeometry width="50" height="50" relative="1" as="geometry">
            <mxPoint x="374" y="1170" as="sourcePoint" />
            <mxPoint x="373.53" y="1117.05" as="targetPoint" />
          </mxGeometry>
        </mxCell>
        <mxCell id="5wgM6XX0G4aH47P3BtwX-135" value="根据《最高人民法院关于审理民间借贷案件于，。。。；再根据《合同法》第二百零五条，。。。" style="text;whiteSpace=wrap;" vertex="1" parent="1">
          <mxGeometry x="308" y="1027" width="117.75" height="70" as="geometry" />
        </mxCell>
        <mxCell id="5wgM6XX0G4aH47P3BtwX-141" value="" style="shape=flexArrow;endArrow=classic;html=1;rounded=0;exitX=0.5;exitY=0;exitDx=0;exitDy=0;entryX=0.5;entryY=1;entryDx=0;entryDy=0;" edge="1" parent="1">
          <mxGeometry width="50" height="50" relative="1" as="geometry">
            <mxPoint x="368.125" y="1543.5" as="sourcePoint" />
            <mxPoint x="368.125" y="1490" as="targetPoint" />
          </mxGeometry>
        </mxCell>
        <mxCell id="5wgM6XX0G4aH47P3BtwX-107" value="1、最高人民法院关于审理民间&#xa;2、《合同法》第二百零五条" style="text;whiteSpace=wrap;" vertex="1" parent="1">
          <mxGeometry x="261" y="1217.11" width="99" height="68" as="geometry" />
        </mxCell>
        <mxCell id="5wgM6XX0G4aH47P3BtwX-149" value="" style="endArrow=classic;html=1;rounded=0;entryX=0.12;entryY=0.994;entryDx=0;entryDy=0;entryPerimeter=0;" edge="1" parent="1" target="5wgM6XX0G4aH47P3BtwX-137">
          <mxGeometry width="50" height="50" relative="1" as="geometry">
            <mxPoint x="230" y="1290" as="sourcePoint" />
            <mxPoint x="240" y="1120" as="targetPoint" />
          </mxGeometry>
        </mxCell>
        <mxCell id="5wgM6XX0G4aH47P3BtwX-152" value="很抱歉，我无法提供实时的天气信息" style="text;whiteSpace=wrap;" vertex="1" parent="1">
          <mxGeometry x="458" y="1027" width="71" height="41" as="geometry" />
        </mxCell>
        <mxCell id="5wgM6XX0G4aH47P3BtwX-153" value="" style="endArrow=classic;html=1;rounded=0;entryX=0.051;entryY=1.006;entryDx=0;entryDy=0;entryPerimeter=0;exitX=0.782;exitY=0.009;exitDx=0;exitDy=0;exitPerimeter=0;" edge="1" parent="1" source="5wgM6XX0G4aH47P3BtwX-72" target="5wgM6XX0G4aH47P3BtwX-87">
          <mxGeometry width="50" height="50" relative="1" as="geometry">
            <mxPoint x="370" y="1290" as="sourcePoint" />
            <mxPoint x="376" y="1241" as="targetPoint" />
          </mxGeometry>
        </mxCell>
        <mxCell id="5wgM6XX0G4aH47P3BtwX-154" value="" style="endArrow=classic;html=1;rounded=0;" edge="1" parent="1">
          <mxGeometry width="50" height="50" relative="1" as="geometry">
            <mxPoint x="499.11" y="1171.02" as="sourcePoint" />
            <mxPoint x="498.64" y="1118.07" as="targetPoint" />
          </mxGeometry>
        </mxCell>
        <mxCell id="5wgM6XX0G4aH47P3BtwX-155" value="问题输入" style="rounded=1;whiteSpace=wrap;html=1;fontSize=16;" vertex="1" parent="1">
          <mxGeometry x="561.25" y="1570" width="100" height="30" as="geometry" />
        </mxCell>
        <mxCell id="5wgM6XX0G4aH47P3BtwX-158" value="" style="endArrow=classic;html=1;rounded=0;entryX=0.176;entryY=1.006;entryDx=0;entryDy=0;entryPerimeter=0;" edge="1" parent="1">
          <mxGeometry width="50" height="50" relative="1" as="geometry">
            <mxPoint x="230" y="1450" as="sourcePoint" />
            <mxPoint x="230.03799999999978" y="1391.7099999999991" as="targetPoint" />
          </mxGeometry>
        </mxCell>
        <mxCell id="5wgM6XX0G4aH47P3BtwX-159" value="" style="shape=flexArrow;endArrow=classic;html=1;rounded=0;" edge="1" parent="1">
          <mxGeometry width="50" height="50" relative="1" as="geometry">
            <mxPoint x="-50.59" y="1437.99" as="sourcePoint" />
            <mxPoint x="-50.59" y="1367.99" as="targetPoint" />
          </mxGeometry>
        </mxCell>
        <mxCell id="5wgM6XX0G4aH47P3BtwX-160" value="" style="shape=image;verticalLabelPosition=bottom;labelBackgroundColor=default;verticalAlign=top;aspect=fixed;imageAspect=0;image=data:image/png,iVBORw0KGgoAAAANSUhEUgAAAIcAAAB3CAYAAAFecmOFAAAAAXNSR0IArs4c6QAAAARnQU1BAACxjwv8YQUAAAAJcEhZcwAAFxEAABcRAcom8z8AACfGSURBVHhe7Z2Hf1RV9sB/f9KWn67u6urquru2tay6trV3sYANlCJFql26CNIRRUCxoEAIJCQhISEhvZKEQHogCaEEvXu+582dvJm8Sd5MZoaQnfP53M/MvJl5795zzz39nvt/Jg6QvJu8t7nKXPjl18CnwRDxJqVHu8114/ebv07ICLbrx2eY+RsqA78YgEE3+dO49JA/ejVu5oaQm1z70n5zxbN7Pf9Ie/PTEv3dXVNz9NVCyE3+8vL+wDtjXl9arH+8+oV0U3fidOCqMeMXFmlPcsu7AlfCbsKX/PHdL6oCVwbgyufSzVUyVOCH7GZ9tRByk0XbavX1eukRN7tGhnedvH98foFeB9b93KB4c0PITfjDtozjgU/GVDX2Bt4Zc+/0g+Z6ufGq7+vN7W9lBa46MAixjS19erN/TsoyfWcv6DWGyXsLQ87OVeP2mW8PnAh8cpBr4cy5X+TmGeaGVzJM/4VQwgu5CdDZfU5vZmfqe0EiT37ug8P62QsG3cQNd07JNnmuqYwEQ97EL1xCN2Fq1+9qCHzyhog3Aal24dl2rcxYV8/5wC8GIOQm8zdUKVWG/9ndmO5Jy53VbCHkJs+8f9jzj7Qrn01XggPqTgwsByDkJk1tZ/S1vuW0+ePzDnN6bG6+XgMa5PrVLwwQooXgTe4WRsOfYErhMGN1uX7H4pu1tjxwdQCCN7F/zqvo1HHTbnz9gC7G+uY+/Q74+6uZZvbaisAnB4I3Wbq9ztz8xoHAp1Aoq+82f35xn67o8/2/mq7u0BkK3uRXWZgne8/r0/nx7kOt5tG5h7RH8zcOcHh+c7zdwZ2FEMTS1V+4m8DegjbTd26Ah0xeUapD+2BzdeDKAITcBHh49iGVN7sPtehnenKNDKX7dL9+9oJBN7Gwr6htkGiIBBFvEg3E5SbxgLHRkS3pTebuaQeVAIJrXYTt0+8VyOIZnr27wVdHoPEJC4+oMILy7EP9Njp6+1vZIp8HpGI4ROzITbKavW4aTbPsJL/ypPmX8OtwbuiGiB2B+8EpfxGFcYfI9+vkhuE6oLvpd/KbrfsGtBIL8AQER+3xKDtyouOsjuQmYU2FNacCVweAG3974Lj56KuaQQoGkFXcofyRwcDa/vFapvkmM/K0AJ4d+YNw68Xba83UVaVB9NpR//PNLNPg4tjHBGuPBDgYD2VKf8p1OJmFd4Sj78prDXzyBs+O8FAv9ROYIPorYoXOQYRTV5YFvhkA5PSUz0q0Y9wLQcfrzpzQDrrBsyMYEjzoz3IDaANleuLyYpmyUAlh4cu0JhVHzkPTzX/eyTOF1aFTeptgMlxMuSEisTKaky4NBFp4X6wdsHED0yTzf82L+2U15Jh9he2BX4XCd6JvQh9MG1hBJWAFeUHEjrSfOhfUKWBSryw6YlpPng18OxiOivnx+Px8xSLYRFM+WNYZ+HZ4iNiRcLggGFkqBIyWROfo5J9sRwVLa3bWB34ZG/juSKIh1ZFwSHUkHMZWR5pEX3nho0JPE8wvxNyRZpHQUz8rVWZnhSJmHiJh2Td1gV/5h6g6wog/+LJa2b99eKTmSOpsU3WsJ/DvocFXRzbtPmbumJwdFGzRtsuf2avuq/4Ljt3qBRE7UiDC6XZ5OMqN182jaX9BORLzrbh2sJJlwbMjTAGS1eum0TSm8I2lxaLlOTrrUODZkWmi7KB/YoQi7r0eEqnxe0T/2p0DXhG8AzF15AkR5+gPQIeoA2rMDtMhvr9veu4g8xooEr03po7AE2xH3LDupwZdDTTbgavF1ln+rfdy3bCrMTjFV4rKMO7DQrUKvMCzI/fPzNM/z15XEeJXtIDnD2uurnnAF2vhVO958/yHh5XIwRJOCvSVgJshIgzqSPWx3pCVgoJ8/4xcs7+oI/ALb8AZfN/MXMUAqwQd9Uhglfz2iT36OhQM6siWfU3KrBpb+9QvgepHh7hGBxdvqw36sVCyN+1ulJE739PpSctKQrz4vPvN4zF0hHmFBiz0nrlgZq0pVy+2xRLvHxRN3eq0qIzrhX7CAb0XeuM3Dla9lWxgUEfSC9t05F6A4YTWDn8AU3dPPWhKjnYHvh2ArJKOoBINnfD7WyaGOr/DYVBHICpGgDB78eMic/b8YLbc3HnWdHpI2lli0fFw7QCyZlKWOSoEXdnYox75oWBQRwBcCDe+nhnU0qEBfOJeUCEP+c87h4KCkNjBApfrDoBoY+4IhHpeTIglYkLQGR7ClD0y55DpF2JMP9wWNLRBP6jHAekFi7fVmHvejqEjdwod3D0t1JOHsfRvGRUjt8sbjH38VY1nrKur55yZvKIkiFUYpJvth4NnR3bmOqGJe4Vlh2tdLN1n3z9sSuq8JWmV8CFUBjpLp28XfjKUX8SCZ0eABZsq1VVlqX7L3qbAN96AwsTvGT3Le/7GKnNalr5fiNgRC5vTjjmGNLQgKwG+0BawgeETzwl2uA4G/vZqhipRscCwHbGAUgMR24cydZZemMKyBm9C9Qu+O+IGlB2m4d1N3s6cWCCmjiQCUh0Jh1HTkdECKYSEQQohYZBCSBhcVIT8KspxTVOv2br/uHlyQb4KT9wevF4lShSK1HtfVGnGBVI+GZA0hKAf7S1oN9NXl5u7ph1UNz0DZvDoUUM1tA2MR5CFUUDgAySe8zAuRgoJQQgOCGzFp2TWMUDxFeDe8xrsSBqIAql/eGavUhj+iPAIUbQQM0JwcHT39ptdeS2a0sTMMevMJHqk1wCS0Xg2GWO8v0N0WixCYjt+ISqEYA//kNMiWnqmBo7Q6MM7dDEahj7L6T4x/Ogb1qmX68wPRIUQTBVIlE5YWzu8c4lsLDuWIM+9f2auWbKt1jS09AW9YdanNFzUfyiICiHjAq45OoWnI6+803y8pcbcKsvlj8/Fn2Igf/jPLRMPmM++O2pySjuGTGltaD2dXIQ8OCvP6aRQCbPhBXhipnxWqt4Y+AkDGo6SiKmoFJH74gPBC/hjTvOQkQMLpE0VVJ80E+U/109wqPZvr2SqI/ervU3q0hrOn+qGqBCy6OtaXat/ls77jb3gJAZJH2+pVkpS9waMT+4Btb2xrNhkHukwrV2RI+tuwGE4U0T3fTNytS9MjkU4CLll0gGzZHudKa/v9vT5DQe+EIJEIUHiWumAe2Z1VuUaHvBvM0/oeo4XMKv1zafNpj3HzEOz89Tfw5Jk8CASLxhS5LUlR8zew21myspS87sn0gYlMEcLvhBCnqFVoG6W9YyDk1kOXwowWvgLeTToBd9lNasv0i/8KBKMEAI8g+VjGTfP4pks2W2ikNm8UAvwlZlrytXLnxSEbNjdqBkrdMxmiQNQBArYy58UBWctHEl85jrLbMqKUrMzt0X/l13Sad7bVGluksFzb4twEMpnpMiHX1b7SpQmQEBCC8lQs9eVq3s7VvCFkB0y00qyghCyryIB6T4twsRAEsGCG4S5MVC39LEk78y6w0fwWD+1oMBkl3Z6BqbcgJJVJnwE6caS4X5KSYH704gPcQ2pGJ7xNRz4Qki1GGAk0vEgvOFkgh0oHjqA5Yay+h6zaGutkjxS5xnhOZv3NGn8YDhAwdq6r8k8/8FhZaDuMBF6CVE5onNz1lUoM2W5Ql19UfiW3eALIRZw7w50xpld3jNLH3xZpdHcM6505GjhlJgChJjYjHDDBCdJLMhIA7MONbGFBL52PkwsI82IHCLyh8pwGwp8IwRS5mF0DOUHhjlvQ6Vmwtm4Bx1nFi9/eq95eE6eWSxUcVh0hEhApu1cuQf3QxwjtSzpXy28BAS8uviI2iMNEfQeN5Q39MikOQg5mWiEAFAInWQAXnrDFyIinxRegL4BknRtC5IsogjjE2jSgQeug2CWAaTOmof/nA2EbocDqJG4DwnxxINgyCCT55LuSvoiyTXRQFQImbaqTB9KwsSe/KFTUQFmdev+JvPQO3kaX7TLDOSAODYBRSMRyO395Osa89hcJ1U2qJsIEkAy194USUYouf1kbA6lqBCCgjZ+0UAKLQ0b5vY3s1UTJRl0OCnhF1qEAn/Oa1UV/JqXQnUSYu3wEuJkG4UqO2NcHl4QFUIsoAjViy4BSf79tYBohQFKY/YhW2ySaatKVUT6gfwqsUdEG2Y5ov1CiRYB3J9l+PkP9aZKJFM0/o1oISaEeAFI2nmwReN6rF9yCKwUYnYvezpNB0sSLinIn31Xp/yE3/E9v4OfXPncXuVVMGw012RD3BASDtgiWKK7RDw+Imseb5pSEmseZhqgKhw6hIzTC9pNd2/8SD9WSBhCIgFK2pdiluNtH42QdISMdkghJAxSCAmDFEJckEKGC1LIcEEKGS5IIcMFKWS4IIUMF6SQ4YJRgQws4VNi6KUVtJmXPinSvc4FYu5Hk2QcD7ioyCAtPKe0U1OicA9q4EksXOsKoMDG9swTmg6eDEg6Ms73/6IeM9LNCRlg5uPZ4hVfh204pUEKXrd/Tc0xb39eplv08ZAlCpKGDFIi1vzUoGHLWycJFbg8XW4keDX8IXjaidQT1Jr8WWlCXAIJQwZROfam/pDTrA6d6wMuQ5ofBHg1nMPqJhTk4C2DsnA8E5yym6ZGAnFHBqmQeLzmbaxQt6CNnXgNbqSNZcSOUp4zdWWpxmLcVRGihbgggzRHgsvvrC03j8/L15kjvhLOBxLVeA5IJ7xApQW21x3xKCUyHMSMjHPCCPGKk65074xc84/XHQ86sxXrMohH4/n0g606E5cVm6Y2/3knUSMDfWDj7kaNd1z7kiyBizx426wDmlcSc9f82KCSKxqIChnkWpFPepmsUxvyu9gNBJDTQcwYEYwoXrEj+r37QFTIYC3aANLFbEgVkABjJkazZmeDJs8s3FpjfvfEnog7o4cD38ho7jijMRHWJOKRV6+OJrLxTJYlORwEsX7KDU1jWPn9UfPbx5OADHIlbp2YpTMCOT4275BqjommFPgRz+BZD885pJH5QxEKjMHMk4KMnLJOJU9m583lJVpeiYpoExYdkXWarnaF12BG0rgnytVLHxeZ77JOaEGroSBplJFZ3KEkapFh4fTZC6ZSDCkKDNz42gFFGBw9FgljtUtSmsgjI28UKvBjvZIgR0oDPCOW4ieAb2SkH25XRYqBupHhhu7T5836XY2an3GjWKE2scVr4O4GAlgK8AK2eDOY2uPD53Zg+qOKb9x1TLd4Q0XwM+r3LdhYJQZhV1RpWL6RwTZwOs7g3oqADDfsK2wz726qNA/MzNXENa9lBGIRhWz9oEjLnvw2X/kfIIHsZCL4IMG9cwIJwz2dTIA6LRDiF3wjg6JiTqrSPuXkfoEEWKrpUfyQxBerHJHfRYfJx4AK/KQ4McukVJHEAhWhfrspjyVKMh2ZR2QCRQu+kEHKwVoxv4MPljWNDcA2DlIRmKnhACuW+tczVpdpghs5Hn5IGC2ysfW0JtYxGX8l3YHlIAjlFQTgGMIqJrdsJFk+vpBBcjtrmoR3OwusTYwjEuDxVB2uOqllXuMFpE2SOUhxHuweqAAGS+O5IAH+svL7eqG8Zk17Ahk9Mjmxgi9kLBQurdsuAohwN2boCiF/EuNe/LhQyThSVUM/0NPXb1aLRun4QJyB2/1zTAjUSVo1/lKb8Xe4+pRSx8Oz8xKPDDRP1votb2QNJLdKc4tP984jMpDJBa2NYkMNjiAqVTwwK1cRjCfMPodn84y56ytF1A52FENBSUMGzIoOUVmLWaeaxaOigVLRhNmynXUjxiILhpZR1OG5/xULOKek08xZV6kpTspcFQEOYnmPBYpUYMtGJMCTDjIemZM3oi2kwyKDdMggMt7KDvIFrpMwT3Xre2eQwIYlG4oUGmSNp/uBmXlmlWiIbCPFf8lyelYQhS7CEnSQ6PAhPORs7iGR1o/C9aMwY/wXJNCScO9nN5QX+ELGP0SztMgIr/oCkPz6VfoxTZBFxodTikUK9gX3YDcSDNHqHlCQVbqmryrXfHM/+kbGkXat000Kpn0Gry8Kv6HWFy6HaMDXMkEf4EFuyvACZjG/qsu8uqRYBpapgwQxbsZreQBLwSINjZF9KSyl8/1Di2lEORt0nv+gMDhJbuTzTCgURY5KwdGEFnwh4+l3C3RbF0mrMDo/cKytz3yypUbFH/qAIxUECdJxlgZUoLqKLBckyHDA3rqv9zXphGgqtdxLBy+NwavoF0TAeHH3dZyKXsz7QgYbZCBxHvzywiKz4efGYPmf4QB9gd0K7EdD/OLJRo1Gne4dBgkoahhq7Imh0CNLEGS6kYBW+9i8fHXzvSzW7e+fTNPwQSzgCxmQ2j2yLiFH1jmNLQ+QdlGtPy80ViXHlMBf4ENDAZYwPIjNhCDBLbGYfZYsETfiJnllXTIxjqQiSocJj2shFvCFDAB/Ahv8bYfoHK80xB9KEDX/otmP6gZ4RVN7n1n2bZ0igPtCBfoqzTJHSvp9sqXaKXEe9rAFm6qSgwwiYyCDVGgS68kFt05h1i/fgRT8pChB1ODwAyBwv0gF/CH4MOza1/sKMhDZiM3XhCmvk+U5lMc7acj4Is3Z/UgnKUPI5j/Wqk2kt4FikIIChZ7wvfymOwJfOCGMePPeJlXK+L0GnQJMkfvBcGHYnNSBPuNn469dJjDaWMA3MtgIzECZtWWiEQJokPsL21XaMABm0mqfcHVVhIT7z11foUsAYsGxPHdDhblzMrsiHSaoUoYWQOrj8w+Z77JPmDafYpGAFjuq7xPlj3AjFnYsyzUKnuEsE5CBOR0O7Iqc/nmZ+TceJxmU3U+va14+Y2LD8HTHgVCQ/c4yRwpWUsOYQ5Qu+BwJegkbeLgv9+B+UBb3pPzf7vzWqLaS+0bG7kNtummPBy4fwsdI/OIrWbP4LPCZsmXLdtIyQT6rS1CogqAUx05FKlrgBaj08CZK3jq8a2B5cV8ocraYCdQQiSYQ7RsZNlSA3cBAe88MrSOgjbLLEduFwdNhXpm1G9/IVB8IPspotnnhwUK7tYqXm4Fz33tE3KOGl8dYZdA3Mrp6zwnpFeigIHWY3qw1Feq9GooU8YIhBlGNkTYUnGWH5HC6BoDoRDtFOmCeo7RZ3sQrjbrS7LJmuaDgjQR8IwNAl1Cm99K+oPSAN+DU4bQHP/tU/QCJJ2zaQfNlV/ZVKmmc5QU1wJxR+qA6inbHC6JCBkChXTzev38qTWcGMqVzfOb6+19Ua8ApFoASQOrrS0tUrFoHMs+AInnOI0Ih2zOOj540Jrg4J1WRjadkK2uWWYNS6DADwUCjXtdw9gcA/8GXyZ5W8rZY/44EcvgBzyBytze/Pa7bOsMhJmS44WB5p3q82aLNIECIDkIGwCA48+bjr6vVLnF7wznyC0b34VfV+ht+b5HKUuA+uA8x6vBkJQNGjAwLiEYcx3io4fQ0K0bhK1eIjkIk7ntR62lvreCcnX0qCvkNVqhKCLmG3kDcNBpxGw+IGzIsEBwmJoLJjvpui5PRGKxdSlYp4zoUBU/gICLEZyKXwlAQd2RYQNwSB50jqjhlZ6xnS6kg8B5E3CpL5NMdR5UhRpt2FG9IGDLc0CYMlzQBmKp1AVJpHS97VxwDTyOFpCDDAoYdnmyWUSyGVKIhqcgY7ZBChgtSyHBBChkuSCHDBSlkuCCFjBREhBRxpCAipIgjBREhRRwpiAgp4khBREgRRwoiQoo4UhARUsQxBJAWUN7Qo2nM1CgnV4PkWB9ZBWMCUsQRAOLDpfXd5uv9Tbo7knpA5KbfNS1Hc1QIlJO3xp5bUjNmr6/QeFB5fY/mmo1F+J8iDhKJyJEhC5xdaNQleX+zUxaITQtsrbFHNhAuptmsCZpNOiCMTBIBOT1khkNAL3xYqCmq2zKOazICkdfz/b/6Sl4arTAmiYMJ6e27oLtRyEhLy2/VtDjqwrDyNS9gnJMhb7cNKwEEosTRNiWcQMoNhEN+IpyGXEVOdVn/c4PJLu3QAlwcQD8aA69eMCaIgwR1iIDkD4iAM0PYAkke1i2TnJQjqhuQtGpTj7wmOZ6NZ/AsiJBs4/9/Kk3F0zPvF2j/SHPeldeqSa/0fzTCJUccp8/26znxX+49pltKX19yRIsVsL2MXFImhCwim4OmYsFj8i5Gg7vAWUjv4pX+3jk5W3NoKZ1Bjht6DBmV8dxUHSuMOuKA5aLgsX+PPDjKcnEQFwoinOA2UQpBqpuVuxMKvSZltDZnDE7ml45DxsB19B6uowfNWF2uex0oZUJKHBu/2NWWDLioxAEhWCLILe/S3S8rdhzVDFQIAeSpOJCVhgJolcNwJI/VxlgZN/mVbFu67c1s3QWEHoP4JIW5WoiGzfGJ0HuTShyURIETYCWQG8nOHCyFB4WtsikWnQBlLpm6waXSwAXKM42aoZSt+Tq9Sf0w6CyXJHGc7O3XM9Umryg1d8igbn4jS3cWwQVYFTav3LLU/9XG5IODcBHJKzoUufzsDcwq7tD6BckQLQkjDjpPQSashr+9yjY2ts87gx0tCuLFakw+C0LT7jGnhSCorHPPtINakHvBxkrz0VfV5lVRttk9d9nTTunlT3fUmaPNyTt0KCHEgbeRMkbsR2Ajlt2T+L/aVCQIAbAfi33f+EDum56rWfdUDaEqa0ZRe8j56W2nzprVO+tVKWW7M6dnk7Uf6wnasUBCiIPT5N7dVKWyEcKAVYIkXrU8g6wYkGVZ51hrSgzCGazYxPq49+2DWuQQy6O47pRpbOkbcpsmR6lS/hITfUwRB/vRqIyCkgn7VC+kEAMxia/FLN20p1HETZEOnDIzOIcsq7W/He2Eg2ikz24zFCLABX/P2zm6iZrqt4WigOMVZSN0NMcvjlniIIL5xIJ8Z7IFcbwiWyk26WadIIwaiWx2prwP2+pxOVOhyrJhquOw+i42sfB8Ow7tk7znsFP6S91IzvvkCEqO1o6Hf/x4xxmtIUnc5jeP7REiydY9kMfbk7cHMiHEQVUOYhi4ju3qAqlsBh1ug2dnj5i7tad08xdl0rDpH5ubL/fJ0DoPEAxiKdHEYokB0xr3N9yMupUcOv/+F1XqmCusPqkVg+J1ICuElXGkQ+tOEAeiSgDcF2K8deIBM0nMVyoLlB3t0dhRoiEhxEHtKkpYs+LdnMMPcYQDkU0Kd+nJ/qWdZtUPR5VlU3uC+/IMJg4iZEJt85pwr2Z/z/+5D2KNHcxYD1gO+GOos8d5BpSIwGkXXj0pFoBrVjb06L0Xbq3VZ90rSirPpS8sAMZnx2JfcQMguu4WcTN5RYnuooQb+ynsGi0khDhKROGavqpMCw3YytYqVoTy3WJlJECVSOoBkYiDLJ4gOsz9Mw6a297Cj+KUy+OZlngcAnCsBq6BfCaB8n3s3X/q3QIze22FFnbjZI+RHDHiBkx64iRUv6SvcEPMe0Qnk+0Qtn0N1bUs0RIuuEP6yP7iSctKzEoRN7llXepOh1DjTxYOJIQ48IKimePuhTCYEBoFJhdvqzHph9tEY+/WMqXxzHegikWFrEacbku/qVUvolNQLkv7AZLxJYz7qFBLjBEZ5UjreBEsQL5ITdNp4Z7tWm2L6uGUQ6SOCwW7nVBAKBHArSBkmsMtHAKGO05ZWWq2Zx5X3SzZuSFxJQ48d0RLOVIKZDBAiwAaSLG1V8iqelRWwkQRNYu312rtFaKt8cyqoiZdh1gKhPOJdGJFMXHxjHgy5uySTi0LO39TpeokFPtivEw2MRHlXjLhFg9wCTgX3+EHohI7eIAQUOQhYkL8j4qutUcIvX+YIqOJgrgRB/59lEgIA0cPK8AiI7wpuxQE8RvLWTBnUb5Y2a+JTkEhYuQxhUqpTZEImRoNaALRGdETGnvMz7mtZsm2WnVi4bkkG4xxMQ47HohBRUWgWbGGqLUijPA8XBY9htI1uRVdqoBTYPm3T+zRklZUlh1J1emRQNyII1vk6SsyqZyOYVkjnkAQAysNRlZdK8irWcKBy/B7UvFQ1CaKrF2zs17ldl1zn+oEcdALIwLEDivPLe/U0wIp/6dOPRmbZf9WR7A+D67h5CMWct3LGapXoJi/uqhYC78h7iJVooH4qMA5JoljR9YJLXeO2cXKYaLJvYBgFm2tUfOPFUMFfzgLJiKmrv1tpAby+Q0TQqFI7o8uM+7Dw+p6XrerQc/GIwUvVpOSiSGlkIL5Ow6c0CJ2cAVEH+zfCZkPHMDh7hf9YSyIUVzi40WsQAiISbK8iET7IWI445gkDpBL/WmsBA4Is2wVhYoCu7ZMImXUKGG0VxRSvH9TVpbpUXfOavOfz8n9HZntZHwho4lBcG7gW5+WaqlWauh3RVilZ4WFUwebZGCyrzht7v6Zudpfnk1fbH6p7YsSQ4A7UEZSlVvRFaZ/Xq7lZclCZ9sCIiJWQCciqQni+I0QB7X7d4loPReHEytjgbgRx4bdjaozsMrcxLFIZLNXiXwAM4wy1Zh5WA1wmHEfOZngIAhCYDIQL5aNhxMKjYnjO55LU8IiM/yNTM0VYTVCMBQohZPB7plc/uv+H+/tZ57JKy5x+sJ/nhciQhfKEsLD0sKclqHHDGSoQ0zca9/hdg3J42jT6rT0ScZMRBuOSxJUTlmH1jLmPwQ34+FvGQriQhxYBVgpN0/MUpFhET0ccUQCNhNRmJXapPMEYeMXFpmHZRWpt1BYOM+AY/CcoTgMjX6gv/B7Nzew3/MeQoBbWI8u8QysDuoabtl3XM+biubsJi9gHsEDegz62dqdDer3eXBWnirjJDjRR3ffbEOcYdVc/nSajh/dh/9uDVTX9HN4RiwQN52D+si4zN2rjtW2VMQKWv5IAHmML+JgWZfqBIu21eiZVtwf0YJ7WydWnhmO2PCmxCAEAjGQgshnqpLP31ilJ5mQelfZ2BtVredIgFKLAo0IJeuNs7PgDDwTPYU+wBHDCYLPtvEZKwedhmRkHGgrvj2qliEeY6wnP8dJxAJxIw6QMP4T5wgIVirEgbXCcRI/HmzWKoLx4oLcBoIjFlEoSiRhcE5+RG+whAliIRZtAVHBNbgCCKbw788iz1l5+D1GmlmFaMXFz9EU7IZjCwKEgEji2XAtd98sEdA320csHLjIPydlqzJMog8i5grhlOg35I2eaI/uZJiRQNyIo+dMv9lf1K5bCC37tghgdcA2Oell0vISs1lEEPW+4QZMTDxrbKKE4oFdIauV883gMHhrt+5v0jyTkRzOBEBEiId6MadJ0GHC0GkenJWrq5txQwBMNmN3EwLfoUg7hOIotcRInnmvQPuI676krls5AaX8sXqw+AjZU6kaj2u83Pp+IG7EAaAgFdd2q2LFioFtghgaiANBIObyZ9I0bRCxwCERIJfwNE4vEmajKQKfaICY0BM49JMTOxgbCqKNlqKAe5nklhj0N7LyIRYcfNbUxWfDeEn68QIi02yv5GhoSxxEZCNZYImAuBKHBUxV5KMepeBClm1B5MFuZSXhIENvAJmwfdLv2a/BqqSsOl7SZAGrFlG1XgiBCsMTRCxyhgVWC8ROX+lzuH7DeKxlBVfQVED5H0fSkW2PD4VDhvyaumOSODCxOEGJQbGqQCJyEy7Bzi6086DLOWCygVTLivm9/QzSCVHTcHyNFxFBDAPEwV5Z1bG61XGYESRrFML7SZS79zZXaaYaB6fxPEu82i9plrDpY/C6vL9BTE10AyaPVALK1+eIooh5ipkea/8QLxzFNaaIg8DZFpGNljisNg5HwFa3mjUxBawDzjHiNBgULkQPWjyNFahy27U6mSSsE1g1NcPxkuLE4hAX4hIol5FWJmcT1BzvVWtk9Y/1+lz3pmpWuyUCywl4Ptet+5++cHrFk8LZiPhyRBn7Xdu64rs5GsIlqjtZLBzyOzgsm6OE8LomU+QmRKxgbuLjQFS4iYNji0iYCQfMxhqR6xxVQjBq3oYKDeDhAIJQsO3xATB5QULRiXO8pJc9laaeWZ6J2/vdLyo1UwuZTmY3/gosFL5nkjmLmlfbt+A95f7oRHzH8yBWstDmCwGyU56TytCpovXbDAdwMCLHWHWkAk4XkfrQ7DwRTU6fGCc6HKkG5K6w5YMk5a6ekflehoOEEAeTwkSgc4QTh5/DtzALcTohoznAnOyvqWJ5EApn8iyhKGexK10arJ7vaFzTzVPyGz6rBSXf83vb+A49B7+H9nFajnltabFyFo7g57wtXP7xjgi3dJxVxxqJ1rjf8bNwcBnWix2D7RPjsmOzOg9hCvQyOBfBPK8FFw9ICHFwbjC5CEwIxMEkoKAymKYRKJfMEYVXuP/CrQTHClUWI2JY5awwlEWrDygByHv6wHVeUSwxD0k84hRr/CMHjnSY9pPn1NMYT0JABLRKf0uOnnL8H+sqzENz8hyipY8vOwQa7KslVumrI1YzzE0yNhYFFhJpgV+mNemh+Jj/LKJLLhOsofW0WfFdncpJ2L5DIM6ucbZFrv2pXimebLCRHqZy6vR5PUd1s+gv6B9MOCYjBOKsskzdlI27GfHC2Uiw5ER4FVuFwPDf7MprUfFAVjrOrKtkkWhitLxCFFaMQRDgRkMCxKTk/V1TD2ogkNO3PhcOtl8IN5mOLzckhDg49Lqh5bSe84ilosoeK0QQA2tkex8Th+ghtZ/EYwJayFyipSMBVTxFHJD5hZOKySIcH+8gFauWNAHMVHW4rSrVqDDJv1YXQjww4eHEwHUIgmvkhaIcY7aTtc+ueY5fGQ2QEOKwgOXAIZ/PflCgRAKBgBxl+9J4hXCUhcp7VjmZUjYCunxHnWHjMGahstFE8c9hAFHTKgRGbAeFefrqMj2PCzc3egKTbhOpVVwEFoK76a43EYHszSGLLE2UyvqWPj1J9mKfwhQJEkocbqgUjoAPAORgQhJZZOXASRxT0qUwynVLSNbL+tCsPFmdZWp9kB2OWYpIGmlMJBywnE6IwojowQ3/qVgHyHt8MqrYhvWTV4fIHW7B92TDEeehvAQBNywdEp9/GZ00EBGSRhxuON//qykV5MNVlmyvVX2A0k03i/KFbwQTGGRDFHActyXCdyTfcug1/pF3hCWz7RD/RUVjjzrhogH2q+KyJ6rMfd4WAkRZ5bmkBsD+4W70gf7Q0J8gAnWdS59w0D0xv0AsqlLVNdJFPBB76Tt7iVFDGFwU4ggHJhRrgVA5NvwKEScoZbBj60izqzU4QfKZCUJ3QdFDJKHwkj3FIZqLxZphcxXJMW5Qa+dIu5YzmLi8WA/jZB8q4kHNZOFUKh6Ecyl3CDSuWYLFOtIjGkXXQNRgPbDzbaRBvdEGo4I4vABxgSlYJArlqh/q1SNJ5JPILlyDyYM4kPUq1wNyHgWQiWRCMW9xHv1ndp7uX3lARBM6DYTA6ofgaPr/wH/hEvwfIiDfFf2HA9LfWVdudhxoVo6A6Im3OBuNMGqJwwuwEEgpxJO67Js6M0XkOeFuJpAJRQRY0zmEywQIx15TnUY+wwn+JJwCdzx5FOgJJOQQ6idKTI4KDqaxTwbecEkRhxfgr0B5RGcg4wpRgZ+DicelDrFYkcQrBIQowuTEjEbHoEgKogaPbKJS7i5FuOSJIxwQRbi82Yluy1fjBEMcPT7vkLrwsXYwj0k0ikc64FiFMUccKYgfpIgjBREhRRwpiAgp4khBREgRRwoiQoo4UhABjPkvGOvVmpS+oOIAAAAASUVORK5CYII=;" vertex="1" parent="1">
          <mxGeometry x="-360" y="1082.05" width="75" height="66.11" as="geometry" />
        </mxCell>
        <mxCell id="5wgM6XX0G4aH47P3BtwX-161" value="星火" style="rounded=0;whiteSpace=wrap;html=1;dashed=1;" vertex="1" parent="1">
          <mxGeometry x="375" y="1204.97" width="60" height="21.94" as="geometry" />
        </mxCell>
        <mxCell id="5wgM6XX0G4aH47P3BtwX-162" value="微调法律" style="rounded=0;whiteSpace=wrap;html=1;dashed=1;" vertex="1" parent="1">
          <mxGeometry x="462.25" y="1204.97" width="60" height="21.94" as="geometry" />
        </mxCell>
        <mxCell id="5wgM6XX0G4aH47P3BtwX-163" value="业务流程" style="ellipse;whiteSpace=wrap;html=1;fontStyle=1;fontSize=23;" vertex="1" parent="1">
          <mxGeometry x="-170" y="1017" width="120" height="80" as="geometry" />
        </mxCell>
        <mxCell id="5wgM6XX0G4aH47P3BtwX-164" value="" style="rounded=0;whiteSpace=wrap;html=1;dashed=1;dashPattern=12 12;" vertex="1" parent="1">
          <mxGeometry x="781" y="1986.96" width="260" height="44.03" as="geometry" />
        </mxCell>
        <mxCell id="5wgM6XX0G4aH47P3BtwX-165" value="" style="rounded=0;whiteSpace=wrap;html=1;dashed=1;dashPattern=8 8;" vertex="1" parent="1">
          <mxGeometry x="1148.25" y="2113" width="351.75" height="40" as="geometry" />
        </mxCell>
        <mxCell id="5wgM6XX0G4aH47P3BtwX-166" value="" style="rounded=0;whiteSpace=wrap;html=1;dashed=1;dashPattern=12 12;" vertex="1" parent="1">
          <mxGeometry x="1148.25" y="1720" width="351.75" height="60.05" as="geometry" />
        </mxCell>
        <mxCell id="5wgM6XX0G4aH47P3BtwX-167" value="" style="rounded=0;whiteSpace=wrap;html=1;dashed=1;dashPattern=12 12;" vertex="1" parent="1">
          <mxGeometry x="780" y="2107.9700000000003" width="260" height="44.03" as="geometry" />
        </mxCell>
        <mxCell id="5wgM6XX0G4aH47P3BtwX-169" value="知识融合" style="rounded=1;whiteSpace=wrap;html=1;fontSize=16;" vertex="1" parent="1">
          <mxGeometry x="1525.5" y="1837.97" width="100" height="30" as="geometry" />
        </mxCell>
        <mxCell id="5wgM6XX0G4aH47P3BtwX-170" value="意图识别" style="rounded=1;whiteSpace=wrap;html=1;fontSize=16;" vertex="1" parent="1">
          <mxGeometry x="1525.5" y="2116.9700000000003" width="100" height="30" as="geometry" />
        </mxCell>
        <mxCell id="5wgM6XX0G4aH47P3BtwX-171" value="知识检索" style="rounded=1;whiteSpace=wrap;html=1;fontSize=16;" vertex="1" parent="1">
          <mxGeometry x="1525.5" y="1993.97" width="100" height="30" as="geometry" />
        </mxCell>
        <mxCell id="5wgM6XX0G4aH47P3BtwX-172" value="法条查询" style="rounded=0;whiteSpace=wrap;html=1;" vertex="1" parent="1">
          <mxGeometry x="1159.5" y="2121" width="60" height="21.94" as="geometry" />
        </mxCell>
        <mxCell id="5wgM6XX0G4aH47P3BtwX-173" value="法律咨询" style="rounded=0;whiteSpace=wrap;html=1;" vertex="1" parent="1">
          <mxGeometry x="1294" y="2121" width="60" height="21.94" as="geometry" />
        </mxCell>
        <mxCell id="5wgM6XX0G4aH47P3BtwX-174" value="日常问答" style="rounded=0;whiteSpace=wrap;html=1;" vertex="1" parent="1">
          <mxGeometry x="1429" y="2121" width="60" height="21.94" as="geometry" />
        </mxCell>
        <mxCell id="5wgM6XX0G4aH47P3BtwX-175" value="知识库" style="text;html=1;strokeColor=none;fillColor=none;align=center;verticalAlign=middle;whiteSpace=wrap;rounded=0;strokeWidth=1;fontSize=17;dashed=1;" vertex="1" parent="1">
          <mxGeometry x="1195.75" y="2008.94" width="60" height="30" as="geometry" />
        </mxCell>
        <mxCell id="5wgM6XX0G4aH47P3BtwX-176" value="大模型" style="text;html=1;strokeColor=none;fillColor=none;align=center;verticalAlign=middle;whiteSpace=wrap;rounded=0;strokeWidth=1;fontSize=17;dashed=1;" vertex="1" parent="1">
          <mxGeometry x="1315.75" y="2008.94" width="60" height="30" as="geometry" />
        </mxCell>
        <mxCell id="5wgM6XX0G4aH47P3BtwX-177" value="" style="rounded=0;whiteSpace=wrap;html=1;" vertex="1" parent="1">
          <mxGeometry x="1148.25" y="1954.11" width="231.75" height="100" as="geometry" />
        </mxCell>
        <mxCell id="5wgM6XX0G4aH47P3BtwX-178" value="知识库" style="text;html=1;strokeColor=none;fillColor=none;align=center;verticalAlign=middle;whiteSpace=wrap;rounded=0;strokeWidth=1;fontSize=17;fontStyle=1" vertex="1" parent="1">
          <mxGeometry x="1236" y="1956.96" width="60" height="30" as="geometry" />
        </mxCell>
        <mxCell id="5wgM6XX0G4aH47P3BtwX-179" value="宪法" style="rounded=0;whiteSpace=wrap;html=1;dashed=1;" vertex="1" parent="1">
          <mxGeometry x="1165.75" y="1993.1100000000001" width="60" height="21.94" as="geometry" />
        </mxCell>
        <mxCell id="5wgM6XX0G4aH47P3BtwX-180" value="法律" style="rounded=0;whiteSpace=wrap;html=1;dashed=1;" vertex="1" parent="1">
          <mxGeometry x="1165.75" y="2021.17" width="60" height="21.94" as="geometry" />
        </mxCell>
        <mxCell id="5wgM6XX0G4aH47P3BtwX-181" value="司法解释" style="rounded=0;whiteSpace=wrap;html=1;dashed=1;" vertex="1" parent="1">
          <mxGeometry x="1236" y="1993.1100000000001" width="60" height="21.94" as="geometry" />
        </mxCell>
        <mxCell id="5wgM6XX0G4aH47P3BtwX-182" value="监察法规" style="rounded=0;whiteSpace=wrap;html=1;dashed=1;" vertex="1" parent="1">
          <mxGeometry x="1236" y="2021.17" width="60" height="21.94" as="geometry" />
        </mxCell>
        <mxCell id="5wgM6XX0G4aH47P3BtwX-183" value="行政法规" style="rounded=0;whiteSpace=wrap;html=1;dashed=1;" vertex="1" parent="1">
          <mxGeometry x="1305.75" y="1993.1100000000001" width="60" height="21.94" as="geometry" />
        </mxCell>
        <mxCell id="5wgM6XX0G4aH47P3BtwX-184" value="地方法规" style="rounded=0;whiteSpace=wrap;html=1;dashed=1;" vertex="1" parent="1">
          <mxGeometry x="1305.75" y="2021.17" width="60" height="21.94" as="geometry" />
        </mxCell>
        <mxCell id="5wgM6XX0G4aH47P3BtwX-185" value="" style="endArrow=classic;html=1;rounded=0;exitX=0.515;exitY=0.016;exitDx=0;exitDy=0;exitPerimeter=0;entryX=0.783;entryY=0.993;entryDx=0;entryDy=0;entryPerimeter=0;" edge="1" source="5wgM6XX0G4aH47P3BtwX-165" target="5wgM6XX0G4aH47P3BtwX-177" parent="1">
          <mxGeometry width="50" height="50" relative="1" as="geometry">
            <mxPoint x="1321.75" y="2116.9700000000003" as="sourcePoint" />
            <mxPoint x="1325.75" y="2052.9700000000003" as="targetPoint" />
          </mxGeometry>
        </mxCell>
        <mxCell id="5wgM6XX0G4aH47P3BtwX-186" value="" style="endArrow=classic;html=1;rounded=0;" edge="1" parent="1">
          <mxGeometry width="50" height="50" relative="1" as="geometry">
            <mxPoint x="1460" y="2113" as="sourcePoint" />
            <mxPoint x="1460" y="1902" as="targetPoint" />
          </mxGeometry>
        </mxCell>
        <mxCell id="5wgM6XX0G4aH47P3BtwX-187" value="" style="rounded=0;whiteSpace=wrap;html=1;" vertex="1" parent="1">
          <mxGeometry x="1320" y="1833" width="180" height="70" as="geometry" />
        </mxCell>
        <mxCell id="5wgM6XX0G4aH47P3BtwX-188" value="大模型" style="text;html=1;strokeColor=none;fillColor=none;align=center;verticalAlign=middle;whiteSpace=wrap;rounded=0;strokeWidth=1;fontSize=17;fontStyle=1" vertex="1" parent="1">
          <mxGeometry x="1384.25" y="1834.0000000000002" width="60" height="30" as="geometry" />
        </mxCell>
        <mxCell id="5wgM6XX0G4aH47P3BtwX-190" value="问题回复" style="rounded=1;whiteSpace=wrap;html=1;fontSize=16;" vertex="1" parent="1">
          <mxGeometry x="1525.5" y="1735.05" width="100" height="30" as="geometry" />
        </mxCell>
        <mxCell id="5wgM6XX0G4aH47P3BtwX-191" value="文档" style="text;html=1;strokeColor=none;fillColor=none;align=center;verticalAlign=middle;whiteSpace=wrap;rounded=0;strokeWidth=1;fontSize=17;" vertex="1" parent="1">
          <mxGeometry x="946.25" y="2234.05" width="60" height="30" as="geometry" />
        </mxCell>
        <mxCell id="5wgM6XX0G4aH47P3BtwX-192" value="文档切分" style="rounded=1;whiteSpace=wrap;html=1;fontSize=16;" vertex="1" parent="1">
          <mxGeometry x="740" y="2073" width="100" height="30" as="geometry" />
        </mxCell>
        <mxCell id="5wgM6XX0G4aH47P3BtwX-193" value="知识梳理" style="rounded=1;whiteSpace=wrap;html=1;fontSize=16;" vertex="1" parent="1">
          <mxGeometry x="740" y="1948.1100000000001" width="100" height="30" as="geometry" />
        </mxCell>
        <mxCell id="5wgM6XX0G4aH47P3BtwX-194" value="规则匹配" style="rounded=0;whiteSpace=wrap;html=1;" vertex="1" parent="1">
          <mxGeometry x="790" y="2117" width="60" height="21.94" as="geometry" />
        </mxCell>
        <mxCell id="5wgM6XX0G4aH47P3BtwX-195" value="模型分段" style="rounded=0;whiteSpace=wrap;html=1;" vertex="1" parent="1">
          <mxGeometry x="881" y="2117" width="60" height="21.94" as="geometry" />
        </mxCell>
        <mxCell id="5wgM6XX0G4aH47P3BtwX-196" value="手动维护" style="rounded=0;whiteSpace=wrap;html=1;" vertex="1" parent="1">
          <mxGeometry x="972" y="2117" width="60" height="21.94" as="geometry" />
        </mxCell>
        <mxCell id="5wgM6XX0G4aH47P3BtwX-197" value="文本向量化" style="rounded=0;whiteSpace=wrap;html=1;" vertex="1" parent="1">
          <mxGeometry x="810" y="1997.07" width="70" height="21.94" as="geometry" />
        </mxCell>
        <mxCell id="5wgM6XX0G4aH47P3BtwX-198" value="字段筛选" style="rounded=0;whiteSpace=wrap;html=1;" vertex="1" parent="1">
          <mxGeometry x="957.5" y="1998.99" width="60" height="21.94" as="geometry" />
        </mxCell>
        <mxCell id="5wgM6XX0G4aH47P3BtwX-199" value="" style="shape=image;verticalLabelPosition=bottom;labelBackgroundColor=default;verticalAlign=top;aspect=fixed;imageAspect=0;image=data:image/png,iVBORw0KGgoAAAANSUhEUgAAABsAAAAeCAYAAADdGWXmAAABfklEQVRIDcWWTUvDQBCG++PEs3fPIl7VmwcvHkRRL+rRgwcFQREE0aPQQlHQYotCa4NUi20p9MMagy2OvIEsJkzK7ETiwpvNbmb22dnZ7jZDKZZMiiz6P9jxVZ12Tx2RLq4b1osSimx2444m5rNi7V/WrIAsrFDpUpzWDsuhySzvPYqBLGycN6JB9EGN94Wd4jgX800Nyxbb9PQ6MFEiBe/u0AzMvSSCYcDfwKmlvN/mQOhTw7CMAEHYmcHGAhD55ooaFgzO1dMrNxzLPjLkCjsyToBbw15aLs2s3xptHVXY2UY7sYzWsGbHo/N8w6jk9KLjsm017Cz3RlJhcigqWL39SXObBbFgr4b5noqHKrKS06fJxZxYsFdH1up49PDcFwv2ahgSvn1SFSvRBoHz6kFZrESw7uCLak1XLNirl/G+2jOHK3f+Rftgr4YNR9/04Y3Egr0a5nsqHta/s+Ce0tTWsGg+bNuiUx+3b9w9ZdOP/55cCd3UnMFf9qUK+wGFrVIQi5dQaQAAAABJRU5ErkJggg==;" vertex="1" parent="1">
          <mxGeometry x="886.25" y="2216" width="63" height="70" as="geometry" />
        </mxCell>
        <mxCell id="5wgM6XX0G4aH47P3BtwX-200" value="" style="shape=flexArrow;endArrow=classic;html=1;rounded=0;" edge="1" parent="1">
          <mxGeometry width="50" height="50" relative="1" as="geometry">
            <mxPoint x="910" y="2203" as="sourcePoint" />
            <mxPoint x="910" y="2153" as="targetPoint" />
          </mxGeometry>
        </mxCell>
        <mxCell id="5wgM6XX0G4aH47P3BtwX-201" value="知识入库" style="rounded=1;whiteSpace=wrap;html=1;fontSize=16;" vertex="1" parent="1">
          <mxGeometry x="1041" y="2030.9900000000002" width="100" height="30" as="geometry" />
        </mxCell>
        <mxCell id="5wgM6XX0G4aH47P3BtwX-202" value="" style="shape=flexArrow;endArrow=classic;html=1;rounded=0;exitX=1;exitY=0.5;exitDx=0;exitDy=0;entryX=0.008;entryY=0.549;entryDx=0;entryDy=0;entryPerimeter=0;" edge="1" source="5wgM6XX0G4aH47P3BtwX-164" target="5wgM6XX0G4aH47P3BtwX-177" parent="1">
          <mxGeometry width="50" height="50" relative="1" as="geometry">
            <mxPoint x="1050" y="1993" as="sourcePoint" />
            <mxPoint x="1148.25" y="2001.07" as="targetPoint" />
          </mxGeometry>
        </mxCell>
        <mxCell id="5wgM6XX0G4aH47P3BtwX-204" value="定金支付标准的法律规定？" style="text;html=1;strokeColor=none;fillColor=none;align=center;verticalAlign=middle;whiteSpace=wrap;rounded=0;flipH=1;" vertex="1" parent="1">
          <mxGeometry x="1253.88" y="2223" width="148" height="27.5" as="geometry" />
        </mxCell>
        <mxCell id="5wgM6XX0G4aH47P3BtwX-206" value="" style="endArrow=classic;html=1;rounded=0;exitX=0.055;exitY=-0.005;exitDx=0;exitDy=0;exitPerimeter=0;entryX=0.515;entryY=1.001;entryDx=0;entryDy=0;entryPerimeter=0;" edge="1" source="5wgM6XX0G4aH47P3BtwX-187" target="5wgM6XX0G4aH47P3BtwX-166" parent="1">
          <mxGeometry width="50" height="50" relative="1" as="geometry">
            <mxPoint x="1334" y="1833" as="sourcePoint" />
            <mxPoint x="1333.53" y="1780.05" as="targetPoint" />
          </mxGeometry>
        </mxCell>
        <mxCell id="5wgM6XX0G4aH47P3BtwX-207" value="根据《民法典》第五百八十六条：当事人可以约定一方向对方给付定金作为债权的担保。定金合同自实际交付定金时成立。" style="text;whiteSpace=wrap;" vertex="1" parent="1">
          <mxGeometry x="1160" y="1731" width="340" height="40" as="geometry" />
        </mxCell>
        <mxCell id="5wgM6XX0G4aH47P3BtwX-208" value="" style="shape=flexArrow;endArrow=classic;html=1;rounded=0;exitX=0.5;exitY=0;exitDx=0;exitDy=0;entryX=0.5;entryY=1;entryDx=0;entryDy=0;" edge="1" parent="1">
          <mxGeometry width="50" height="50" relative="1" as="geometry">
            <mxPoint x="1328.125" y="2206.5" as="sourcePoint" />
            <mxPoint x="1328.125" y="2153" as="targetPoint" />
          </mxGeometry>
        </mxCell>
        <mxCell id="5wgM6XX0G4aH47P3BtwX-209" value="法条一&#xa;法条二&#xa;..." style="text;whiteSpace=wrap;" vertex="1" parent="1">
          <mxGeometry x="1271" y="1902.33" width="49" height="51.78" as="geometry" />
        </mxCell>
        <mxCell id="5wgM6XX0G4aH47P3BtwX-210" value="" style="endArrow=classic;html=1;rounded=0;entryX=0.12;entryY=0.994;entryDx=0;entryDy=0;entryPerimeter=0;" edge="1" target="5wgM6XX0G4aH47P3BtwX-166" parent="1">
          <mxGeometry width="50" height="50" relative="1" as="geometry">
            <mxPoint x="1190" y="1953" as="sourcePoint" />
            <mxPoint x="1200" y="1783" as="targetPoint" />
          </mxGeometry>
        </mxCell>
        <mxCell id="5wgM6XX0G4aH47P3BtwX-212" value="" style="endArrow=classic;html=1;rounded=0;entryX=0.051;entryY=1.006;entryDx=0;entryDy=0;entryPerimeter=0;exitX=0.782;exitY=0.009;exitDx=0;exitDy=0;exitPerimeter=0;" edge="1" source="5wgM6XX0G4aH47P3BtwX-177" target="5wgM6XX0G4aH47P3BtwX-187" parent="1">
          <mxGeometry width="50" height="50" relative="1" as="geometry">
            <mxPoint x="1330" y="1953" as="sourcePoint" />
            <mxPoint x="1336" y="1904" as="targetPoint" />
          </mxGeometry>
        </mxCell>
        <mxCell id="5wgM6XX0G4aH47P3BtwX-213" value="" style="endArrow=classic;html=1;rounded=0;" edge="1" parent="1">
          <mxGeometry width="50" height="50" relative="1" as="geometry">
            <mxPoint x="1459.1100000000001" y="1834.02" as="sourcePoint" />
            <mxPoint x="1458.6399999999999" y="1781.07" as="targetPoint" />
          </mxGeometry>
        </mxCell>
        <mxCell id="5wgM6XX0G4aH47P3BtwX-214" value="问题输入" style="rounded=1;whiteSpace=wrap;html=1;fontSize=16;" vertex="1" parent="1">
          <mxGeometry x="1521.25" y="2222" width="100" height="30" as="geometry" />
        </mxCell>
        <mxCell id="5wgM6XX0G4aH47P3BtwX-215" value="" style="endArrow=classic;html=1;rounded=0;entryX=0.176;entryY=1.006;entryDx=0;entryDy=0;entryPerimeter=0;" edge="1" parent="1">
          <mxGeometry width="50" height="50" relative="1" as="geometry">
            <mxPoint x="1190" y="2113" as="sourcePoint" />
            <mxPoint x="1190.0379999999998" y="2054.709999999999" as="targetPoint" />
          </mxGeometry>
        </mxCell>
        <mxCell id="5wgM6XX0G4aH47P3BtwX-216" value="" style="shape=flexArrow;endArrow=classic;html=1;rounded=0;" edge="1" parent="1">
          <mxGeometry width="50" height="50" relative="1" as="geometry">
            <mxPoint x="909.41" y="2100.99" as="sourcePoint" />
            <mxPoint x="909.41" y="2030.99" as="targetPoint" />
          </mxGeometry>
        </mxCell>
        <mxCell id="5wgM6XX0G4aH47P3BtwX-217" value="星火" style="rounded=0;whiteSpace=wrap;html=1;dashed=1;" vertex="1" parent="1">
          <mxGeometry x="1335" y="1867.97" width="60" height="21.94" as="geometry" />
        </mxCell>
        <mxCell id="5wgM6XX0G4aH47P3BtwX-218" value="微调法律" style="rounded=0;whiteSpace=wrap;html=1;dashed=1;" vertex="1" parent="1">
          <mxGeometry x="1422.25" y="1867.97" width="60" height="21.94" as="geometry" />
        </mxCell>
        <mxCell id="5wgM6XX0G4aH47P3BtwX-219" value="业务流程" style="ellipse;whiteSpace=wrap;html=1;fontStyle=1;fontSize=23;" vertex="1" parent="1">
          <mxGeometry x="790" y="1680" width="120" height="80" as="geometry" />
        </mxCell>
        <mxCell id="5wgM6XX0G4aH47P3BtwX-220" value="法条" style="text;whiteSpace=wrap;" vertex="1" parent="1">
          <mxGeometry x="1195.75" y="1858.9999999999998" width="49" height="39.89" as="geometry" />
        </mxCell>
        <mxCell id="5wgM6XX0G4aH47P3BtwX-221" style="edgeStyle=orthogonalEdgeStyle;rounded=0;orthogonalLoop=1;jettySize=auto;html=1;exitX=0.5;exitY=1;exitDx=0;exitDy=0;" edge="1" parent="1">
          <mxGeometry relative="1" as="geometry">
            <mxPoint x="1324.125" y="2260" as="sourcePoint" />
            <mxPoint x="1324.125" y="2260" as="targetPoint" />
          </mxGeometry>
        </mxCell>
      </root>
    </mxGraphModel>
  </diagram>
</mxfile>
